<?xml version="1.0" encoding="UTF-8" standalone="no"?>
<svg
   xmlns:dc="http://purl.org/dc/elements/1.1/"
   xmlns:cc="http://creativecommons.org/ns#"
   xmlns:rdf="http://www.w3.org/1999/02/22-rdf-syntax-ns#"
   xmlns:svg="http://www.w3.org/2000/svg"
   xmlns="http://www.w3.org/2000/svg"
   xmlns:sodipodi="http://sodipodi.sourceforge.net/DTD/sodipodi-0.dtd"
   xmlns:inkscape="http://www.inkscape.org/namespaces/inkscape"
   version="1.1"
   viewBox="0 0 479.83412 488.35483"
   stroke-miterlimit="10"
   id="svg973"
   sodipodi:docname="ho-driving1.svg"
   width="359.87558pt"
   height="366.26611pt"
   style="fill:none;stroke:none;stroke-linecap:square;stroke-miterlimit:10"
   inkscape:version="0.92.1 r15371">
  <metadata
     id="metadata979">
    <rdf:RDF>
      <cc:Work
         rdf:about="">
        <dc:format>image/svg+xml</dc:format>
        <dc:type
           rdf:resource="http://purl.org/dc/dcmitype/StillImage" />
        <dc:title></dc:title>
      </cc:Work>
    </rdf:RDF>
  </metadata>
  <defs
     id="defs977" />
  <sodipodi:namedview
     pagecolor="#ffffff"
     bordercolor="#666666"
     borderopacity="1"
     objecttolerance="10"
     gridtolerance="10"
     guidetolerance="10"
     inkscape:pageopacity="0"
     inkscape:pageshadow="2"
     inkscape:window-width="1535"
     inkscape:window-height="1176"
     id="namedview975"
     showgrid="false"
     units="pt"
     fit-margin-top="10"
     fit-margin-left="10"
     fit-margin-right="10"
     fit-margin-bottom="10"
     inkscape:zoom="1.6495982"
     inkscape:cx="239.91705"
     inkscape:cy="244.1774"
     inkscape:window-x="65"
     inkscape:window-y="24"
     inkscape:window-maximized="1"
     inkscape:current-layer="svg973" />
  <clipPath
     id="p.0">
    <path
       d="M 0,0 H 566.4593 V 577.1102 H 0 Z"
       id="path868"
       inkscape:connector-curvature="0"
       style="clip-rule:nonzero" />
  </clipPath>
  <g
     clip-path="url(#p.0)"
     id="g971"
     transform="matrix(0.8,0,0,0.8,13.333333,13.333333)">
    <path
       d="M 0,0 H 566.4593 V 577.1102 H 0 Z"
       id="path871"
       inkscape:connector-curvature="0"
       style="fill:#000000;fill-opacity:0;fill-rule:evenodd" />
    <path
       d="m 215.22966,13.888639 v 0 c 0,-5.1547618 4.17876,-9.3335215 9.33351,-9.3335215 h 77.33298 c 2.4754,0 4.8494,0.9833503 6.59979,2.7337246 1.75037,1.7503743 2.73371,4.1243919 2.73371,6.5997959 V 51.2216 c 0,5.154759 -4.17874,9.333519 -9.3335,9.333519 h -77.33298 c -5.15475,0 -9.33351,-4.17876 -9.33351,-9.333519 z"
       id="path873"
       inkscape:connector-curvature="0"
       style="fill:#cfe2f3;fill-rule:evenodd" />
    <path
       d="m 215.22966,13.888639 v 0 c 0,-5.1547618 4.17876,-9.3335215 9.33351,-9.3335215 h 77.33298 c 2.4754,0 4.8494,0.9833503 6.59979,2.7337246 1.75037,1.7503743 2.73371,4.1243919 2.73371,6.5997959 V 51.2216 c 0,5.154759 -4.17874,9.333519 -9.3335,9.333519 h -77.33298 c -5.15475,0 -9.33351,-4.17876 -9.33351,-9.333519 z"
       id="path875"
       inkscape:connector-curvature="0"
       style="fill-rule:evenodd;stroke:#073763;stroke-width:2;stroke-linecap:butt;stroke-linejoin:round" />
    <path
       d="m 239.79456,38.256367 q -0.9375,0.796875 -1.79688,1.125 -0.85937,0.3125 -1.84375,0.3125 -1.60937,0 -2.48437,-0.78125 -0.875,-0.796875 -0.875,-2.03125 0,-0.734375 0.32812,-1.328125 0.32813,-0.59375 0.85938,-0.953125 0.53125,-0.359375 1.20312,-0.546875 0.5,-0.140625 1.48438,-0.25 2.03125,-0.25 2.98437,-0.578125 0,-0.34375 0,-0.4375 0,-1.015627 -0.46875,-1.437502 -0.64062,-0.5625 -1.90625,-0.5625 -1.17187,0 -1.73437,0.40625 -0.5625,0.40625 -0.82813,1.468752 l -1.64062,-0.234375 q 0.23437,-1.046877 0.73437,-1.687502 0.51563,-0.640625 1.46875,-0.984375 0.96875,-0.359375 2.25,-0.359375 1.26563,0 2.04688,0.296875 0.78125,0.296875 1.15625,0.75 0.375,0.453125 0.51562,1.140625 0.0937,0.421877 0.0937,1.531252 v 2.234375 q 0,2.328125 0.0937,2.953125 0.10938,0.609375 0.4375,1.171875 h -1.75 q -0.26562,-0.515625 -0.32812,-1.21875 z m -0.14063,-3.71875 q -0.90625,0.359375 -2.73437,0.625 -1.03125,0.140625 -1.45313,0.328125 -0.42187,0.1875 -0.65625,0.546875 -0.23437,0.359375 -0.23437,0.796875 0,0.671875 0.5,1.125 0.51562,0.4375 1.48437,0.4375 0.96875,0 1.71875,-0.421875 0.75,-0.4375 1.10938,-1.15625 0.26562,-0.578125 0.26562,-1.671875 z m 10.46947,4.9375 v -1.25 q -0.9375,1.46875 -2.75,1.46875 -1.17187,0 -2.17187,-0.640625 -0.98438,-0.65625 -1.53125,-1.8125 -0.53125,-1.171875 -0.53125,-2.6875 0,-1.46875 0.48437,-2.671877 0.5,-1.203125 1.46875,-1.84375 0.98438,-0.640625 2.20313,-0.640625 0.89062,0 1.57812,0.375 0.70313,0.375 1.14063,0.984375 v -4.875 h 1.65625 v 13.593752 z m -5.28125,-4.921875 q 0,1.890625 0.79688,2.828125 0.8125,0.9375 1.89062,0.9375 1.09375,0 1.85938,-0.890625 0.76562,-0.890625 0.76562,-2.734375 0,-2.015625 -0.78125,-2.953127 -0.78125,-0.953125 -1.92187,-0.953125 -1.10938,0 -1.85938,0.90625 -0.75,0.906252 -0.75,2.859377 z m 15.65697,4.921875 v -1.25 q -0.9375,1.46875 -2.75,1.46875 -1.17188,0 -2.17188,-0.640625 -0.98437,-0.65625 -1.53125,-1.8125 -0.53125,-1.171875 -0.53125,-2.6875 0,-1.46875 0.48438,-2.671877 0.5,-1.203125 1.46875,-1.84375 0.98437,-0.640625 2.20312,-0.640625 0.89063,0 1.57813,0.375 0.70312,0.375 1.14062,0.984375 v -4.875 h 1.65625 v 13.593752 z m -5.28125,-4.921875 q 0,1.890625 0.79687,2.828125 0.8125,0.9375 1.89063,0.9375 1.09375,0 1.85937,-0.890625 0.76563,-0.890625 0.76563,-2.734375 0,-2.015625 -0.78125,-2.953127 -0.78125,-0.953125 -1.92188,-0.953125 -1.10937,0 -1.85937,0.90625 -0.75,0.906252 -0.75,2.859377 z m 20.88714,3.703125 q -0.9375,0.796875 -1.79687,1.125 -0.85938,0.3125 -1.84375,0.3125 -1.60938,0 -2.48438,-0.78125 -0.875,-0.796875 -0.875,-2.03125 0,-0.734375 0.32813,-1.328125 0.32812,-0.59375 0.85937,-0.953125 0.53125,-0.359375 1.20313,-0.546875 0.5,-0.140625 1.48437,-0.25 2.03125,-0.25 2.98438,-0.578125 0,-0.34375 0,-0.4375 0,-1.015627 -0.46875,-1.437502 -0.64063,-0.5625 -1.90625,-0.5625 -1.17188,0 -1.73438,0.40625 -0.5625,0.40625 -0.82812,1.468752 l -1.64063,-0.234375 q 0.23438,-1.046877 0.73438,-1.687502 0.51562,-0.640625 1.46875,-0.984375 0.96875,-0.359375 2.25,-0.359375 1.26562,0 2.04687,0.296875 0.78125,0.296875 1.15625,0.75 0.375,0.453125 0.51563,1.140625 0.0937,0.421877 0.0937,1.531252 v 2.234375 q 0,2.328125 0.0937,2.953125 0.10937,0.609375 0.4375,1.171875 h -1.75 q -0.26563,-0.515625 -0.32813,-1.21875 z m -0.14062,-3.71875 q -0.90625,0.359375 -2.73438,0.625 -1.03125,0.140625 -1.45312,0.328125 -0.42188,0.1875 -0.65625,0.546875 -0.23438,0.359375 -0.23438,0.796875 0,0.671875 0.5,1.125 0.51563,0.4375 1.48438,0.4375 0.96875,0 1.71875,-0.421875 0.75,-0.4375 1.10937,-1.15625 0.26563,-0.578125 0.26563,-1.671875 z m 10.80902,4.9375 h -1.54687 V 25.881365 h 1.65625 v 4.84375 q 1.0625,-1.328125 2.70312,-1.328125 0.90625,0 1.71875,0.375 0.8125,0.359375 1.32813,1.03125 0.53125,0.65625 0.82812,1.593752 0.29688,0.9375 0.29688,2 0,2.53125 -1.25,3.921875 -1.25,1.375 -3,1.375 -1.75,0 -2.73438,-1.453125 z m -0.0156,-5 q 0,1.765625 0.46875,2.5625 0.79687,1.28125 2.14062,1.28125 1.09375,0 1.89063,-0.9375 0.79687,-0.953125 0.79687,-2.84375 0,-1.921875 -0.76562,-2.843752 -0.76563,-0.921875 -1.84375,-0.921875 -1.09375,0 -1.89063,0.953125 -0.79687,0.953127 -0.79687,2.750002 z"
       id="path877"
       inkscape:connector-curvature="0"
       style="fill:#000000;fill-rule:nonzero" />
    <path
       d="m 7.2296586,116.55527 v 0 c 0,-4.41836 3.5817944,-8.00015 8.0001604,-8.00015 H 511.22948 c 2.12176,0 4.15668,0.84287 5.65698,2.34319 1.50031,1.50032 2.3432,3.53519 2.3432,5.65696 v 31.99969 c 0,4.41837 -3.58179,8.00015 -8.00018,8.00015 H 15.229819 v 0 c -4.418366,0 -8.0001603,-3.58178 -8.0001603,-8.00015 z"
       id="path879"
       inkscape:connector-curvature="0"
       style="fill:#cfe2f3;fill-rule:evenodd" />
    <path
       d="m 7.2296586,116.55527 v 0 c 0,-4.41836 3.5817944,-8.00015 8.0001604,-8.00015 H 511.22948 c 2.12176,0 4.15668,0.84287 5.65698,2.34319 1.50031,1.50032 2.3432,3.53519 2.3432,5.65696 v 31.99969 c 0,4.41837 -3.58179,8.00015 -8.00018,8.00015 H 15.229819 v 0 c -4.418366,0 -8.0001603,-3.58178 -8.0001603,-8.00015 z"
       id="path881"
       inkscape:connector-curvature="0"
       style="fill-rule:evenodd;stroke:#073763;stroke-width:2;stroke-linecap:butt;stroke-linejoin:round" />
    <path
       d="m 31.794933,143.47511 q -1.375,-1.75 -2.328125,-4.07813 -0.953125,-2.34375 -0.953125,-4.84375 0,-2.21875 0.703125,-4.23437 0.84375,-2.34374 2.578125,-4.67187 h 1.203125 q -1.125,1.92188 -1.484375,2.74999 -0.5625,1.28125 -0.890625,2.67188 -0.40625,1.73437 -0.40625,3.48437 0,4.46875 2.78125,8.92188 z m 5.712677,-3.76563 -3.9375,-14.06249 h 1.34375 l 3.9375,14.06249 z m 1.386429,-0.23437 3.59375,-5.125 -3.328125,-4.73438 h 2.09375 l 1.515625,2.3125 q 0.421875,0.65625 0.671875,1.10938 0.421875,-0.60938 0.765625,-1.09375 l 1.65625,-2.32813 h 1.984375 l -3.390625,4.64063 3.65625,5.21875 h -2.046875 l -2.03125,-3.0625 -0.53125,-0.82813 -2.59375,3.89063 z m 14.980179,-4.07813 v -1.6875 h 5.125 v 1.6875 z m 15.650173,-1.875 -8.999996,3.85938 v -1.65625 l 7.124996,-2.96875 -7.124996,-2.9375 v -1.65625 l 8.999996,3.8125 z m 10.468887,9.95313 q -1.375,-1.75 -2.328125,-4.07813 -0.953125,-2.34375 -0.953125,-4.84375 0,-2.21875 0.703125,-4.23437 0.84375,-2.34374 2.578125,-4.67187 h 1.203125 q -1.125,1.92188 -1.484375,2.74999 -0.5625,1.28125 -0.890625,2.67188 -0.40625,1.73437 -0.40625,3.48437 0,4.46875 2.78125,8.92188 z m 5.712677,-3.76563 -3.9375,-14.06249 h 1.34375 l 3.9375,14.06249 z m 2.417679,3.5625 -0.171875,-1.5625 q 0.546875,0.14063 0.953125,0.14063 0.546875,0 0.875,-0.1875 0.34375,-0.1875 0.5625,-0.51563 0.15625,-0.25 0.5,-1.25 0.04687,-0.14062 0.15625,-0.40625 l -3.734375,-9.875 h 1.796875 l 2.046875,5.71875 q 0.40625,1.07813 0.71875,2.28125 0.28125,-1.15625 0.6875,-2.25 l 2.09375,-5.75 h 1.671875 l -3.75,10.03125 q -0.59375,1.625 -0.9375,2.23438 -0.4375,0.82812 -1.015625,1.20312 -0.578125,0.39063 -1.375,0.39063 -0.484375,0 -1.078125,-0.20313 z m 13.948926,-7.875 v -1.6875 h 5.125 v 1.6875 z m 15.65018,-1.875 -9,3.85938 v -1.65625 l 7.125,-2.96875 -7.125,-2.9375 v -1.65625 l 9,3.8125 z m 13.71889,2.34375 1.64063,0.21875 q -0.26563,1.6875 -1.375,2.65625 -1.10938,0.95313 -2.73438,0.95313 -2.01563,0 -3.25,-1.3125 -1.21875,-1.32813 -1.21875,-3.79688 0,-1.59375 0.51562,-2.78125 0.53125,-1.20312 1.60938,-1.79687 1.09375,-0.60938 2.35938,-0.60938 1.60937,0 2.625,0.8125 1.01562,0.8125 1.3125,2.3125 l -1.625,0.25 q -0.23438,-1 -0.82813,-1.5 -0.59375,-0.5 -1.42187,-0.5 -1.26563,0 -2.06251,0.90625 -0.78125,0.90625 -0.78125,2.85938 0,1.98437 0.76563,2.89062 0.76562,0.89063 1.98438,0.89063 0.98437,0 1.64062,-0.59375 0.65625,-0.60938 0.84375,-1.85938 z m 9.32813,2.39063 q -0.9375,0.79687 -1.79688,1.125 -0.85937,0.3125 -1.84375,0.3125 -1.60937,0 -2.48437,-0.78125 -0.875,-0.79688 -0.875,-2.03125 0,-0.73438 0.32812,-1.32813 0.32813,-0.59375 0.85938,-0.95312 0.53125,-0.35938 1.20312,-0.54688 0.5,-0.14062 1.48438,-0.25 2.03125,-0.25 2.98437,-0.57812 0,-0.34375 0,-0.4375 0,-1.01563 -0.46875,-1.4375 -0.64062,-0.5625 -1.90625,-0.5625 -1.17187,0 -1.73437,0.40625 -0.5625,0.40625 -0.82813,1.46875 l -1.64062,-0.23438 q 0.23437,-1.04687 0.73437,-1.6875 0.51563,-0.64062 1.46875,-0.98437 0.96875,-0.35938 2.25,-0.35938 1.26563,0 2.04688,0.29688 0.78125,0.29687 1.15625,0.75 0.375,0.45312 0.51562,1.14062 0.0937,0.42188 0.0937,1.53125 v 2.23438 q 0,2.32812 0.0937,2.95312 0.10938,0.60938 0.4375,1.17188 h -1.75 q -0.26562,-0.51563 -0.32812,-1.21875 z m -0.14063,-3.71875 q -0.90625,0.35937 -2.73437,0.625 -1.03125,0.14062 -1.45313,0.32812 -0.42187,0.1875 -0.65625,0.54688 -0.23437,0.35937 -0.23437,0.79687 0,0.67188 0.5,1.125 0.51562,0.4375 1.48437,0.4375 0.96875,0 1.71875,-0.42187 0.75,-0.4375 1.10938,-1.15625 0.26562,-0.57813 0.26562,-1.67188 z m 3.40697,2 1.65625,-0.26563 q 0.14063,1 0.76563,1.53125 0.64062,0.51563 1.78125,0.51563 1.15625,0 1.70312,-0.46875 0.5625,-0.46875 0.5625,-1.09375 0,-0.5625 -0.48437,-0.89063 -0.34375,-0.21875 -1.70313,-0.5625 -1.84375,-0.46875 -2.5625,-0.79687 -0.70312,-0.34375 -1.07812,-0.9375 -0.35938,-0.60938 -0.35938,-1.32813 0,-0.65625 0.29688,-1.21875 0.3125,-0.5625 0.82812,-0.9375 0.39063,-0.28125 1.0625,-0.48437 0.67188,-0.20313 1.4375,-0.20313 1.17188,0 2.04688,0.34375 0.875,0.32813 1.28125,0.90625 0.42187,0.5625 0.57812,1.51563 l -1.625,0.21875 q -0.10937,-0.75 -0.65625,-1.17188 -0.53125,-0.4375 -1.5,-0.4375 -1.15625,0 -1.64062,0.39063 -0.48438,0.375 -0.48438,0.875 0,0.32812 0.20313,0.59375 0.20312,0.26562 0.64062,0.4375 0.25,0.0937 1.46875,0.4375 1.76563,0.46875 2.46875,0.76562 0.70313,0.29688 1.09375,0.875 0.40625,0.57813 0.40625,1.4375 0,0.82813 -0.48437,1.57813 -0.48438,0.73437 -1.40625,1.14062 -0.92188,0.39063 -2.07813,0.39063 -1.92187,0 -2.9375,-0.79688 -1,-0.79687 -1.28125,-2.35937 z m 16.75,-0.23438 1.71875,0.21875 q -0.40625,1.5 -1.51562,2.34375 -1.09375,0.82813 -2.8125,0.82813 -2.15625,0 -3.42188,-1.32813 -1.26562,-1.32812 -1.26562,-3.73437 0,-2.48438 1.26562,-3.85938 1.28125,-1.375 3.32813,-1.375 1.98437,0 3.23437,1.34375 1.25,1.34375 1.25,3.79688 0,0.14062 -0.0156,0.4375 H 155.208 q 0.0937,1.625 0.92187,2.48437 0.82813,0.85938 2.0625,0.85938 0.90625,0 1.54688,-0.46875 0.65625,-0.48438 1.04687,-1.54688 z m -5.48437,-2.70312 h 5.5 q -0.10938,-1.23438 -0.625,-1.85938 -0.79688,-0.96875 -2.07813,-0.96875 -1.14062,0 -1.9375,0.78125 -0.78125,0.76563 -0.85937,2.04688 z m 13.18402,5.875 3.59375,-5.125 -3.32813,-4.73438 h 2.09375 l 1.51563,2.3125 q 0.42187,0.65625 0.67187,1.10938 0.42188,-0.60938 0.76563,-1.09375 l 1.65625,-2.32813 h 1.98437 l -3.39062,4.64063 3.65625,5.21875 h -2.04688 l -2.03125,-3.0625 -0.53125,-0.82813 -2.59375,3.89063 z m 14.9958,-4.92188 q 0,-2.73437 1.53125,-4.0625 1.26563,-1.09375 3.09375,-1.09375 2.03125,0 3.3125,1.34375 1.29688,1.32813 1.29688,3.67188 0,1.90625 -0.57813,3 -0.5625,1.07812 -1.65625,1.6875 -1.07812,0.59375 -2.375,0.59375 -2.0625,0 -3.34375,-1.32813 -1.28125,-1.32812 -1.28125,-3.8125 z m 1.71875,0 q 0,1.89063 0.82813,2.82813 0.82812,0.9375 2.07812,0.9375 1.25,0 2.0625,-0.9375 0.82813,-0.95313 0.82813,-2.89063 0,-1.82812 -0.82813,-2.76562 -0.82812,-0.9375 -2.0625,-0.9375 -1.25,0 -2.07812,0.9375 -0.82813,0.9375 -0.82813,2.82812 z m 9.68822,4.92188 v -8.54688 h -1.48438 v -1.3125 h 1.48438 v -1.04687 q 0,-0.98437 0.17187,-1.46874 0.23438,-0.65625 0.84375,-1.04688 0.60938,-0.40625 1.70313,-0.40625 0.70312,0 1.5625,0.15625 l -0.25,1.46875 q -0.51563,-0.0937 -0.98438,-0.0937 -0.76562,0 -1.07812,0.32813 -0.3125,0.3125 -0.3125,1.20311 v 0.90625 h 1.92187 v 1.3125 h -1.92187 v 8.54688 z m 9.24161,-5.67188 q 0.71875,-0.0312 1.15625,-0.39062 0.45312,-0.35938 0.59375,-1 0.15625,-0.64063 0.15625,-2.1875 0.0156,-1.5625 0.0625,-2.04688 0.0937,-0.78124 0.3125,-1.24999 0.23437,-0.48437 0.5625,-0.76562 0.34375,-0.28125 0.85937,-0.42188 0.34375,-0.0937 1.14063,-0.0937 h 0.53125 v 1.45313 h -0.29688 q -0.96875,0 -1.28125,0.34375 -0.3125,0.34375 -0.3125,1.56249 0,2.42187 -0.0937,3.0625 -0.17187,1 -0.57812,1.54687 -0.40625,0.53125 -1.26563,0.9375 1.01563,0.4375 1.46875,1.3125 0.46875,0.875 0.46875,2.85938 0,1.8125 0.0312,2.15625 0.0781,0.64062 0.375,0.89062 0.3125,0.25 1.1875,0.25 h 0.29688 v 1.45313 h -0.53125 q -0.90625,0 -1.3125,-0.15625 -0.59375,-0.20313 -0.98438,-0.6875 -0.39062,-0.46875 -0.51562,-1.20313 -0.10938,-0.73437 -0.125,-2.40625 0,-1.67187 -0.15625,-2.3125 -0.14063,-0.64062 -0.59375,-1 -0.4375,-0.375 -1.15625,-0.40625 z m 11.25795,5.67188 v -1.67188 l 6.96875,-8.70312 q 0.75,-0.9375 1.42187,-1.62499 h -7.59375 v -1.59375 h 9.73438 v 1.59375 l -7.625,9.43749 -0.82813,0.95312 h 8.6875 v 1.60938 z m 16.81366,-4.07813 v -1.6875 h 5.125 v 1.6875 z m 15.65017,-1.875 -9,3.85938 v -1.65625 l 7.125,-2.96875 -7.125,-2.9375 v -1.65625 l 9,3.8125 z m 7.20327,9.75 -0.17188,-1.5625 q 0.54688,0.14063 0.95313,0.14063 0.54687,0 0.875,-0.1875 0.34375,-0.1875 0.5625,-0.51563 0.15625,-0.25 0.5,-1.25 0.0469,-0.14062 0.15625,-0.40625 l -3.73438,-9.875 h 1.79688 l 2.04687,5.71875 q 0.40625,1.07813 0.71875,2.28125 0.28125,-1.15625 0.6875,-2.25 l 2.09375,-5.75 h 1.67188 l -3.75,10.03125 q -0.59375,1.625 -0.9375,2.23438 -0.4375,0.82812 -1.01563,1.20312 -0.57812,0.39063 -1.375,0.39063 -0.48437,0 -1.07812,-0.20313 z m 9.84375,-11.75 v -1.90625 h 1.90625 v 1.90625 z m 0,7.95313 v -1.90625 h 1.90625 v 1.90625 q 0,1.04687 -0.375,1.6875 -0.375,0.65625 -1.17188,1 l -0.46875,-0.71875 q 0.53125,-0.21875 0.78125,-0.67188 0.25,-0.45312 0.28125,-1.29687 z m 9.53845,-4.375 1.6875,-0.14063 q 0.125,1.01563 0.5625,1.67188 0.4375,0.65625 1.35937,1.0625 0.9375,0.40625 2.09375,0.40625 1.03125,0 1.8125,-0.3125 0.79688,-0.3125 1.1875,-0.84375 0.39063,-0.53125 0.39063,-1.15625 0,-0.64063 -0.375,-1.10938 -0.375,-0.48437 -1.23438,-0.8125 -0.54687,-0.21875 -2.42187,-0.65625 -1.875,-0.45312 -2.625,-0.85937 -0.96875,-0.51563 -1.45313,-1.26563 -0.46875,-0.75 -0.46875,-1.6875 0,-1.03125 0.57813,-1.92186 0.59375,-0.90625 1.70312,-1.35938 1.125,-0.46875 2.5,-0.46875 1.51563,0 2.67188,0.48438 1.15625,0.48437 1.76562,1.4375 0.625,0.93749 0.67188,2.14061 l -1.71875,0.125 q -0.14063,-1.28125 -0.95313,-1.93749 -0.79687,-0.67187 -2.35937,-0.67187 -1.625,0 -2.375,0.60937 -0.75,0.59374 -0.75,1.43749 0,0.73438 0.53125,1.20313 0.51562,0.46875 2.70312,0.96875 2.20313,0.5 3.01563,0.875 1.1875,0.54687 1.75,1.39062 0.57812,0.82813 0.57812,1.92188 0,1.09375 -0.625,2.0625 -0.625,0.95312 -1.79687,1.48437 -1.15625,0.53125 -2.60938,0.53125 -1.84375,0 -3.09375,-0.53125 -1.25,-0.54687 -1.96875,-1.625 -0.70312,-1.07812 -0.73437,-2.45312 z m 16.90814,4.375 3.59375,-5.125 -3.32812,-4.73438 h 2.09375 l 1.51562,2.3125 q 0.42188,0.65625 0.67188,1.10938 0.42187,-0.60938 0.76562,-1.09375 l 1.65625,-2.32813 h 1.98438 l -3.39063,4.64063 3.65625,5.21875 h -2.04687 l -2.03125,-3.0625 -0.53125,-0.82813 -2.59375,3.89063 z m 16.26563,0 h -1.67188 v -10.64063 q -0.59375,0.57813 -1.57812,1.15625 -0.98438,0.5625 -1.76563,0.85938 v -1.625 q 1.40625,-0.65625 2.45313,-1.59374 1.04687,-0.9375 1.48437,-1.8125 h 1.07813 z m 9.09027,-4.07813 v -1.6875 h 5.125 v 1.6875 z m 15.65017,-1.875 -9,3.85938 v -1.65625 l 7.125,-2.96875 -7.125,-2.9375 v -1.65625 l 9,3.8125 z m 6.89078,1.57813 1.6875,-0.14063 q 0.125,1.01563 0.5625,1.67188 0.4375,0.65625 1.35938,1.0625 0.9375,0.40625 2.09375,0.40625 1.03125,0 1.8125,-0.3125 0.79687,-0.3125 1.1875,-0.84375 0.39062,-0.53125 0.39062,-1.15625 0,-0.64063 -0.375,-1.10938 -0.375,-0.48437 -1.23437,-0.8125 -0.54688,-0.21875 -2.42188,-0.65625 -1.875,-0.45312 -2.625,-0.85937 -0.96875,-0.51563 -1.45312,-1.26563 -0.46875,-0.75 -0.46875,-1.6875 0,-1.03125 0.57812,-1.92186 0.59375,-0.90625 1.70313,-1.35938 1.125,-0.46875 2.5,-0.46875 1.51562,0 2.67187,0.48438 1.15625,0.48437 1.76563,1.4375 0.625,0.93749 0.67187,2.14061 l -1.71875,0.125 q -0.14062,-1.28125 -0.95312,-1.93749 -0.79688,-0.67187 -2.35938,-0.67187 -1.625,0 -2.375,0.60937 -0.75,0.59374 -0.75,1.43749 0,0.73438 0.53125,1.20313 0.51563,0.46875 2.70313,0.96875 2.20312,0.5 3.01562,0.875 1.1875,0.54687 1.75,1.39062 0.57813,0.82813 0.57813,1.92188 0,1.09375 -0.625,2.0625 -0.625,0.95312 -1.79688,1.48437 -1.15625,0.53125 -2.60937,0.53125 -1.84375,0 -3.09375,-0.53125 -1.25,-0.54687 -1.96875,-1.625 -0.70313,-1.07812 -0.73438,-2.45312 z m 21.20502,8.375 q -1.375,-1.75 -2.32813,-4.07813 -0.95312,-2.34375 -0.95312,-4.84375 0,-2.21875 0.70312,-4.23437 0.84375,-2.34374 2.57813,-4.67187 h 1.20312 q -1.125,1.92188 -1.48437,2.74999 -0.5625,1.28125 -0.89063,2.67188 -0.40625,1.73437 -0.40625,3.48437 0,4.46875 2.78125,8.92188 z m 9.46267,-5.21875 q -0.9375,0.79687 -1.79687,1.125 -0.85938,0.3125 -1.84375,0.3125 -1.60938,0 -2.48438,-0.78125 -0.875,-0.79688 -0.875,-2.03125 0,-0.73438 0.32813,-1.32813 0.32812,-0.59375 0.85937,-0.95312 0.53125,-0.35938 1.20313,-0.54688 0.5,-0.14062 1.48437,-0.25 2.03125,-0.25 2.98438,-0.57812 0,-0.34375 0,-0.4375 0,-1.01563 -0.46875,-1.4375 -0.64063,-0.5625 -1.90625,-0.5625 -1.17188,0 -1.73438,0.40625 -0.5625,0.40625 -0.82812,1.46875 l -1.64063,-0.23438 q 0.23438,-1.04687 0.73438,-1.6875 0.51562,-0.64062 1.46875,-0.98437 0.96875,-0.35938 2.25,-0.35938 1.26562,0 2.04687,0.29688 0.78125,0.29687 1.15625,0.75 0.375,0.45312 0.51563,1.14062 0.0937,0.42188 0.0937,1.53125 v 2.23438 q 0,2.32812 0.0937,2.95312 0.10937,0.60938 0.4375,1.17188 h -1.75 q -0.26563,-0.51563 -0.32813,-1.21875 z m -0.14062,-3.71875 q -0.90625,0.35937 -2.73438,0.625 -1.03125,0.14062 -1.45312,0.32812 -0.42188,0.1875 -0.65625,0.54688 -0.23438,0.35937 -0.23438,0.79687 0,0.67188 0.5,1.125 0.51563,0.4375 1.48438,0.4375 0.96875,0 1.71875,-0.42187 0.75,-0.4375 1.10937,-1.15625 0.26563,-0.57813 0.26563,-1.67188 z m 10.46945,4.9375 v -1.25 q -0.9375,1.46875 -2.75,1.46875 -1.17187,0 -2.17187,-0.64063 -0.98438,-0.65625 -1.53125,-1.8125 -0.53125,-1.17187 -0.53125,-2.6875 0,-1.46875 0.48437,-2.67187 0.5,-1.20313 1.46875,-1.84375 0.98438,-0.64063 2.20313,-0.64063 0.89062,0 1.57812,0.375 0.70313,0.375 1.14063,0.98438 v -4.87499 h 1.65625 v 13.59374 z m -5.28125,-4.92188 q 0,1.89063 0.79688,2.82813 0.8125,0.9375 1.89062,0.9375 1.09375,0 1.85938,-0.89063 0.76562,-0.89062 0.76562,-2.73437 0,-2.01563 -0.78125,-2.95313 -0.78125,-0.95312 -1.92187,-0.95312 -1.10938,0 -1.85938,0.90625 -0.75,0.90625 -0.75,2.85937 z m 15.65698,4.92188 v -1.25 q -0.9375,1.46875 -2.75,1.46875 -1.17187,0 -2.17187,-0.64063 -0.98438,-0.65625 -1.53125,-1.8125 -0.53125,-1.17187 -0.53125,-2.6875 0,-1.46875 0.48437,-2.67187 0.5,-1.20313 1.46875,-1.84375 0.98438,-0.64063 2.20313,-0.64063 0.89062,0 1.57812,0.375 0.70313,0.375 1.14063,0.98438 v -4.87499 h 1.65625 v 13.59374 z m -5.28125,-4.92188 q 0,1.89063 0.79688,2.82813 0.8125,0.9375 1.89062,0.9375 1.09375,0 1.85938,-0.89063 0.76562,-0.89062 0.76562,-2.73437 0,-2.01563 -0.78125,-2.95313 -0.78125,-0.95312 -1.92187,-0.95312 -1.10938,0 -1.85938,0.90625 -0.75,0.90625 -0.75,2.85937 z m 13.34027,4.92188 3.59375,-5.125 -3.32812,-4.73438 h 2.09375 l 1.51562,2.3125 q 0.42188,0.65625 0.67188,1.10938 0.42187,-0.60938 0.76562,-1.09375 l 1.65625,-2.32813 h 1.98438 l -3.39063,4.64063 3.65625,5.21875 h -2.04687 l -2.03125,-3.0625 -0.53125,-0.82813 -2.59375,3.89063 z m 16.26563,0 h -1.67188 v -10.64063 q -0.59375,0.57813 -1.57812,1.15625 -0.98438,0.5625 -1.76563,0.85938 v -1.625 q 1.40625,-0.65625 2.45313,-1.59374 1.04687,-0.9375 1.48437,-1.8125 h 1.07813 z m 9.65277,3.79687 -0.17187,-1.5625 q 0.54687,0.14063 0.95312,0.14063 0.54688,0 0.875,-0.1875 0.34375,-0.1875 0.5625,-0.51563 0.15625,-0.25 0.5,-1.25 0.0469,-0.14062 0.15625,-0.40625 l -3.73437,-9.875 h 1.79687 l 2.04688,5.71875 q 0.40625,1.07813 0.71875,2.28125 0.28125,-1.15625 0.6875,-2.25 l 2.09375,-5.75 h 1.67187 l -3.75,10.03125 q -0.59375,1.625 -0.9375,2.23438 -0.4375,0.82812 -1.01562,1.20312 -0.57813,0.39063 -1.375,0.39063 -0.48438,0 -1.07813,-0.20313 z m 10.5,0.20313 h -1.1875 q 2.76563,-4.45313 2.76563,-8.92188 0,-1.73437 -0.39063,-3.45312 -0.32812,-1.39063 -0.89062,-2.67188 -0.35938,-0.84374 -1.48438,-2.78124 h 1.1875 q 1.75,2.32813 2.57813,4.67187 0.71875,2.01562 0.71875,4.23437 0,2.5 -0.96875,4.84375 -0.95313,2.32813 -2.32813,4.07813 z m 5.55643,-11.95313 v -1.90625 h 1.90625 v 1.90625 z m 0,7.95313 v -1.90625 h 1.90625 v 1.90625 q 0,1.04687 -0.375,1.6875 -0.375,0.65625 -1.17188,1 l -0.46875,-0.71875 q 0.53125,-0.21875 0.78125,-0.67188 0.25,-0.45312 0.28125,-1.29687 z m 14.49161,-5.67188 v 1.5 q -0.71875,0.0312 -1.17188,0.40625 -0.45312,0.35938 -0.60937,1 -0.14063,0.625 -0.15625,2.1875 0,1.54688 -0.0469,2.03125 -0.0781,0.79688 -0.3125,1.26563 -0.21875,0.46875 -0.5625,0.75 -0.32812,0.28125 -0.84375,0.42187 -0.35937,0.10938 -1.15625,0.10938 h -0.51562 v -1.45313 h 0.28125 q 0.96875,0 1.28125,-0.35937 0.3125,-0.34375 0.3125,-1.5625 0,-2.3125 0.0937,-2.9375 0.14062,-1.03125 0.57812,-1.64063 0.45313,-0.625 1.28125,-0.96875 -1.07812,-0.5 -1.51562,-1.34375 -0.4375,-0.84375 -0.4375,-2.82812 0,-1.8125 -0.0469,-2.17188 -0.0625,-0.62499 -0.35937,-0.85936 -0.29688,-0.25 -1.1875,-0.25 h -0.28125 v -1.45313 h 0.51562 q 0.90625,0 1.3125,0.14063 0.59375,0.20312 0.98438,0.6875 0.39062,0.48437 0.5,1.21875 0.125,0.73436 0.125,2.40624 0.0156,1.67187 0.15625,2.3125 0.15625,0.625 0.60937,1 0.45313,0.35937 1.17188,0.39062 z m 2.76214,9.67188 h -1.1875 q 2.76563,-4.45313 2.76563,-8.92188 0,-1.73437 -0.39063,-3.45312 -0.32812,-1.39063 -0.89062,-2.67188 -0.35938,-0.84374 -1.48438,-2.78124 h 1.1875 q 1.75,2.32813 2.57813,4.67187 0.71875,2.01562 0.71875,4.23437 0,2.5 -0.96875,4.84375 -0.95313,2.32813 -2.32813,4.07813 z m 6.21268,0 h -1.1875 q 2.76562,-4.45313 2.76562,-8.92188 0,-1.73437 -0.39062,-3.45312 -0.32813,-1.39063 -0.89063,-2.67188 -0.35937,-0.84374 -1.48437,-2.78124 h 1.1875 q 1.75,2.32813 2.57812,4.67187 0.71875,2.01562 0.71875,4.23437 0,2.5 -0.96875,4.84375 -0.95312,2.32813 -2.32812,4.07813 z m 16.73971,-5.21875 q -0.9375,0.79687 -1.79687,1.125 -0.85938,0.3125 -1.84375,0.3125 -1.60938,0 -2.48438,-0.78125 -0.875,-0.79688 -0.875,-2.03125 0,-0.73438 0.32813,-1.32813 0.32812,-0.59375 0.85937,-0.95312 0.53125,-0.35938 1.20313,-0.54688 0.5,-0.14062 1.48437,-0.25 2.03125,-0.25 2.98438,-0.57812 0,-0.34375 0,-0.4375 0,-1.01563 -0.46875,-1.4375 -0.64063,-0.5625 -1.90625,-0.5625 -1.17188,0 -1.73438,0.40625 -0.5625,0.40625 -0.82812,1.46875 l -1.64063,-0.23438 q 0.23438,-1.04687 0.73438,-1.6875 0.51562,-0.64062 1.46875,-0.98437 0.96875,-0.35938 2.25,-0.35938 1.26562,0 2.04687,0.29688 0.78125,0.29687 1.15625,0.75 0.375,0.45312 0.51563,1.14062 0.0937,0.42188 0.0937,1.53125 v 2.23438 q 0,2.32812 0.0937,2.95312 0.10937,0.60938 0.4375,1.17188 h -1.75 q -0.26563,-0.51563 -0.32813,-1.21875 z m -0.14062,-3.71875 q -0.90625,0.35937 -2.73438,0.625 -1.03125,0.14062 -1.45312,0.32812 -0.42188,0.1875 -0.65625,0.54688 -0.23438,0.35937 -0.23438,0.79687 0,0.67188 0.5,1.125 0.51563,0.4375 1.48438,0.4375 0.96875,0 1.71875,-0.42187 0.75,-0.4375 1.10937,-1.15625 0.26563,-0.57813 0.26563,-1.67188 z m 10.80902,4.9375 h -1.54687 v -13.59374 h 1.65625 v 4.84374 q 1.0625,-1.32812 2.70312,-1.32812 0.90625,0 1.71875,0.375 0.8125,0.35937 1.32813,1.03125 0.53125,0.65625 0.82812,1.59375 0.29688,0.9375 0.29688,2 0,2.53125 -1.25,3.92187 -1.25,1.375 -3,1.375 -1.75,0 -2.73438,-1.45312 z m -0.0156,-5 q 0,1.76562 0.46875,2.5625 0.79687,1.28125 2.14062,1.28125 1.09375,0 1.89063,-0.9375 0.79687,-0.95313 0.79687,-2.84375 0,-1.92188 -0.76562,-2.84375 -0.76563,-0.92188 -1.84375,-0.92188 -1.09375,0 -1.89063,0.95313 -0.79687,0.95312 -0.79687,2.75 z"
       id="path883"
       inkscape:connector-curvature="0"
       style="fill:#000000;fill-rule:nonzero" />
    <path
       d="m 263.22964,60.55512 v 48"
       id="path885"
       inkscape:connector-curvature="0"
       style="fill:#000000;fill-opacity:0;fill-rule:evenodd" />
    <path
       d="M 263.22964,60.55512 V 96.555116"
       id="path887"
       inkscape:connector-curvature="0"
       style="fill-rule:evenodd;stroke:#073763;stroke-width:2;stroke-linecap:butt;stroke-linejoin:round" />
    <path
       d="m 259.9262,96.55512 3.30344,9.0762 3.30346,-9.0762 z"
       id="path889"
       inkscape:connector-curvature="0"
       style="fill:#073763;fill-rule:evenodd;stroke:#073763;stroke-width:2;stroke-linecap:butt" />
    <path
       d="m 7.2296586,212.55528 v 0 c 0,-4.41837 3.5817944,-8.00017 8.0001604,-8.00017 H 519.22948 c 2.12176,0 4.15668,0.84288 5.65698,2.3432 1.50031,1.50032 2.3432,3.53519 2.3432,5.65697 v 31.99968 c 0,4.41837 -3.58179,8.00015 -8.00018,8.00015 H 15.229819 c -4.418366,0 -8.0001603,-3.58178 -8.0001603,-8.00015 z"
       id="path891"
       inkscape:connector-curvature="0"
       style="fill:#cfe2f3;fill-rule:evenodd" />
    <path
       d="m 7.2296586,212.55528 v 0 c 0,-4.41837 3.5817944,-8.00017 8.0001604,-8.00017 H 519.22948 c 2.12176,0 4.15668,0.84288 5.65698,2.3432 1.50031,1.50032 2.3432,3.53519 2.3432,5.65697 v 31.99968 c 0,4.41837 -3.58179,8.00015 -8.00018,8.00015 H 15.229819 c -4.418366,0 -8.0001603,-3.58178 -8.0001603,-8.00015 z"
       id="path893"
       inkscape:connector-curvature="0"
       style="fill-rule:evenodd;stroke:#073763;stroke-width:2;stroke-linecap:butt;stroke-linejoin:round" />
    <path
       d="m 70.25614,239.47511 q -1.375,-1.75 -2.328125,-4.07813 -0.953125,-2.34375 -0.953125,-4.84375 0,-2.21875 0.703125,-4.23437 0.84375,-2.34375 2.578125,-4.67188 h 1.203125 q -1.125,1.92188 -1.484375,2.75 -0.5625,1.28125 -0.890625,2.67188 -0.40625,1.73437 -0.40625,3.48437 0,4.46875 2.78125,8.92188 z m 5.712677,-3.76563 -3.9375,-14.0625 h 1.34375 l 3.9375,14.0625 z m 2.417679,3.5625 -0.171875,-1.5625 q 0.546875,0.14063 0.953125,0.14063 0.546875,0 0.875,-0.1875 0.34375,-0.1875 0.5625,-0.51563 0.15625,-0.25 0.5,-1.25 0.04687,-0.14062 0.15625,-0.40625 l -3.734375,-9.875 h 1.796875 l 2.046875,5.71875 q 0.40625,1.07813 0.71875,2.28125 0.28125,-1.15625 0.6875,-2.25 l 2.09375,-5.75 h 1.671875 l -3.75,10.03125 q -0.59375,1.625 -0.9375,2.23438 -0.4375,0.82812 -1.015625,1.20312 -0.578125,0.39063 -1.375,0.39063 -0.484375,0 -1.078125,-0.20313 z m 13.948929,-7.875 v -1.6875 h 5.125 v 1.6875 z m 15.650175,-1.875 -8.999998,3.85938 v -1.65625 l 7.124998,-2.96875 -7.124998,-2.9375 v -1.65625 l 8.999998,3.8125 z m 13.71889,2.34375 1.64062,0.21875 q -0.26562,1.6875 -1.375,2.65625 -1.10937,0.95313 -2.73437,0.95313 -2.01563,0 -3.25,-1.3125 -1.21875,-1.32813 -1.21875,-3.79688 0,-1.59375 0.51562,-2.78125 0.53125,-1.20312 1.60938,-1.79687 1.09375,-0.60938 2.35937,-0.60938 1.60938,0 2.625,0.8125 1.01563,0.8125 1.3125,2.3125 l -1.625,0.25 q -0.23437,-1 -0.82812,-1.5 -0.59375,-0.5 -1.42188,-0.5 -1.26562,0 -2.0625,0.90625 -0.78125,0.90625 -0.78125,2.85938 0,1.98437 0.76563,2.89062 0.76562,0.89063 1.98437,0.89063 0.98438,0 1.64063,-0.59375 0.65625,-0.60938 0.84375,-1.85938 z m 9.32813,2.39063 q -0.9375,0.79687 -1.79687,1.125 -0.85938,0.3125 -1.84376,0.3125 -1.60938,0 -2.48438,-0.78125 -0.875,-0.79688 -0.875,-2.03125 0,-0.73438 0.32813,-1.32813 0.32812,-0.59375 0.85937,-0.95312 0.53125,-0.35938 1.20313,-0.54688 0.5,-0.14062 1.48437,-0.25 2.03126,-0.25 2.98439,-0.57812 0,-0.34375 0,-0.4375 0,-1.01563 -0.46875,-1.4375 -0.64063,-0.5625 -1.90625,-0.5625 -1.17189,0 -1.73439,0.40625 -0.5625,0.40625 -0.82812,1.46875 l -1.64063,-0.23438 q 0.23438,-1.04687 0.73438,-1.6875 0.51562,-0.64062 1.46875,-0.98437 0.96875,-0.35938 2.25001,-0.35938 1.26562,0 2.04687,0.29688 0.78125,0.29687 1.15625,0.75 0.375,0.45312 0.51563,1.14062 0.0937,0.42188 0.0937,1.53125 v 2.23438 q 0,2.32812 0.0937,2.95312 0.10937,0.60938 0.4375,1.17188 h -1.75 q -0.26563,-0.51563 -0.32813,-1.21875 z m -0.14062,-3.71875 q -0.90625,0.35937 -2.73438,0.625 -1.03126,0.14062 -1.45313,0.32812 -0.42188,0.1875 -0.65625,0.54688 -0.23438,0.35937 -0.23438,0.79687 0,0.67188 0.5,1.125 0.51563,0.4375 1.48438,0.4375 0.96876,0 1.71876,-0.42187 0.75,-0.4375 1.10937,-1.15625 0.26563,-0.57813 0.26563,-1.67188 z m 3.40696,2 1.65625,-0.26563 q 0.14063,1 0.76563,1.53125 0.64062,0.51563 1.78125,0.51563 1.15625,0 1.70312,-0.46875 0.5625,-0.46875 0.5625,-1.09375 0,-0.5625 -0.48437,-0.89063 -0.34375,-0.21875 -1.70313,-0.5625 -1.84375,-0.46875 -2.5625,-0.79687 -0.70312,-0.34375 -1.07812,-0.9375 -0.35938,-0.60938 -0.35938,-1.32813 0,-0.65625 0.29688,-1.21875 0.3125,-0.5625 0.82812,-0.9375 0.39063,-0.28125 1.0625,-0.48437 0.67188,-0.20313 1.4375,-0.20313 1.17188,0 2.04688,0.34375 0.875,0.32813 1.28125,0.90625 0.42187,0.5625 0.57812,1.51563 l -1.625,0.21875 q -0.10937,-0.75 -0.65625,-1.17188 -0.53125,-0.4375 -1.5,-0.4375 -1.15625,0 -1.64062,0.39063 -0.48438,0.375 -0.48438,0.875 0,0.32812 0.20313,0.59375 0.20312,0.26562 0.64062,0.4375 0.25,0.0937 1.46875,0.4375 1.76563,0.46875 2.46875,0.76562 0.70313,0.29688 1.09375,0.875 0.40625,0.57813 0.40625,1.4375 0,0.82813 -0.48437,1.57813 -0.48438,0.73437 -1.40625,1.14062 -0.92188,0.39063 -2.07813,0.39063 -1.92187,0 -2.9375,-0.79688 -1,-0.79687 -1.28125,-2.35937 z m 16.75,-0.23438 1.71875,0.21875 q -0.40625,1.5 -1.51562,2.34375 -1.09375,0.82813 -2.8125,0.82813 -2.15625,0 -3.42188,-1.32813 -1.26562,-1.32812 -1.26562,-3.73437 0,-2.48438 1.26562,-3.85938 1.28125,-1.375 3.32813,-1.375 1.98437,0 3.23437,1.34375 1.25,1.34375 1.25,3.79688 0,0.14062 -0.0156,0.4375 h -7.34375 q 0.0937,1.625 0.92187,2.48437 0.82813,0.85938 2.0625,0.85938 0.90625,0 1.54688,-0.46875 0.65625,-0.48438 1.04687,-1.54688 z m -5.48437,-2.70312 h 5.5 q -0.10938,-1.23438 -0.625,-1.85938 -0.79688,-0.96875 -2.07813,-0.96875 -1.14062,0 -1.9375,0.78125 -0.78125,0.76563 -0.85937,2.04688 z m 20.73089,4.65625 q -0.9375,0.79687 -1.79687,1.125 -0.85938,0.3125 -1.84375,0.3125 -1.60938,0 -2.48438,-0.78125 -0.875,-0.79688 -0.875,-2.03125 0,-0.73438 0.32813,-1.32813 0.32812,-0.59375 0.85937,-0.95312 0.53125,-0.35938 1.20313,-0.54688 0.5,-0.14062 1.48437,-0.25 2.03125,-0.25 2.98438,-0.57812 0,-0.34375 0,-0.4375 0,-1.01563 -0.46875,-1.4375 -0.64063,-0.5625 -1.90625,-0.5625 -1.17188,0 -1.73438,0.40625 -0.5625,0.40625 -0.82812,1.46875 l -1.64063,-0.23438 q 0.23438,-1.04687 0.73438,-1.6875 0.51562,-0.64062 1.46875,-0.98437 0.96875,-0.35938 2.25,-0.35938 1.26562,0 2.04687,0.29688 0.78125,0.29687 1.15625,0.75 0.375,0.45312 0.51563,1.14062 0.0937,0.42188 0.0937,1.53125 v 2.23438 q 0,2.32812 0.0937,2.95312 0.10937,0.60938 0.4375,1.17188 h -1.75 q -0.26563,-0.51563 -0.32813,-1.21875 z m -0.14062,-3.71875 q -0.90625,0.35937 -2.73438,0.625 -1.03125,0.14062 -1.45312,0.32812 -0.42188,0.1875 -0.65625,0.54688 -0.23438,0.35937 -0.23438,0.79687 0,0.67188 0.5,1.125 0.51563,0.4375 1.48438,0.4375 0.96875,0 1.71875,-0.42187 0.75,-0.4375 1.10937,-1.15625 0.26563,-0.57813 0.26563,-1.67188 z m 8.63715,0.0156 q 0,-2.73437 1.53125,-4.0625 1.26562,-1.09375 3.09375,-1.09375 2.03125,0 3.3125,1.34375 1.29687,1.32813 1.29687,3.67188 0,1.90625 -0.57812,3 -0.5625,1.07812 -1.65625,1.6875 -1.07813,0.59375 -2.375,0.59375 -2.0625,0 -3.34375,-1.32813 -1.28125,-1.32812 -1.28125,-3.8125 z m 1.71875,0 q 0,1.89063 0.82812,2.82813 0.82813,0.9375 2.07813,0.9375 1.25,0 2.0625,-0.9375 0.82812,-0.95313 0.82812,-2.89063 0,-1.82812 -0.82812,-2.76562 -0.82813,-0.9375 -2.0625,-0.9375 -1.25,0 -2.07813,0.9375 -0.82812,0.9375 -0.82812,2.82812 z m 9.68821,4.92188 v -8.54688 h -1.48437 v -1.3125 h 1.48437 v -1.04687 q 0,-0.98438 0.17188,-1.46875 0.23437,-0.65625 0.84375,-1.04688 0.60937,-0.40625 1.70312,-0.40625 0.70313,0 1.5625,0.15625 l -0.25,1.46875 q -0.51562,-0.0937 -0.98437,-0.0937 -0.76563,0 -1.07813,0.32813 -0.3125,0.3125 -0.3125,1.20312 v 0.90625 h 1.92188 v 1.3125 h -1.92188 v 8.54688 z m 9.24161,-5.67188 q 0.71875,-0.0312 1.15625,-0.39062 0.45313,-0.35938 0.59375,-1 0.15625,-0.64063 0.15625,-2.1875 0.0156,-1.5625 0.0625,-2.04688 0.0937,-0.78125 0.3125,-1.25 0.23438,-0.48437 0.5625,-0.76562 0.34375,-0.28125 0.85938,-0.42188 0.34375,-0.0937 1.14062,-0.0937 h 0.53125 v 1.45313 h -0.29687 q -0.96875,0 -1.28125,0.34375 -0.3125,0.34375 -0.3125,1.5625 0,2.42187 -0.0937,3.0625 -0.17188,1 -0.57813,1.54687 -0.40625,0.53125 -1.26562,0.9375 1.01562,0.4375 1.46875,1.3125 0.46875,0.875 0.46875,2.85938 0,1.8125 0.0312,2.15625 0.0781,0.64062 0.375,0.89062 0.3125,0.25 1.1875,0.25 h 0.29687 v 1.45313 h -0.53125 q -0.90625,0 -1.3125,-0.15625 -0.59375,-0.20313 -0.98437,-0.6875 -0.39063,-0.46875 -0.51563,-1.20313 -0.10937,-0.73437 -0.125,-2.40625 0,-1.67187 -0.15625,-2.3125 -0.14062,-0.64062 -0.59375,-1 -0.4375,-0.375 -1.15625,-0.40625 z m 11.25795,5.67188 v -1.67188 l 6.96875,-8.70312 q 0.75,-0.9375 1.42188,-1.625 h -7.59375 v -1.59375 h 9.73437 v 1.59375 l -7.625,9.4375 -0.82812,0.95312 h 8.6875 v 1.60938 z m 16.81366,-4.07813 v -1.6875 h 5.125 v 1.6875 z m 15.65018,-1.875 -9,3.85938 v -1.65625 l 7.125,-2.96875 -7.125,-2.9375 v -1.65625 l 9,3.8125 z m 7.20326,9.75 -0.17187,-1.5625 q 0.54687,0.14063 0.95312,0.14063 0.54688,0 0.875,-0.1875 0.34375,-0.1875 0.5625,-0.51563 0.15625,-0.25 0.5,-1.25 0.0469,-0.14062 0.15625,-0.40625 l -3.73437,-9.875 h 1.79687 l 2.04688,5.71875 q 0.40625,1.07813 0.71875,2.28125 0.28125,-1.15625 0.6875,-2.25 l 2.09375,-5.75 h 1.67187 l -3.75,10.03125 q -0.59375,1.625 -0.9375,2.23438 -0.4375,0.82812 -1.01562,1.20312 -0.57813,0.39063 -1.375,0.39063 -0.48438,0 -1.07813,-0.20313 z m 9.84375,-11.75 v -1.90625 h 1.90625 v 1.90625 z m 0,7.95313 v -1.90625 h 1.90625 v 1.90625 q 0,1.04687 -0.375,1.6875 -0.375,0.65625 -1.17187,1 l -0.46875,-0.71875 q 0.53125,-0.21875 0.78125,-0.67188 0.25,-0.45312 0.28125,-1.29687 z m 9.53848,-4.375 1.6875,-0.14063 q 0.125,1.01563 0.5625,1.67188 0.4375,0.65625 1.35938,1.0625 0.9375,0.40625 2.09375,0.40625 1.03125,0 1.8125,-0.3125 0.79687,-0.3125 1.1875,-0.84375 0.39062,-0.53125 0.39062,-1.15625 0,-0.64063 -0.375,-1.10938 -0.375,-0.48437 -1.23437,-0.8125 -0.54688,-0.21875 -2.42188,-0.65625 -1.875,-0.45312 -2.625,-0.85937 -0.96875,-0.51563 -1.45312,-1.26563 -0.46875,-0.75 -0.46875,-1.6875 0,-1.03125 0.57812,-1.92187 0.59375,-0.90625 1.70313,-1.35938 1.125,-0.46875 2.5,-0.46875 1.51562,0 2.67187,0.48438 1.15625,0.48437 1.76563,1.4375 0.625,0.9375 0.67187,2.14062 l -1.71875,0.125 q -0.14062,-1.28125 -0.95312,-1.9375 -0.79688,-0.67187 -2.35938,-0.67187 -1.625,0 -2.375,0.60937 -0.75,0.59375 -0.75,1.4375 0,0.73438 0.53125,1.20313 0.51563,0.46875 2.70313,0.96875 2.20312,0.5 3.01562,0.875 1.1875,0.54687 1.75,1.39062 0.57813,0.82813 0.57813,1.92188 0,1.09375 -0.625,2.0625 -0.625,0.95312 -1.79688,1.48437 -1.15625,0.53125 -2.60937,0.53125 -1.84375,0 -3.09375,-0.53125 -1.25,-0.54687 -1.96875,-1.625 -0.70313,-1.07812 -0.73438,-2.45312 z m 16.90812,4.375 3.59375,-5.125 -3.32813,-4.73438 h 2.09375 l 1.51563,2.3125 q 0.42187,0.65625 0.67187,1.10938 0.42188,-0.60938 0.76563,-1.09375 l 1.65625,-2.32813 h 1.98437 l -3.39062,4.64063 3.65625,5.21875 h -2.04688 l -2.03125,-3.0625 -0.53125,-0.82813 -2.59375,3.89063 z m 16.26562,0 h -1.67187 v -10.64063 q -0.59375,0.57813 -1.57813,1.15625 -0.98437,0.5625 -1.76562,0.85938 v -1.625 q 1.40625,-0.65625 2.45312,-1.59375 1.04688,-0.9375 1.48438,-1.8125 h 1.07812 z m 9.09027,-4.07813 v -1.6875 h 5.125 v 1.6875 z m 15.65018,-1.875 -9,3.85938 v -1.65625 l 7.125,-2.96875 -7.125,-2.9375 v -1.65625 l 9,3.8125 z m 6.89078,1.57813 1.6875,-0.14063 q 0.125,1.01563 0.5625,1.67188 0.4375,0.65625 1.35937,1.0625 0.9375,0.40625 2.09375,0.40625 1.03125,0 1.8125,-0.3125 0.79688,-0.3125 1.1875,-0.84375 0.39063,-0.53125 0.39063,-1.15625 0,-0.64063 -0.375,-1.10938 -0.375,-0.48437 -1.23438,-0.8125 -0.54687,-0.21875 -2.42187,-0.65625 -1.875,-0.45312 -2.625,-0.85937 -0.96875,-0.51563 -1.45313,-1.26563 -0.46875,-0.75 -0.46875,-1.6875 0,-1.03125 0.57813,-1.92187 0.59375,-0.90625 1.70312,-1.35938 1.125,-0.46875 2.5,-0.46875 1.51563,0 2.67188,0.48438 1.15625,0.48437 1.76562,1.4375 0.625,0.9375 0.67188,2.14062 l -1.71875,0.125 q -0.14063,-1.28125 -0.95313,-1.9375 -0.79687,-0.67187 -2.35937,-0.67187 -1.625,0 -2.375,0.60937 -0.75,0.59375 -0.75,1.4375 0,0.73438 0.53125,1.20313 0.51562,0.46875 2.70312,0.96875 2.20313,0.5 3.01563,0.875 1.1875,0.54687 1.75,1.39062 0.57812,0.82813 0.57812,1.92188 0,1.09375 -0.625,2.0625 -0.625,0.95312 -1.79687,1.48437 -1.15625,0.53125 -2.60938,0.53125 -1.84375,0 -3.09375,-0.53125 -1.25,-0.54687 -1.96875,-1.625 -0.70312,-1.07812 -0.73437,-2.45312 z m 21.20501,8.375 q -1.375,-1.75 -2.32812,-4.07813 -0.95313,-2.34375 -0.95313,-4.84375 0,-2.21875 0.70313,-4.23437 0.84375,-2.34375 2.57812,-4.67188 h 1.20313 q -1.125,1.92188 -1.48438,2.75 -0.5625,1.28125 -0.89062,2.67188 -0.40625,1.73437 -0.40625,3.48437 0,4.46875 2.78125,8.92188 z m 9.46268,-5.21875 q -0.9375,0.79687 -1.79688,1.125 -0.85937,0.3125 -1.84375,0.3125 -1.60937,0 -2.48437,-0.78125 -0.875,-0.79688 -0.875,-2.03125 0,-0.73438 0.32812,-1.32813 0.32813,-0.59375 0.85938,-0.95312 0.53125,-0.35938 1.20312,-0.54688 0.5,-0.14062 1.48438,-0.25 2.03125,-0.25 2.98437,-0.57812 0,-0.34375 0,-0.4375 0,-1.01563 -0.46875,-1.4375 -0.64062,-0.5625 -1.90625,-0.5625 -1.17187,0 -1.73437,0.40625 -0.5625,0.40625 -0.82813,1.46875 l -1.64062,-0.23438 q 0.23437,-1.04687 0.73437,-1.6875 0.51563,-0.64062 1.46875,-0.98437 0.96875,-0.35938 2.25,-0.35938 1.26563,0 2.04688,0.29688 0.78125,0.29687 1.15625,0.75 0.375,0.45312 0.51562,1.14062 0.0937,0.42188 0.0937,1.53125 v 2.23438 q 0,2.32812 0.0937,2.95312 0.10938,0.60938 0.4375,1.17188 h -1.75 q -0.26562,-0.51563 -0.32812,-1.21875 z m -0.14063,-3.71875 q -0.90625,0.35937 -2.73437,0.625 -1.03125,0.14062 -1.45313,0.32812 -0.42187,0.1875 -0.65625,0.54688 -0.23437,0.35937 -0.23437,0.79687 0,0.67188 0.5,1.125 0.51562,0.4375 1.48437,0.4375 0.96875,0 1.71875,-0.42187 0.75,-0.4375 1.10938,-1.15625 0.26562,-0.57813 0.26562,-1.67188 z m 10.46946,4.9375 v -1.25 q -0.9375,1.46875 -2.75,1.46875 -1.17188,0 -2.17188,-0.64063 -0.98437,-0.65625 -1.53125,-1.8125 -0.53125,-1.17187 -0.53125,-2.6875 0,-1.46875 0.48438,-2.67187 0.5,-1.20313 1.46875,-1.84375 0.98437,-0.64063 2.20312,-0.64063 0.89063,0 1.57813,0.375 0.70312,0.375 1.14062,0.98438 v -4.875 h 1.65625 v 13.59375 z m -5.28125,-4.92188 q 0,1.89063 0.79687,2.82813 0.8125,0.9375 1.89063,0.9375 1.09375,0 1.85937,-0.89063 0.76563,-0.89062 0.76563,-2.73437 0,-2.01563 -0.78125,-2.95313 -0.78125,-0.95312 -1.92188,-0.95312 -1.10937,0 -1.85937,0.90625 -0.75,0.90625 -0.75,2.85937 z m 15.65698,4.92188 v -1.25 q -0.9375,1.46875 -2.75,1.46875 -1.17188,0 -2.17188,-0.64063 -0.98437,-0.65625 -1.53125,-1.8125 -0.53125,-1.17187 -0.53125,-2.6875 0,-1.46875 0.48438,-2.67187 0.5,-1.20313 1.46875,-1.84375 0.98437,-0.64063 2.20312,-0.64063 0.89063,0 1.57813,0.375 0.70312,0.375 1.14062,0.98438 v -4.875 h 1.65625 v 13.59375 z m -5.28125,-4.92188 q 0,1.89063 0.79687,2.82813 0.8125,0.9375 1.89063,0.9375 1.09375,0 1.85937,-0.89063 0.76563,-0.89062 0.76563,-2.73437 0,-2.01563 -0.78125,-2.95313 -0.78125,-0.95312 -1.92188,-0.95312 -1.10937,0 -1.85937,0.90625 -0.75,0.90625 -0.75,2.85937 z m 13.34027,4.92188 3.59375,-5.125 -3.32813,-4.73438 h 2.09375 l 1.51563,2.3125 q 0.42187,0.65625 0.67187,1.10938 0.42188,-0.60938 0.76563,-1.09375 l 1.65625,-2.32813 h 1.98437 l -3.39062,4.64063 3.65625,5.21875 h -2.04688 l -2.03125,-3.0625 -0.53125,-0.82813 -2.59375,3.89063 z m 16.26562,0 h -1.67187 v -10.64063 q -0.59375,0.57813 -1.57813,1.15625 -0.98437,0.5625 -1.76562,0.85938 v -1.625 q 1.40625,-0.65625 2.45312,-1.59375 1.04688,-0.9375 1.48438,-1.8125 h 1.07812 z m 9.65278,3.79687 -0.17188,-1.5625 q 0.54688,0.14063 0.95313,0.14063 0.54687,0 0.875,-0.1875 0.34375,-0.1875 0.5625,-0.51563 0.15625,-0.25 0.5,-1.25 0.0469,-0.14062 0.15625,-0.40625 l -3.73438,-9.875 H 416.84 l 2.04687,5.71875 q 0.40625,1.07813 0.71875,2.28125 0.28125,-1.15625 0.6875,-2.25 l 2.09375,-5.75 h 1.67188 l -3.75,10.03125 q -0.59375,1.625 -0.9375,2.23438 -0.4375,0.82812 -1.01563,1.20312 -0.57812,0.39063 -1.375,0.39063 -0.48437,0 -1.07812,-0.20313 z m 10.5,0.20313 h -1.1875 q 2.76562,-4.45313 2.76562,-8.92188 0,-1.73437 -0.39062,-3.45312 -0.32813,-1.39063 -0.89063,-2.67188 -0.35937,-0.84375 -1.48437,-2.78125 h 1.1875 q 1.75,2.32813 2.57812,4.67188 0.71875,2.01562 0.71875,4.23437 0,2.5 -0.96875,4.84375 -0.95312,2.32813 -2.32812,4.07813 z m 5.55642,-11.95313 v -1.90625 h 1.90625 v 1.90625 z m 0,7.95313 v -1.90625 h 1.90625 v 1.90625 q 0,1.04687 -0.375,1.6875 -0.375,0.65625 -1.17187,1 l -0.46875,-0.71875 q 0.53125,-0.21875 0.78125,-0.67188 0.25,-0.45312 0.28125,-1.29687 z m 14.49161,-5.67188 v 1.5 q -0.71875,0.0312 -1.17187,0.40625 -0.45313,0.35938 -0.60938,1 -0.14062,0.625 -0.15625,2.1875 0,1.54688 -0.0469,2.03125 -0.0781,0.79688 -0.3125,1.26563 -0.21875,0.46875 -0.5625,0.75 -0.32813,0.28125 -0.84375,0.42187 -0.35938,0.10938 -1.15625,0.10938 h -0.51563 v -1.45313 h 0.28125 q 0.96875,0 1.28125,-0.35937 0.3125,-0.34375 0.3125,-1.5625 0,-2.3125 0.0937,-2.9375 0.14063,-1.03125 0.57813,-1.64063 0.45312,-0.625 1.28125,-0.96875 -1.07813,-0.5 -1.51563,-1.34375 -0.4375,-0.84375 -0.4375,-2.82812 0,-1.8125 -0.0469,-2.17188 -0.0625,-0.625 -0.35938,-0.85937 -0.29687,-0.25 -1.1875,-0.25 h -0.28125 v -1.45313 h 0.51563 q 0.90625,0 1.3125,0.14063 0.59375,0.20312 0.98437,0.6875 0.39063,0.48437 0.5,1.21875 0.125,0.73437 0.125,2.40625 0.0156,1.67187 0.15625,2.3125 0.15625,0.625 0.60938,1 0.45312,0.35937 1.17187,0.39062 z m 2.76215,9.67188 h -1.1875 q 2.76562,-4.45313 2.76562,-8.92188 0,-1.73437 -0.39062,-3.45312 -0.32813,-1.39063 -0.89063,-2.67188 -0.35937,-0.84375 -1.48437,-2.78125 h 1.1875 q 1.75,2.32813 2.57812,4.67188 0.71875,2.01562 0.71875,4.23437 0,2.5 -0.96875,4.84375 -0.95312,2.32813 -2.32812,4.07813 z m 11.84912,-4 h -1.54688 v -13.59375 h 1.65625 v 4.84375 q 1.0625,-1.32813 2.70313,-1.32813 0.90625,0 1.71875,0.375 0.8125,0.35938 1.32812,1.03125 0.53125,0.65625 0.82813,1.59375 0.29687,0.9375 0.29687,2 0,2.53125 -1.25,3.92188 -1.25,1.375 -3,1.375 -1.75,0 -2.73437,-1.45313 z m -0.0156,-5 q 0,1.76562 0.46875,2.5625 0.79688,1.28125 2.14063,1.28125 1.09375,0 1.89062,-0.9375 0.79688,-0.95313 0.79688,-2.84375 0,-1.92188 -0.76563,-2.84375 -0.76562,-0.92188 -1.84375,-0.92188 -1.09375,0 -1.89062,0.95313 -0.79688,0.95312 -0.79688,2.75 z"
       id="path895"
       inkscape:connector-curvature="0"
       style="fill:#000000;fill-rule:nonzero" />
    <path
       d="m 263.22964,156.55511 v 48"
       id="path897"
       inkscape:connector-curvature="0"
       style="fill:#000000;fill-opacity:0;fill-rule:evenodd" />
    <path
       d="m 263.22964,156.55511 v 36"
       id="path899"
       inkscape:connector-curvature="0"
       style="fill-rule:evenodd;stroke:#073763;stroke-width:2;stroke-linecap:butt;stroke-linejoin:round" />
    <path
       d="m 259.9262,192.55511 3.30344,9.0762 3.30346,-9.0762 z"
       id="path901"
       inkscape:connector-curvature="0"
       style="fill:#073763;fill-rule:evenodd;stroke:#073763;stroke-width:2;stroke-linecap:butt" />
    <path
       d="m 79.22966,308.55527 v 0 c 0,-4.41837 3.581795,-8.00015 8.00016,-8.00015 h 351.99966 c 2.1218,0 4.15665,0.84286 5.65698,2.3432 1.50031,1.5003 2.34317,3.53518 2.34317,5.65695 v 31.99969 c 0,4.41837 -3.58178,8.00016 -8.00015,8.00016 H 87.22982 v 0 c -4.418366,0 -8.00016,-3.58179 -8.00016,-8.00016 z"
       id="path903"
       inkscape:connector-curvature="0"
       style="fill:#cfe2f3;fill-rule:evenodd" />
    <path
       d="m 79.22966,308.55527 v 0 c 0,-4.41837 3.581795,-8.00015 8.00016,-8.00015 h 351.99966 c 2.1218,0 4.15665,0.84286 5.65698,2.3432 1.50031,1.5003 2.34317,3.53518 2.34317,5.65695 v 31.99969 c 0,4.41837 -3.58178,8.00016 -8.00015,8.00016 H 87.22982 v 0 c -4.418366,0 -8.00016,-3.58179 -8.00016,-8.00016 z"
       id="path905"
       inkscape:connector-curvature="0"
       style="fill-rule:evenodd;stroke:#073763;stroke-width:2;stroke-linecap:butt;stroke-linejoin:round" />
    <path
       d="m 103.44361,327.86575 1.64063,0.21875 q -0.26563,1.6875 -1.375,2.65625 -1.10938,0.95312 -2.73438,0.95312 -2.015625,0 -3.25,-1.3125 -1.21875,-1.32812 -1.21875,-3.79687 0,-1.59375 0.515625,-2.78125 0.53125,-1.20313 1.609375,-1.79688 1.09375,-0.60937 2.35938,-0.60937 1.60937,0 2.625,0.8125 1.01562,0.8125 1.3125,2.3125 l -1.625,0.25 q -0.23438,-1 -0.82813,-1.5 -0.59375,-0.5 -1.42187,-0.5 -1.26563,0 -2.062505,0.90625 -0.78125,0.90625 -0.78125,2.85937 0,1.98438 0.765625,2.89063 0.765625,0.89062 1.98438,0.89062 0.98437,0 1.64062,-0.59375 0.65625,-0.60937 0.84375,-1.85937 z m 9.32813,2.39062 q -0.9375,0.79688 -1.79688,1.125 -0.85937,0.3125 -1.84375,0.3125 -1.60937,0 -2.48437,-0.78125 -0.875,-0.79687 -0.875,-2.03125 0,-0.73437 0.32812,-1.32812 0.32813,-0.59375 0.85938,-0.95313 0.53125,-0.35937 1.20312,-0.54687 0.5,-0.14063 1.48438,-0.25 2.03125,-0.25 2.98437,-0.57813 0,-0.34375 0,-0.4375 0,-1.01562 -0.46875,-1.4375 -0.64062,-0.5625 -1.90625,-0.5625 -1.17187,0 -1.73437,0.40625 -0.5625,0.40625 -0.82813,1.46875 l -1.64062,-0.23437 q 0.23437,-1.04688 0.73437,-1.6875 0.51563,-0.64063 1.46875,-0.98438 0.96875,-0.35937 2.25,-0.35937 1.26563,0 2.04688,0.29687 0.78125,0.29688 1.15625,0.75 0.375,0.45313 0.51562,1.14063 0.0937,0.42187 0.0937,1.53125 v 2.23437 q 0,2.32813 0.0937,2.95313 0.10938,0.60937 0.4375,1.17187 h -1.75 q -0.26562,-0.51562 -0.32812,-1.21875 z m -0.14063,-3.71875 q -0.90625,0.35938 -2.73437,0.625 -1.03125,0.14063 -1.45313,0.32813 -0.42187,0.1875 -0.65625,0.54687 -0.23437,0.35938 -0.23437,0.79688 0,0.67187 0.5,1.125 0.51562,0.4375 1.48437,0.4375 0.96875,0 1.71875,-0.42188 0.75,-0.4375 1.10938,-1.15625 0.26562,-0.57812 0.26562,-1.67187 z m 3.40697,2 1.65625,-0.26562 q 0.14062,1 0.76562,1.53125 0.64063,0.51562 1.78125,0.51562 1.15625,0 1.70313,-0.46875 0.5625,-0.46875 0.5625,-1.09375 0,-0.5625 -0.48438,-0.89062 -0.34375,-0.21875 -1.70312,-0.5625 -1.84375,-0.46875 -2.5625,-0.79688 -0.70313,-0.34375 -1.07813,-0.9375 -0.35937,-0.60937 -0.35937,-1.32812 0,-0.65625 0.29687,-1.21875 0.3125,-0.5625 0.82813,-0.9375 0.39062,-0.28125 1.0625,-0.48438 0.67187,-0.20312 1.4375,-0.20312 1.17187,0 2.04687,0.34375 0.875,0.32812 1.28125,0.90625 0.42188,0.5625 0.57813,1.51562 l -1.625,0.21875 q -0.10938,-0.75 -0.65625,-1.17187 -0.53125,-0.4375 -1.5,-0.4375 -1.15625,0 -1.64063,0.39062 -0.48437,0.375 -0.48437,0.875 0,0.32813 0.20312,0.59375 0.20313,0.26563 0.64063,0.4375 0.25,0.0937 1.46875,0.4375 1.76562,0.46875 2.46875,0.76563 0.70312,0.29687 1.09375,0.875 0.40625,0.57812 0.40625,1.4375 0,0.82812 -0.48438,1.57812 -0.48437,0.73438 -1.40625,1.14063 -0.92187,0.39062 -2.07812,0.39062 -1.92188,0 -2.9375,-0.79687 -1,-0.79688 -1.28125,-2.35938 z m 16.75001,-0.23437 1.71875,0.21875 q -0.40625,1.5 -1.51563,2.34375 -1.09375,0.82812 -2.8125,0.82812 -2.15625,0 -3.42188,-1.32812 -1.26563,-1.32813 -1.26563,-3.73438 0,-2.48437 1.26563,-3.85937 1.28126,-1.375 3.32813,-1.375 1.98438,0 3.23438,1.34375 1.25,1.34375 1.25,3.79687 0,0.14063 -0.0156,0.4375 h -7.34376 q 0.0937,1.625 0.92189,2.48438 0.82812,0.85937 2.0625,0.85937 0.90625,0 1.54687,-0.46875 0.65625,-0.48437 1.04688,-1.54687 z m -5.48439,-2.70313 h 5.50001 q -0.10937,-1.23437 -0.625,-1.85937 -0.79687,-0.96875 -2.07812,-0.96875 -1.14063,0 -1.9375,0.78125 -0.78126,0.76562 -0.85939,2.04687 z m 20.73091,4.65625 q -0.9375,0.79688 -1.79688,1.125 -0.85937,0.3125 -1.84375,0.3125 -1.60937,0 -2.48437,-0.78125 -0.875,-0.79687 -0.875,-2.03125 0,-0.73437 0.32812,-1.32812 0.32813,-0.59375 0.85938,-0.95313 0.53125,-0.35937 1.20312,-0.54687 0.5,-0.14063 1.48438,-0.25 2.03125,-0.25 2.98437,-0.57813 0,-0.34375 0,-0.4375 0,-1.01562 -0.46875,-1.4375 -0.64062,-0.5625 -1.90625,-0.5625 -1.17187,0 -1.73437,0.40625 -0.5625,0.40625 -0.82813,1.46875 l -1.64062,-0.23437 q 0.23437,-1.04688 0.73437,-1.6875 0.51563,-0.64063 1.46875,-0.98438 0.96875,-0.35937 2.25,-0.35937 1.26563,0 2.04688,0.29687 0.78125,0.29688 1.15625,0.75 0.375,0.45313 0.51562,1.14063 0.0937,0.42187 0.0937,1.53125 v 2.23437 q 0,2.32813 0.0937,2.95313 0.10938,0.60937 0.4375,1.17187 h -1.75 q -0.26562,-0.51562 -0.32812,-1.21875 z m -0.14063,-3.71875 q -0.90625,0.35938 -2.73437,0.625 -1.03125,0.14063 -1.45313,0.32813 -0.42187,0.1875 -0.65625,0.54687 -0.23437,0.35938 -0.23437,0.79688 0,0.67187 0.5,1.125 0.51562,0.4375 1.48437,0.4375 0.96875,0 1.71875,-0.42188 0.75,-0.4375 1.10938,-1.15625 0.26562,-0.57812 0.26562,-1.67187 z m 8.63715,0.0156 q 0,-2.73438 1.53125,-4.0625 1.26562,-1.09375 3.09375,-1.09375 2.03125,0 3.3125,1.34375 1.29687,1.32812 1.29687,3.67187 0,1.90625 -0.57812,3 -0.5625,1.07813 -1.65625,1.6875 -1.07813,0.59375 -2.375,0.59375 -2.0625,0 -3.34375,-1.32812 -1.28125,-1.32813 -1.28125,-3.8125 z m 1.71875,0 q 0,1.89062 0.82812,2.82812 0.82813,0.9375 2.07813,0.9375 1.25,0 2.0625,-0.9375 0.82812,-0.95312 0.82812,-2.89062 0,-1.82813 -0.82812,-2.76563 -0.82813,-0.9375 -2.0625,-0.9375 -1.25,0 -2.07813,0.9375 -0.82812,0.9375 -0.82812,2.82813 z m 9.68821,4.92187 v -8.54687 h -1.48437 v -1.3125 h 1.48437 v -1.04688 q 0,-0.98437 0.17188,-1.46875 0.23437,-0.65625 0.84375,-1.04687 0.60937,-0.40625 1.70312,-0.40625 0.70313,0 1.5625,0.15625 l -0.25,1.46875 q -0.51562,-0.0937 -0.98437,-0.0937 -0.76563,0 -1.07813,0.32812 -0.3125,0.3125 -0.3125,1.20313 v 0.90625 h 1.92188 v 1.3125 h -1.92188 v 8.54687 z m 9.24161,-5.67187 q 0.71875,-0.0312 1.15625,-0.39063 0.45313,-0.35937 0.59375,-1 0.15625,-0.64062 0.15625,-2.1875 0.0156,-1.5625 0.0625,-2.04687 0.0937,-0.78125 0.3125,-1.25 0.23438,-0.48438 0.5625,-0.76563 0.34375,-0.28125 0.85938,-0.42187 0.34375,-0.0937 1.14062,-0.0937 h 0.53125 v 1.45312 h -0.29687 q -0.96875,0 -1.28125,0.34375 -0.3125,0.34375 -0.3125,1.5625 0,2.42188 -0.0937,3.0625 -0.17188,1 -0.57813,1.54688 -0.40625,0.53125 -1.26562,0.9375 1.01562,0.4375 1.46875,1.3125 0.46875,0.875 0.46875,2.85937 0,1.8125 0.0312,2.15625 0.0781,0.64063 0.375,0.89063 0.3125,0.25 1.1875,0.25 h 0.29687 v 1.45312 h -0.53125 q -0.90625,0 -1.3125,-0.15625 -0.59375,-0.20312 -0.98437,-0.6875 -0.39063,-0.46875 -0.51563,-1.20312 -0.10937,-0.73438 -0.125,-2.40625 0,-1.67188 -0.15625,-2.3125 -0.14062,-0.64063 -0.59375,-1 -0.4375,-0.375 -1.15625,-0.40625 z m 11.25795,5.67187 v -1.67187 l 6.96875,-8.70313 q 0.75,-0.9375 1.42188,-1.625 h -7.59375 v -1.59375 h 9.73437 v 1.59375 l -7.625,9.4375 -0.82812,0.95313 h 8.6875 v 1.60937 z m 16.81366,-4.07812 v -1.6875 h 5.125 v 1.6875 z m 15.65018,-1.875 -9,3.85937 v -1.65625 l 7.125,-2.96875 -7.125,-2.9375 v -1.65625 l 9,3.8125 z m 8.82826,5.95312 h -1.54687 v -13.59375 h 1.65625 v 4.84375 q 1.0625,-1.32812 2.70312,-1.32812 0.90625,0 1.71875,0.375 0.8125,0.35937 1.32813,1.03125 0.53125,0.65625 0.82812,1.59375 0.29688,0.9375 0.29688,2 0,2.53125 -1.25,3.92187 -1.25,1.375 -3,1.375 -1.75,0 -2.73438,-1.45312 z m -0.0156,-5 q 0,1.76563 0.46875,2.5625 0.79687,1.28125 2.14062,1.28125 1.09375,0 1.89063,-0.9375 0.79687,-0.95312 0.79687,-2.84375 0,-1.92187 -0.76562,-2.84375 -0.76563,-0.92187 -1.84375,-0.92187 -1.09375,0 -1.89063,0.95312 -0.79687,0.95313 -0.79687,2.75 z m 9.28196,-2.95312 v -1.90625 h 1.90625 v 1.90625 z m 0,7.95312 v -1.90625 h 1.90625 v 1.90625 q 0,1.04688 -0.375,1.6875 -0.375,0.65625 -1.17187,1 l -0.46875,-0.71875 q 0.53125,-0.21875 0.78125,-0.67187 0.25,-0.45313 0.28125,-1.29688 z m 9.53849,-4.375 1.6875,-0.14062 q 0.125,1.01562 0.5625,1.67187 0.4375,0.65625 1.35937,1.0625 0.9375,0.40625 2.09375,0.40625 1.03125,0 1.8125,-0.3125 0.79688,-0.3125 1.1875,-0.84375 0.39063,-0.53125 0.39063,-1.15625 0,-0.64062 -0.375,-1.10937 -0.375,-0.48438 -1.23438,-0.8125 -0.54687,-0.21875 -2.42187,-0.65625 -1.875,-0.45313 -2.625,-0.85938 -0.96875,-0.51562 -1.45313,-1.26562 -0.46875,-0.75 -0.46875,-1.6875 0,-1.03125 0.57813,-1.92188 0.59375,-0.90625 1.70312,-1.35937 1.125,-0.46875 2.5,-0.46875 1.51563,0 2.67188,0.48437 1.15625,0.48438 1.76562,1.4375 0.625,0.9375 0.67188,2.14063 l -1.71875,0.125 q -0.14063,-1.28125 -0.95313,-1.9375 -0.79687,-0.67188 -2.35937,-0.67188 -1.625,0 -2.375,0.60938 -0.75,0.59375 -0.75,1.4375 0,0.73437 0.53125,1.20312 0.51562,0.46875 2.70312,0.96875 2.20313,0.5 3.01563,0.875 1.1875,0.54688 1.75,1.39063 0.57812,0.82812 0.57812,1.92187 0,1.09375 -0.625,2.0625 -0.625,0.95313 -1.79687,1.48438 -1.15625,0.53125 -2.60938,0.53125 -1.84375,0 -3.09375,-0.53125 -1.25,-0.54688 -1.96875,-1.625 -0.70312,-1.07813 -0.73437,-2.45313 z m 16.90811,4.375 3.59375,-5.125 -3.32813,-4.73437 h 2.09375 l 1.51563,2.3125 q 0.42187,0.65625 0.67187,1.10937 0.42188,-0.60937 0.76563,-1.09375 l 1.65625,-2.32812 h 1.98437 l -3.39062,4.64062 3.65625,5.21875 h -2.04688 l -2.03125,-3.0625 -0.53125,-0.82812 -2.59375,3.89062 z m 16.26562,0 h -1.67187 V 320.8345 q -0.59375,0.57812 -1.57813,1.15625 -0.98437,0.5625 -1.76562,0.85937 v -1.625 q 1.40625,-0.65625 2.45312,-1.59375 1.04688,-0.9375 1.48438,-1.8125 h 1.07812 z m 9.09027,-4.07812 v -1.6875 h 5.125 v 1.6875 z m 15.65018,-1.875 -9,3.85937 v -1.65625 l 7.125,-2.96875 -7.125,-2.9375 v -1.65625 l 9,3.8125 z m 6.89078,1.57812 1.6875,-0.14062 q 0.125,1.01562 0.5625,1.67187 0.4375,0.65625 1.35937,1.0625 0.9375,0.40625 2.09375,0.40625 1.03125,0 1.8125,-0.3125 0.79688,-0.3125 1.1875,-0.84375 0.39063,-0.53125 0.39063,-1.15625 0,-0.64062 -0.375,-1.10937 -0.375,-0.48438 -1.23438,-0.8125 -0.54687,-0.21875 -2.42187,-0.65625 -1.875,-0.45313 -2.625,-0.85938 -0.96875,-0.51562 -1.45313,-1.26562 -0.46875,-0.75 -0.46875,-1.6875 0,-1.03125 0.57813,-1.92188 0.59375,-0.90625 1.70312,-1.35937 1.125,-0.46875 2.5,-0.46875 1.51563,0 2.67188,0.48437 1.15625,0.48438 1.76562,1.4375 0.625,0.9375 0.67188,2.14063 l -1.71875,0.125 q -0.14063,-1.28125 -0.95313,-1.9375 -0.79687,-0.67188 -2.35937,-0.67188 -1.625,0 -2.375,0.60938 -0.75,0.59375 -0.75,1.4375 0,0.73437 0.53125,1.20312 0.51562,0.46875 2.70312,0.96875 2.20313,0.5 3.01563,0.875 1.1875,0.54688 1.75,1.39063 0.57812,0.82812 0.57812,1.92187 0,1.09375 -0.625,2.0625 -0.625,0.95313 -1.79687,1.48438 -1.15625,0.53125 -2.60938,0.53125 -1.84375,0 -3.09375,-0.53125 -1.25,-0.54688 -1.96875,-1.625 -0.70312,-1.07813 -0.73437,-2.45313 z m 21.20499,8.375 q -1.375,-1.75 -2.32813,-4.07812 -0.95312,-2.34375 -0.95312,-4.84375 0,-2.21875 0.70312,-4.23438 0.84375,-2.34375 2.57813,-4.67187 h 1.20312 q -1.125,1.92187 -1.48437,2.75 -0.5625,1.28125 -0.89063,2.67187 -0.40625,1.73438 -0.40625,3.48438 0,4.46875 2.78125,8.92187 z m 9.46267,-5.21875 q -0.9375,0.79688 -1.79687,1.125 -0.85938,0.3125 -1.84375,0.3125 -1.60938,0 -2.48438,-0.78125 -0.875,-0.79687 -0.875,-2.03125 0,-0.73437 0.32813,-1.32812 0.32812,-0.59375 0.85937,-0.95313 0.53125,-0.35937 1.20313,-0.54687 0.5,-0.14063 1.48437,-0.25 2.03125,-0.25 2.98438,-0.57813 0,-0.34375 0,-0.4375 0,-1.01562 -0.46875,-1.4375 -0.64063,-0.5625 -1.90625,-0.5625 -1.17188,0 -1.73438,0.40625 -0.5625,0.40625 -0.82812,1.46875 l -1.64063,-0.23437 q 0.23438,-1.04688 0.73438,-1.6875 0.51562,-0.64063 1.46875,-0.98438 0.96875,-0.35937 2.25,-0.35937 1.26562,0 2.04687,0.29687 0.78125,0.29688 1.15625,0.75 0.375,0.45313 0.51563,1.14063 0.0937,0.42187 0.0937,1.53125 v 2.23437 q 0,2.32813 0.0937,2.95313 0.10937,0.60937 0.4375,1.17187 h -1.75 q -0.26563,-0.51562 -0.32813,-1.21875 z m -0.14062,-3.71875 q -0.90625,0.35938 -2.73438,0.625 -1.03125,0.14063 -1.45312,0.32813 -0.42188,0.1875 -0.65625,0.54687 -0.23438,0.35938 -0.23438,0.79688 0,0.67187 0.5,1.125 0.51563,0.4375 1.48438,0.4375 0.96875,0 1.71875,-0.42188 0.75,-0.4375 1.10937,-1.15625 0.26563,-0.57812 0.26563,-1.67187 z m 10.46948,4.9375 v -1.25 q -0.9375,1.46875 -2.75,1.46875 -1.17187,0 -2.17187,-0.64062 -0.98438,-0.65625 -1.53125,-1.8125 -0.53125,-1.17188 -0.53125,-2.6875 0,-1.46875 0.48437,-2.67188 0.5,-1.20312 1.46875,-1.84375 0.98438,-0.64062 2.20313,-0.64062 0.89062,0 1.57812,0.375 0.70313,0.375 1.14063,0.98437 v -4.875 h 1.65625 v 13.59375 z m -5.28125,-4.92187 q 0,1.89062 0.79688,2.82812 0.8125,0.9375 1.89062,0.9375 1.09375,0 1.85938,-0.89062 0.76562,-0.89063 0.76562,-2.73438 0,-2.01562 -0.78125,-2.95312 -0.78125,-0.95313 -1.92187,-0.95313 -1.10938,0 -1.85938,0.90625 -0.75,0.90625 -0.75,2.85938 z m 15.65695,4.92187 v -1.25 q -0.9375,1.46875 -2.75,1.46875 -1.17187,0 -2.17187,-0.64062 -0.98438,-0.65625 -1.53125,-1.8125 -0.53125,-1.17188 -0.53125,-2.6875 0,-1.46875 0.48437,-2.67188 0.5,-1.20312 1.46875,-1.84375 0.98438,-0.64062 2.20313,-0.64062 0.89062,0 1.57812,0.375 0.70313,0.375 1.14063,0.98437 v -4.875 h 1.65625 v 13.59375 z m -5.28125,-4.92187 q 0,1.89062 0.79688,2.82812 0.8125,0.9375 1.89062,0.9375 1.09375,0 1.85938,-0.89062 0.76562,-0.89063 0.76562,-2.73438 0,-2.01562 -0.78125,-2.95312 -0.78125,-0.95313 -1.92187,-0.95313 -1.10938,0 -1.85938,0.90625 -0.75,0.90625 -0.75,2.85938 z m 13.34024,4.92187 3.59375,-5.125 -3.32812,-4.73437 h 2.09375 l 1.51562,2.3125 q 0.42188,0.65625 0.67188,1.10937 0.42187,-0.60937 0.76562,-1.09375 l 1.65625,-2.32812 h 1.98438 l -3.39063,4.64062 3.65625,5.21875 h -2.04687 l -2.03125,-3.0625 -0.53125,-0.82812 -2.59375,3.89062 z m 16.26563,0 h -1.6719 V 320.8345 q -0.59375,0.57812 -1.57812,1.15625 -0.98438,0.5625 -1.76563,0.85937 v -1.625 q 1.40625,-0.65625 2.45313,-1.59375 1.04687,-0.9375 1.48437,-1.8125 h 1.07813 z m 11.27777,0 h -1.54688 v -13.59375 h 1.65625 v 4.84375 q 1.0625,-1.32812 2.70313,-1.32812 0.90625,0 1.71875,0.375 0.8125,0.35937 1.32812,1.03125 0.53125,0.65625 0.82813,1.59375 0.29687,0.9375 0.29687,2 0,2.53125 -1.25,3.92187 -1.25,1.375 -3,1.375 -1.75,0 -2.73437,-1.45312 z m -0.0156,-5 q 0,1.76563 0.46875,2.5625 0.79688,1.28125 2.14063,1.28125 1.09375,0 1.89062,-0.9375 0.79688,-0.95312 0.79688,-2.84375 0,-1.92187 -0.76563,-2.84375 -0.76562,-0.92187 -1.84375,-0.92187 -1.09375,0 -1.89062,0.95312 -0.79688,0.95313 -0.79688,2.75 z m 9.93824,9 h -1.1875 q 2.76562,-4.45312 2.76562,-8.92187 0,-1.73438 -0.39062,-3.45313 -0.32813,-1.39062 -0.89063,-2.67187 -0.35937,-0.84375 -1.48437,-2.78125 h 1.1875 q 1.75,2.32812 2.57812,4.67187 0.71875,2.01563 0.71875,4.23438 0,2.5 -0.96875,4.84375 -0.95312,2.32812 -2.32812,4.07812 z m 5.55642,-11.95312 v -1.90625 h 1.90625 v 1.90625 z m 0,7.95312 v -1.90625 h 1.90625 v 1.90625 q 0,1.04688 -0.375,1.6875 -0.375,0.65625 -1.17187,1 l -0.46875,-0.71875 q 0.53125,-0.21875 0.78125,-0.67187 0.25,-0.45313 0.28125,-1.29688 z m 14.49161,-5.67187 v 1.5 q -0.71875,0.0312 -1.17187,0.40625 -0.45313,0.35937 -0.60938,1 -0.14062,0.625 -0.15625,2.1875 0,1.54687 -0.0469,2.03125 -0.0781,0.79687 -0.3125,1.26562 -0.21875,0.46875 -0.5625,0.75 -0.32813,0.28125 -0.84375,0.42188 -0.35938,0.10937 -1.15625,0.10937 h -0.51563 V 334.022 h 0.28125 q 0.96875,0 1.28125,-0.35938 0.3125,-0.34375 0.3125,-1.5625 0,-2.3125 0.0937,-2.9375 0.14063,-1.03125 0.57813,-1.64062 0.45312,-0.625 1.28125,-0.96875 -1.07813,-0.5 -1.51563,-1.34375 -0.4375,-0.84375 -0.4375,-2.82813 0,-1.8125 -0.0469,-2.17187 -0.0625,-0.625 -0.35938,-0.85938 -0.29687,-0.25 -1.1875,-0.25 h -0.28125 V 317.647 h 0.51563 q 0.90625,0 1.3125,0.14062 0.59375,0.20313 0.98437,0.6875 0.39063,0.48438 0.5,1.21875 0.125,0.73438 0.125,2.40625 0.0156,1.67188 0.15625,2.3125 0.15625,0.625 0.60938,1 0.45312,0.35938 1.17187,0.39063 z"
       id="path907"
       inkscape:connector-curvature="0"
       style="fill:#000000;fill-rule:nonzero" />
    <path
       d="m 263.22964,252.55511 v 48"
       id="path909"
       inkscape:connector-curvature="0"
       style="fill:#000000;fill-opacity:0;fill-rule:evenodd" />
    <path
       d="m 263.22964,252.55511 v 36"
       id="path911"
       inkscape:connector-curvature="0"
       style="fill-rule:evenodd;stroke:#073763;stroke-width:2;stroke-linecap:butt;stroke-linejoin:round" />
    <path
       d="m 259.9262,288.5551 3.30344,9.0762 3.30346,-9.0762 z"
       id="path913"
       inkscape:connector-curvature="0"
       style="fill:#073763;fill-rule:evenodd;stroke:#073763;stroke-width:2;stroke-linecap:butt" />
    <path
       d="m 255.22966,435.22192 v 0 c 0,-3.68198 2.98482,-6.66681 6.66679,-6.66681 h 170.66641 c 1.76813,0 3.46387,0.70239 4.71415,1.95267 1.25024,1.25027 1.95263,2.94598 1.95263,4.71414 v 26.66638 c 0,3.68198 -2.9848,6.66681 -6.66678,6.66681 H 261.89645 c -3.68197,0 -6.66679,-2.98483 -6.66679,-6.66681 z"
       id="path915"
       inkscape:connector-curvature="0"
       style="fill:#cfe2f3;fill-rule:evenodd" />
    <path
       d="m 255.22966,435.22192 v 0 c 0,-3.68198 2.98482,-6.66681 6.66679,-6.66681 h 170.66641 c 1.76813,0 3.46387,0.70239 4.71415,1.95267 1.25024,1.25027 1.95263,2.94598 1.95263,4.71414 v 26.66638 c 0,3.68198 -2.9848,6.66681 -6.66678,6.66681 H 261.89645 c -3.68197,0 -6.66679,-2.98483 -6.66679,-6.66681 z"
       id="path917"
       inkscape:connector-curvature="0"
       style="fill-rule:evenodd;stroke:#073763;stroke-width:2;stroke-linecap:butt;stroke-linejoin:round" />
    <path
       d="m 296.75247,451.10013 1.6875,-0.14063 q 0.125,1.01563 0.5625,1.67188 0.4375,0.65625 1.35938,1.0625 0.9375,0.40625 2.09375,0.40625 1.03125,0 1.8125,-0.3125 0.79687,-0.3125 1.1875,-0.84375 0.39062,-0.53125 0.39062,-1.15625 0,-0.64063 -0.375,-1.10938 -0.375,-0.48437 -1.23437,-0.8125 -0.54688,-0.21875 -2.42188,-0.65625 -1.875,-0.45312 -2.625,-0.85937 -0.96875,-0.51563 -1.45312,-1.26563 -0.46875,-0.75 -0.46875,-1.6875 0,-1.03125 0.57812,-1.92187 0.59375,-0.90625 1.70313,-1.35938 1.125,-0.46875 2.5,-0.46875 1.51562,0 2.67187,0.48438 1.15625,0.48437 1.76563,1.4375 0.625,0.9375 0.67187,2.14062 l -1.71875,0.125 q -0.14062,-1.28125 -0.95312,-1.9375 -0.79688,-0.67187 -2.35938,-0.67187 -1.625,0 -2.375,0.60937 -0.75,0.59375 -0.75,1.4375 0,0.73438 0.53125,1.20313 0.51563,0.46875 2.70313,0.96875 2.20312,0.5 3.01562,0.875 1.1875,0.54687 1.75,1.39062 0.57813,0.82813 0.57813,1.92188 0,1.09375 -0.625,2.0625 -0.625,0.95312 -1.79688,1.48437 -1.15625,0.53125 -2.60937,0.53125 -1.84375,0 -3.09375,-0.53125 -1.25,-0.54687 -1.96875,-1.625 -0.70313,-1.07812 -0.73438,-2.45312 z m 21.20499,8.375 q -1.375,-1.75 -2.32813,-4.07813 -0.95312,-2.34375 -0.95312,-4.84375 0,-2.21875 0.70312,-4.23437 0.84375,-2.34375 2.57813,-4.67188 h 1.20312 q -1.125,1.92188 -1.48437,2.75 -0.5625,1.28125 -0.89063,2.67188 -0.40625,1.73437 -0.40625,3.48437 0,4.46875 2.78125,8.92188 z m 9.46267,-5.21875 q -0.9375,0.79687 -1.79687,1.125 -0.85938,0.3125 -1.84375,0.3125 -1.60938,0 -2.48438,-0.78125 -0.875,-0.79688 -0.875,-2.03125 0,-0.73438 0.32813,-1.32813 0.32812,-0.59375 0.85937,-0.95312 0.53125,-0.35938 1.20313,-0.54688 0.5,-0.14062 1.48437,-0.25 2.03125,-0.25 2.98438,-0.57812 0,-0.34375 0,-0.4375 0,-1.01563 -0.46875,-1.4375 -0.64063,-0.5625 -1.90625,-0.5625 -1.17188,0 -1.73438,0.40625 -0.5625,0.40625 -0.82812,1.46875 l -1.64063,-0.23438 q 0.23438,-1.04687 0.73438,-1.6875 0.51562,-0.64062 1.46875,-0.98437 0.96875,-0.35938 2.25,-0.35938 1.26562,0 2.04687,0.29688 0.78125,0.29687 1.15625,0.75 0.375,0.45312 0.51563,1.14062 0.0937,0.42188 0.0937,1.53125 v 2.23438 q 0,2.32812 0.0937,2.95312 0.10937,0.60938 0.4375,1.17188 h -1.75 q -0.26563,-0.51563 -0.32813,-1.21875 z m -0.14062,-3.71875 q -0.90625,0.35937 -2.73438,0.625 -1.03125,0.14062 -1.45312,0.32812 -0.42188,0.1875 -0.65625,0.54688 -0.23438,0.35937 -0.23438,0.79687 0,0.67188 0.5,1.125 0.51563,0.4375 1.48438,0.4375 0.96875,0 1.71875,-0.42187 0.75,-0.4375 1.10937,-1.15625 0.26563,-0.57813 0.26563,-1.67188 z m 10.46948,4.9375 v -1.25 q -0.9375,1.46875 -2.75,1.46875 -1.17187,0 -2.17187,-0.64063 -0.98438,-0.65625 -1.53125,-1.8125 -0.53125,-1.17187 -0.53125,-2.6875 0,-1.46875 0.48437,-2.67187 0.5,-1.20313 1.46875,-1.84375 0.98438,-0.64063 2.20313,-0.64063 0.89062,0 1.57812,0.375 0.70313,0.375 1.14063,0.98438 v -4.875 h 1.65625 v 13.59375 z m -5.28125,-4.92188 q 0,1.89063 0.79688,2.82813 0.8125,0.9375 1.89062,0.9375 1.09375,0 1.85938,-0.89063 0.76562,-0.89062 0.76562,-2.73437 0,-2.01563 -0.78125,-2.95313 -0.78125,-0.95312 -1.92187,-0.95312 -1.10938,0 -1.85938,0.90625 -0.75,0.90625 -0.75,2.85937 z m 15.65695,4.92188 v -1.25 q -0.9375,1.46875 -2.75,1.46875 -1.17187,0 -2.17187,-0.64063 -0.98438,-0.65625 -1.53125,-1.8125 -0.53125,-1.17187 -0.53125,-2.6875 0,-1.46875 0.48437,-2.67187 0.5,-1.20313 1.46875,-1.84375 0.98438,-0.64063 2.20313,-0.64063 0.89062,0 1.57812,0.375 0.70313,0.375 1.14063,0.98438 v -4.875 h 1.65625 v 13.59375 z m -5.28125,-4.92188 q 0,1.89063 0.79688,2.82813 0.8125,0.9375 1.89062,0.9375 1.09375,0 1.85938,-0.89063 0.76562,-0.89062 0.76562,-2.73437 0,-2.01563 -0.78125,-2.95313 -0.78125,-0.95312 -1.92187,-0.95312 -1.10938,0 -1.85938,0.90625 -0.75,0.90625 -0.75,2.85937 z m 20.88715,3.70313 q -0.9375,0.79687 -1.79688,1.125 -0.85937,0.3125 -1.84375,0.3125 -1.60937,0 -2.48437,-0.78125 -0.875,-0.79688 -0.875,-2.03125 0,-0.73438 0.32812,-1.32813 0.32813,-0.59375 0.85938,-0.95312 0.53125,-0.35938 1.20312,-0.54688 0.5,-0.14062 1.48438,-0.25 2.03125,-0.25 2.98437,-0.57812 0,-0.34375 0,-0.4375 0,-1.01563 -0.46875,-1.4375 -0.64062,-0.5625 -1.90625,-0.5625 -1.17187,0 -1.73437,0.40625 -0.5625,0.40625 -0.82813,1.46875 l -1.64062,-0.23438 q 0.23437,-1.04687 0.73437,-1.6875 0.51563,-0.64062 1.46875,-0.98437 0.96875,-0.35938 2.25,-0.35938 1.26563,0 2.04688,0.29688 0.78125,0.29687 1.15625,0.75 0.375,0.45312 0.51562,1.14062 0.0937,0.42188 0.0937,1.53125 v 2.23438 q 0,2.32812 0.0937,2.95312 0.10938,0.60938 0.4375,1.17188 h -1.75 q -0.26562,-0.51563 -0.32812,-1.21875 z m -0.14063,-3.71875 q -0.90625,0.35937 -2.73437,0.625 -1.03125,0.14062 -1.45313,0.32812 -0.42187,0.1875 -0.65625,0.54688 -0.23437,0.35937 -0.23437,0.79687 0,0.67188 0.5,1.125 0.51562,0.4375 1.48437,0.4375 0.96875,0 1.71875,-0.42187 0.75,-0.4375 1.10938,-1.15625 0.26562,-0.57813 0.26562,-1.67188 z m 9.90699,4.9375 h -1.67188 V 444.8345 q -0.59375,0.57813 -1.57812,1.15625 -0.98438,0.5625 -1.76563,0.85938 v -1.625 q 1.40625,-0.65625 2.45313,-1.59375 1.04687,-0.9375 1.48437,-1.8125 h 1.07813 z m 11.27777,0 h -1.54688 v -13.59375 h 1.65625 v 4.84375 q 1.0625,-1.32813 2.70313,-1.32813 0.90625,0 1.71875,0.375 0.8125,0.35938 1.32812,1.03125 0.53125,0.65625 0.82813,1.59375 0.29687,0.9375 0.29687,2 0,2.53125 -1.25,3.92188 -1.25,1.375 -3,1.375 -1.75,0 -2.73437,-1.45313 z m -0.0156,-5 q 0,1.76562 0.46875,2.5625 0.79688,1.28125 2.14063,1.28125 1.09375,0 1.89062,-0.9375 0.79688,-0.95313 0.79688,-2.84375 0,-1.92188 -0.76563,-2.84375 -0.76562,-0.92188 -1.84375,-0.92188 -1.09375,0 -1.89062,0.95313 -0.79688,0.95312 -0.79688,2.75 z m 9.93823,9 h -1.1875 q 2.76563,-4.45313 2.76563,-8.92188 0,-1.73437 -0.39063,-3.45312 -0.32812,-1.39063 -0.89062,-2.67188 -0.35938,-0.84375 -1.48438,-2.78125 h 1.1875 q 1.75,2.32813 2.57813,4.67188 0.71875,2.01562 0.71875,4.23437 0,2.5 -0.96875,4.84375 -0.95313,2.32813 -2.32813,4.07813 z"
       id="path919"
       inkscape:connector-curvature="0"
       style="fill:#000000;fill-rule:nonzero" />
    <path
       d="m 95.22966,435.22192 v 0 c 0,-3.68198 2.984825,-6.66681 6.6668,-6.66681 h 82.66641 c 1.76814,0 3.46386,0.70239 4.71412,1.95267 1.25028,1.25027 1.95267,2.94598 1.95267,4.71414 v 26.66638 c 0,3.68198 -2.98483,6.66681 -6.66679,6.66681 h -82.66641 c -3.681975,0 -6.6668,-2.98483 -6.6668,-6.66681 z"
       id="path921"
       inkscape:connector-curvature="0"
       style="fill:#cfe2f3;fill-rule:evenodd" />
    <path
       d="m 95.22966,435.22192 v 0 c 0,-3.68198 2.984825,-6.66681 6.6668,-6.66681 h 82.66641 c 1.76814,0 3.46386,0.70239 4.71412,1.95267 1.25028,1.25027 1.95267,2.94598 1.95267,4.71414 v 26.66638 c 0,3.68198 -2.98483,6.66681 -6.66679,6.66681 h -82.66641 c -3.681975,0 -6.6668,-2.98483 -6.6668,-6.66681 z"
       id="path923"
       inkscape:connector-curvature="0"
       style="fill-rule:evenodd;stroke:#073763;stroke-width:2;stroke-linecap:butt;stroke-linejoin:round" />
    <path
       d="m 140.83867,455.47513 h -1.54688 v -13.59375 h 1.65625 v 4.84375 q 1.0625,-1.32813 2.70313,-1.32813 0.90625,0 1.71875,0.375 0.8125,0.35938 1.32812,1.03125 0.53125,0.65625 0.82813,1.59375 0.29687,0.9375 0.29687,2 0,2.53125 -1.25,3.92188 -1.25,1.375 -3,1.375 -1.75,0 -2.73437,-1.45313 z m -0.0156,-5 q 0,1.76562 0.46875,2.5625 0.79688,1.28125 2.14063,1.28125 1.09375,0 1.89062,-0.9375 0.79688,-0.95313 0.79688,-2.84375 0,-1.92188 -0.76563,-2.84375 -0.76562,-0.92188 -1.84375,-0.92188 -1.09375,0 -1.89062,0.95313 -0.79688,0.95312 -0.79688,2.75 z"
       id="path925"
       inkscape:connector-curvature="0"
       style="fill:#000000;fill-rule:nonzero" />
    <path
       d="m 263.22964,348.5551 -119.99998,80"
       id="path927"
       inkscape:connector-curvature="0"
       style="fill:#000000;fill-opacity:0;fill-rule:evenodd" />
    <path
       d="M 263.22964,348.5551 153.21426,421.8987"
       id="path929"
       inkscape:connector-curvature="0"
       style="fill-rule:evenodd;stroke:#073763;stroke-width:2;stroke-linecap:butt;stroke-linejoin:round" />
    <path
       d="m 151.38184,419.15005 -5.71942,7.78323 9.38428,-2.28592 z"
       id="path931"
       inkscape:connector-curvature="0"
       style="fill:#073763;fill-rule:evenodd;stroke:#073763;stroke-width:2;stroke-linecap:butt" />
    <path
       d="m 263.22964,348.5551 88,80"
       id="path933"
       inkscape:connector-curvature="0"
       style="fill:#000000;fill-opacity:0;fill-rule:evenodd" />
    <path
       d="m 263.22964,348.5551 79.12073,71.92795"
       id="path935"
       inkscape:connector-curvature="0"
       style="fill-rule:evenodd;stroke:#073763;stroke-width:2;stroke-linecap:butt;stroke-linejoin:round" />
    <path
       d="m 340.12823,422.9274 8.93799,3.66095 -4.49368,-8.54968 z"
       id="path937"
       inkscape:connector-curvature="0"
       style="fill:#073763;fill-rule:evenodd;stroke:#073763;stroke-width:2;stroke-linecap:butt" />
    <path
       d="m 319.22964,500.5551 h 12 v -24 h 24 v 24 h 12 l -24,24 z"
       id="path939"
       inkscape:connector-curvature="0"
       style="fill:#cfe2f3;fill-rule:evenodd" />
    <path
       d="m 319.22964,500.5551 h 12 v -24 h 24 v 24 h 12 l -24,24 z"
       id="path941"
       inkscape:connector-curvature="0"
       style="fill-rule:evenodd;stroke:#073763;stroke-width:2;stroke-linecap:butt;stroke-linejoin:round" />
    <path
       d="m 279.22964,539.2219 v 0 c 0,-3.68201 2.98483,-6.66681 6.66681,-6.66681 h 114.66641 c 1.76813,0 3.46387,0.70239 4.71414,1.95264 1.25025,1.2503 1.95264,2.94604 1.95264,4.71417 v 26.66638 c 0,3.68201 -2.9848,6.66681 -6.66678,6.66681 H 285.89645 c -3.68198,0 -6.66681,-2.9848 -6.66681,-6.66681 z"
       id="path943"
       inkscape:connector-curvature="0"
       style="fill:#cfe2f3;fill-rule:evenodd" />
    <path
       d="m 279.22964,539.2219 v 0 c 0,-3.68201 2.98483,-6.66681 6.66681,-6.66681 h 114.66641 c 1.76813,0 3.46387,0.70239 4.71414,1.95264 1.25025,1.2503 1.95264,2.94604 1.95264,4.71417 v 26.66638 c 0,3.68201 -2.9848,6.66681 -6.66678,6.66681 H 285.89645 c -3.68198,0 -6.66681,-2.9848 -6.66681,-6.66681 z"
       id="path945"
       inkscape:connector-curvature="0"
       style="fill-rule:evenodd;stroke:#073763;stroke-width:2;stroke-linecap:butt;stroke-linejoin:round" />
    <path
       d="m 314.6067,558.25635 q -0.9375,0.79687 -1.79688,1.125 -0.85937,0.3125 -1.84375,0.3125 -1.60937,0 -2.48437,-0.78125 -0.875,-0.79688 -0.875,-2.03125 0,-0.73438 0.32812,-1.32813 0.32813,-0.59375 0.85938,-0.95312 0.53125,-0.35938 1.20312,-0.54688 0.5,-0.14062 1.48438,-0.25 2.03125,-0.25 2.98437,-0.57812 0,-0.34375 0,-0.4375 0,-1.01563 -0.46875,-1.4375 -0.64062,-0.5625 -1.90625,-0.5625 -1.17187,0 -1.73437,0.40625 -0.5625,0.40625 -0.82813,1.46875 l -1.64062,-0.23438 q 0.23437,-1.04687 0.73437,-1.6875 0.51563,-0.64062 1.46875,-0.98437 0.96875,-0.35938 2.25,-0.35938 1.26563,0 2.04688,0.29688 0.78125,0.29687 1.15625,0.75 0.375,0.45312 0.51562,1.14062 0.0937,0.42188 0.0937,1.53125 v 2.23438 q 0,2.32812 0.0937,2.95312 0.10938,0.60938 0.4375,1.17188 h -1.75 q -0.26562,-0.51563 -0.32812,-1.21875 z m -0.14063,-3.71875 q -0.90625,0.35937 -2.73437,0.625 -1.03125,0.14062 -1.45313,0.32812 -0.42187,0.1875 -0.65625,0.54688 -0.23437,0.35937 -0.23437,0.79687 0,0.67188 0.5,1.125 0.51562,0.4375 1.48437,0.4375 0.96875,0 1.71875,-0.42187 0.75,-0.4375 1.10938,-1.15625 0.26562,-0.57813 0.26562,-1.67188 z m 10.46949,4.9375 v -1.25 q -0.9375,1.46875 -2.75,1.46875 -1.17188,0 -2.17188,-0.64063 -0.98437,-0.65625 -1.53125,-1.8125 -0.53125,-1.17187 -0.53125,-2.6875 0,-1.46875 0.48438,-2.67187 0.5,-1.20313 1.46875,-1.84375 0.98437,-0.64063 2.20312,-0.64063 0.89063,0 1.57813,0.375 0.70312,0.375 1.14062,0.98438 v -4.875 h 1.65625 v 13.59375 z m -5.28125,-4.92188 q 0,1.89063 0.79687,2.82813 0.8125,0.9375 1.89063,0.9375 1.09375,0 1.85937,-0.89063 0.76563,-0.89062 0.76563,-2.73437 0,-2.01563 -0.78125,-2.95313 -0.78125,-0.95312 -1.92188,-0.95312 -1.10937,0 -1.85937,0.90625 -0.75,0.90625 -0.75,2.85937 z m 15.65695,4.92188 v -1.25 q -0.9375,1.46875 -2.75,1.46875 -1.17188,0 -2.17188,-0.64063 -0.98437,-0.65625 -1.53125,-1.8125 -0.53125,-1.17187 -0.53125,-2.6875 0,-1.46875 0.48438,-2.67187 0.5,-1.20313 1.46875,-1.84375 0.98437,-0.64063 2.20312,-0.64063 0.89063,0 1.57813,0.375 0.70312,0.375 1.14062,0.98438 v -4.875 h 1.65625 v 13.59375 z m -5.28125,-4.92188 q 0,1.89063 0.79687,2.82813 0.8125,0.9375 1.89063,0.9375 1.09375,0 1.85937,-0.89063 0.76563,-0.89062 0.76563,-2.73437 0,-2.01563 -0.78125,-2.95313 -0.78125,-0.95312 -1.92188,-0.95312 -1.10937,0 -1.85937,0.90625 -0.75,0.90625 -0.75,2.85937 z m 20.88718,3.70313 q -0.9375,0.79687 -1.79688,1.125 -0.85937,0.3125 -1.84375,0.3125 -1.60937,0 -2.4844,-0.78125 -0.875,-0.79688 -0.875,-2.03125 0,-0.73438 0.32812,-1.32813 0.32813,-0.59375 0.85938,-0.95312 0.53128,-0.35938 1.20315,-0.54688 0.5,-0.14062 1.48438,-0.25 2.03125,-0.25 2.98437,-0.57812 0,-0.34375 0,-0.4375 0,-1.01563 -0.46875,-1.4375 -0.64062,-0.5625 -1.90625,-0.5625 -1.17187,0 -1.73437,0.40625 -0.5625,0.40625 -0.82813,1.46875 l -1.64065,-0.23438 q 0.23437,-1.04687 0.73437,-1.6875 0.51566,-0.64062 1.46878,-0.98437 0.96875,-0.35938 2.25,-0.35938 1.26563,0 2.04688,0.29688 0.78125,0.29687 1.15625,0.75 0.375,0.45312 0.51562,1.14062 0.0937,0.42188 0.0937,1.53125 v 2.23438 q 0,2.32812 0.0937,2.95312 0.10938,0.60938 0.4375,1.17188 h -1.75 q -0.26562,-0.51563 -0.32812,-1.21875 z m -0.14063,-3.71875 q -0.90625,0.35937 -2.73437,0.625 -1.03125,0.14062 -1.45313,0.32812 -0.42187,0.1875 -0.65625,0.54688 -0.23437,0.35937 -0.23437,0.79687 0,0.67188 0.5,1.125 0.51562,0.4375 1.48437,0.4375 0.96875,0 1.71875,-0.42187 0.75,-0.4375 1.10938,-1.15625 0.26562,-0.57813 0.26562,-1.67188 z m 9.90695,4.9375 h -1.67187 v -10.64063 q -0.59375,0.57813 -1.57813,1.15625 -0.98437,0.5625 -1.76562,0.85938 v -1.625 q 1.40625,-0.65625 2.45312,-1.59375 1.04688,-0.9375 1.48438,-1.8125 h 1.07812 z m 11.27777,0 h -1.54687 v -13.59375 h 1.65625 v 4.84375 q 1.0625,-1.32813 2.70312,-1.32813 0.90625,0 1.71875,0.375 0.8125,0.35938 1.32813,1.03125 0.53125,0.65625 0.82812,1.59375 0.29688,0.9375 0.29688,2 0,2.53125 -1.25,3.92188 -1.25,1.375 -3,1.375 -1.75,0 -2.73438,-1.45313 z m -0.0156,-5 q 0,1.76562 0.46875,2.5625 0.79687,1.28125 2.14062,1.28125 1.09375,0 1.89063,-0.9375 0.79687,-0.95313 0.79687,-2.84375 0,-1.92188 -0.76562,-2.84375 -0.76563,-0.92188 -1.84375,-0.92188 -1.09375,0 -1.89063,0.95313 -0.79687,0.95312 -0.79687,2.75 z"
       id="path947"
       inkscape:connector-curvature="0"
       style="fill:#000000;fill-rule:nonzero" />
    <path
       d="M 407.22964,556.5551 H 559.22967"
       id="path949"
       inkscape:connector-curvature="0"
       style="fill:#000000;fill-opacity:0;fill-rule:evenodd" />
    <path
       d="M 407.22964,556.5551 H 559.22967"
       id="path951"
       inkscape:connector-curvature="0"
       style="fill-rule:evenodd;stroke:#073763;stroke-width:2;stroke-linecap:butt;stroke-linejoin:round;stroke-dasharray:2, 6" />
    <path
       d="m 559.2297,556.5551 v -528"
       id="path953"
       inkscape:connector-curvature="0"
       style="fill:#000000;fill-opacity:0;fill-rule:evenodd" />
    <path
       d="m 559.2297,556.5551 v -528"
       id="path955"
       inkscape:connector-curvature="0"
       style="fill-rule:evenodd;stroke:#073763;stroke-width:2;stroke-linecap:butt;stroke-linejoin:round;stroke-dasharray:2, 6" />
    <path
       d="M 311.22964,28.555119 H 559.22967"
       id="path957"
       inkscape:connector-curvature="0"
       style="fill:#000000;fill-opacity:0;fill-rule:evenodd" />
    <path
       d="M 318.08383,28.555119 H 559.22967"
       id="path959"
       inkscape:connector-curvature="0"
       style="fill-rule:evenodd;stroke:#073763;stroke-width:2;stroke-linecap:butt;stroke-linejoin:round;stroke-dasharray:2, 6" />
    <path
       d="m 318.08383,28.555119 2.24918,-2.249168 -6.17954,2.249168 6.17954,2.249167 z"
       id="path961"
       inkscape:connector-curvature="0"
       style="fill:#073763;fill-rule:evenodd;stroke:#073763;stroke-width:2;stroke-linecap:butt" />
    <path
       d="m 119.22966,364.5551 h 72 v 24 h -72 z"
       id="path963"
       inkscape:connector-curvature="0"
       style="fill:#000000;fill-opacity:0;fill-rule:evenodd" />
    <path
       d="m 141.40053,382.25638 q -0.9375,0.79687 -1.79688,1.125 -0.85937,0.3125 -1.84375,0.3125 -1.60937,0 -2.48437,-0.78125 -0.875,-0.79688 -0.875,-2.03125 0,-0.73438 0.32812,-1.32813 0.32813,-0.59375 0.85938,-0.95312 0.53125,-0.35938 1.20312,-0.54688 0.5,-0.14062 1.48438,-0.25 2.03125,-0.25 2.98437,-0.57812 0,-0.34375 0,-0.4375 0,-1.01563 -0.46875,-1.4375 -0.64062,-0.5625 -1.90625,-0.5625 -1.17187,0 -1.73437,0.40625 -0.5625,0.40625 -0.82813,1.46875 l -1.64062,-0.23438 q 0.23437,-1.04687 0.73437,-1.6875 0.51563,-0.64062 1.46875,-0.98437 0.96875,-0.35938 2.25,-0.35938 1.26563,0 2.04688,0.29688 0.78125,0.29687 1.15625,0.75 0.375,0.45312 0.51562,1.14062 0.0937,0.42188 0.0937,1.53125 v 2.23438 q 0,2.32812 0.0937,2.95312 0.10938,0.60938 0.4375,1.17188 h -1.75 q -0.26562,-0.51563 -0.32812,-1.21875 z m -0.14063,-3.71875 q -0.90625,0.35937 -2.73437,0.625 -1.03125,0.14062 -1.45313,0.32812 -0.42187,0.1875 -0.65625,0.54688 -0.23437,0.35937 -0.23437,0.79687 0,0.67188 0.5,1.125 0.51562,0.4375 1.48437,0.4375 0.96875,0 1.71875,-0.42187 0.75,-0.4375 1.10938,-1.15625 0.26562,-0.57813 0.26562,-1.67188 z m 18.0434,-3.0625 h -8.96875 v -1.5625 h 8.96875 z m 0,4.125 h -8.96875 v -1.54688 h 8.96875 z m 6.42201,3.875 v -1.67188 l 6.96875,-8.70312 q 0.75,-0.9375 1.42188,-1.625 h -7.59375 v -1.59375 h 9.73437 v 1.59375 l -7.625,9.4375 -0.82812,0.95312 h 8.6875 v 1.60938 z"
       id="path965"
       inkscape:connector-curvature="0"
       style="fill:#000000;fill-rule:nonzero" />
    <path
       d="m 327.22964,364.5551 h 112 v 32 h -112 z"
       id="path967"
       inkscape:connector-curvature="0"
       style="fill:#000000;fill-opacity:0;fill-rule:evenodd" />
    <path
       d="m 355.90936,386.25638 q -0.9375,0.79687 -1.79688,1.125 -0.85937,0.3125 -1.84375,0.3125 -1.60937,0 -2.48437,-0.78125 -0.875,-0.79688 -0.875,-2.03125 0,-0.73438 0.32812,-1.32813 0.32813,-0.59375 0.85938,-0.95312 0.53125,-0.35938 1.20312,-0.54688 0.5,-0.14062 1.48438,-0.25 2.03125,-0.25 2.98437,-0.57812 0,-0.34375 0,-0.4375 0,-1.01563 -0.46875,-1.4375 -0.64062,-0.5625 -1.90625,-0.5625 -1.17187,0 -1.73437,0.40625 -0.5625,0.40625 -0.82813,1.46875 l -1.64062,-0.23438 q 0.23437,-1.04687 0.73437,-1.6875 0.51563,-0.64062 1.46875,-0.98437 0.96875,-0.35938 2.25,-0.35938 1.26563,0 2.04688,0.29688 0.78125,0.29687 1.15625,0.75 0.375,0.45312 0.51562,1.14062 0.0937,0.42188 0.0937,1.53125 v 2.23438 q 0,2.32812 0.0937,2.95312 0.10938,0.60938 0.4375,1.17188 h -1.75 q -0.26562,-0.51563 -0.32812,-1.21875 z m -0.14063,-3.71875 q -0.90625,0.35937 -2.73437,0.625 -1.03125,0.14062 -1.45313,0.32812 -0.42187,0.1875 -0.65625,0.54688 -0.23437,0.35937 -0.23437,0.79687 0,0.67188 0.5,1.125 0.51562,0.4375 1.48437,0.4375 0.96875,0 1.71875,-0.42187 0.75,-0.4375 1.10938,-1.15625 0.26562,-0.57813 0.26562,-1.67188 z m 18.0434,-3.0625 h -8.96875 v -1.5625 h 8.96875 z m 0,4.125 h -8.96875 v -1.54688 h 8.96875 z m 6.90637,-0.5 1.6875,-0.14063 q 0.125,1.01563 0.5625,1.67188 0.4375,0.65625 1.35938,1.0625 0.9375,0.40625 2.09375,0.40625 1.03125,0 1.8125,-0.3125 0.79687,-0.3125 1.1875,-0.84375 0.39062,-0.53125 0.39062,-1.15625 0,-0.64063 -0.375,-1.10938 -0.375,-0.48437 -1.23437,-0.8125 -0.54688,-0.21875 -2.42188,-0.65625 -1.875,-0.45312 -2.625,-0.85937 -0.96875,-0.51563 -1.45312,-1.26563 -0.46875,-0.75 -0.46875,-1.6875 0,-1.03125 0.57812,-1.92187 0.59375,-0.90625 1.70313,-1.35938 1.125,-0.46875 2.5,-0.46875 1.51562,0 2.67187,0.48438 1.15625,0.48437 1.76563,1.4375 0.625,0.9375 0.67187,2.14062 l -1.71875,0.125 q -0.14062,-1.28125 -0.95312,-1.9375 -0.79688,-0.67187 -2.35938,-0.67187 -1.625,0 -2.375,0.60937 -0.75,0.59375 -0.75,1.4375 0,0.73438 0.53125,1.20313 0.51563,0.46875 2.70313,0.96875 2.20312,0.5 3.01562,0.875 1.1875,0.54687 1.75,1.39062 0.57813,0.82813 0.57813,1.92188 0,1.09375 -0.625,2.0625 -0.625,0.95312 -1.79688,1.48437 -1.15625,0.53125 -2.60937,0.53125 -1.84375,0 -3.09375,-0.53125 -1.25,-0.54687 -1.96875,-1.625 -0.70313,-1.07812 -0.73438,-2.45312 z m 24.45502,3.15625 q -0.9375,0.79687 -1.79688,1.125 -0.85937,0.3125 -1.84375,0.3125 -1.60937,0 -2.48437,-0.78125 -0.875,-0.79688 -0.875,-2.03125 0,-0.73438 0.32812,-1.32813 0.32813,-0.59375 0.85938,-0.95312 0.53125,-0.35938 1.20312,-0.54688 0.5,-0.14062 1.48438,-0.25 2.03125,-0.25 2.98437,-0.57812 0,-0.34375 0,-0.4375 0,-1.01563 -0.46875,-1.4375 -0.64062,-0.5625 -1.90625,-0.5625 -1.17187,0 -1.73437,0.40625 -0.5625,0.40625 -0.82813,1.46875 l -1.64062,-0.23438 q 0.23437,-1.04687 0.73437,-1.6875 0.51563,-0.64062 1.46875,-0.98437 0.96875,-0.35938 2.25,-0.35938 1.26563,0 2.04688,0.29688 0.78125,0.29687 1.15625,0.75 0.375,0.45312 0.51562,1.14062 0.0937,0.42188 0.0937,1.53125 v 2.23438 q 0,2.32812 0.0937,2.95312 0.10938,0.60938 0.4375,1.17188 h -1.75 q -0.26562,-0.51563 -0.32812,-1.21875 z m -0.14063,-3.71875 q -0.90625,0.35937 -2.73437,0.625 -1.03125,0.14062 -1.45313,0.32812 -0.42187,0.1875 -0.65625,0.54688 -0.23437,0.35937 -0.23437,0.79687 0,0.67188 0.5,1.125 0.51562,0.4375 1.48437,0.4375 0.96875,0 1.71875,-0.42187 0.75,-0.4375 1.10938,-1.15625 0.26562,-0.57813 0.26562,-1.67188 z m 9.90696,4.9375 h -1.67188 V 376.8345 q -0.59375,0.57813 -1.57812,1.15625 -0.98438,0.5625 -1.76563,0.85938 v -1.625 q 1.40625,-0.65625 2.45313,-1.59375 1.04687,-0.9375 1.48437,-1.8125 h 1.07813 z"
       id="path969"
       inkscape:connector-curvature="0"
       style="fill:#000000;fill-rule:nonzero" />
  </g>
</svg>
