<?xml version="1.0" encoding="UTF-8" standalone="no"?>
<svg
   xmlns:dc="http://purl.org/dc/elements/1.1/"
   xmlns:cc="http://creativecommons.org/ns#"
   xmlns:rdf="http://www.w3.org/1999/02/22-rdf-syntax-ns#"
   xmlns:svg="http://www.w3.org/2000/svg"
   xmlns="http://www.w3.org/2000/svg"
   xmlns:sodipodi="http://sodipodi.sourceforge.net/DTD/sodipodi-0.dtd"
   xmlns:inkscape="http://www.inkscape.org/namespaces/inkscape"
   version="1.1"
   viewBox="0 0 547.03411 360"
   stroke-miterlimit="10"
   id="svg653"
   sodipodi:docname="wiscp6.svg"
   width="410.27557pt"
   height="270pt"
   style="fill:none;stroke:none;stroke-linecap:square;stroke-miterlimit:10"
   inkscape:version="0.92.1 r15371">
  <metadata
     id="metadata659">
    <rdf:RDF>
      <cc:Work
         rdf:about="">
        <dc:format>image/svg+xml</dc:format>
        <dc:type
           rdf:resource="http://purl.org/dc/dcmitype/StillImage" />
        <dc:title></dc:title>
      </cc:Work>
    </rdf:RDF>
  </metadata>
  <defs
     id="defs657" />
  <sodipodi:namedview
     pagecolor="#ffffff"
     bordercolor="#666666"
     borderopacity="1"
     objecttolerance="10"
     gridtolerance="10"
     guidetolerance="10"
     inkscape:pageopacity="0"
     inkscape:pageshadow="2"
     inkscape:window-width="1535"
     inkscape:window-height="1176"
     id="namedview655"
     showgrid="false"
     units="pt"
     fit-margin-top="10"
     fit-margin-left="10"
     fit-margin-right="10"
     fit-margin-bottom="10"
     inkscape:zoom="1.5266136"
     inkscape:cx="273.51705"
     inkscape:cy="179.99999"
     inkscape:window-x="65"
     inkscape:window-y="24"
     inkscape:window-maximized="1"
     inkscape:current-layer="svg653" />
  <clipPath
     id="p.0">
    <path
       d="M 0,0 H 650.4593 V 416.66666 H 0 Z"
       id="path510"
       inkscape:connector-curvature="0"
       style="clip-rule:nonzero" />
  </clipPath>
  <g
     clip-path="url(#p.0)"
     id="g651"
     transform="matrix(0.8,0,0,0.8,13.333333,13.333333)">
    <path
       d="M 0,0 H 650.4593 V 416.66666 H 0 Z"
       id="path513"
       inkscape:connector-curvature="0"
       style="fill:#000000;fill-opacity:0;fill-rule:evenodd" />
    <path
       d="m 213.22966,52.333492 v 0 c 0,-4.418366 3.58179,-8.00016 8.00015,-8.00016 h 223.99968 c 2.1218,0 4.15665,0.842873 5.65699,2.343193 1.5003,1.50032 2.34317,3.535194 2.34317,5.656967 v 31.999683 c 0,4.418366 -3.58179,8.00016 -8.00016,8.00016 H 221.22981 v 0 c -4.41836,0 -8.00015,-3.581795 -8.00015,-8.00016 z"
       id="path515"
       inkscape:connector-curvature="0"
       style="fill:#cfe2f3;fill-rule:evenodd" />
    <path
       d="m 213.22966,52.333492 v 0 c 0,-4.418366 3.58179,-8.00016 8.00015,-8.00016 h 223.99968 c 2.1218,0 4.15665,0.842873 5.65699,2.343193 1.5003,1.50032 2.34317,3.535194 2.34317,5.656967 v 31.999683 c 0,4.418366 -3.58179,8.00016 -8.00016,8.00016 H 221.22981 v 0 c -4.41836,0 -8.00015,-3.581795 -8.00015,-8.00016 z"
       id="path517"
       inkscape:connector-curvature="0"
       style="fill-rule:evenodd;stroke:#073763;stroke-width:2;stroke-linecap:butt;stroke-linejoin:round" />
    <path
       d="m 271.95825,74.034584 q -0.9375,0.796875 -1.79687,1.125 -0.85938,0.3125 -1.84375,0.3125 -1.60938,0 -2.48438,-0.78125 -0.875,-0.796875 -0.875,-2.03125 0,-0.734375 0.32813,-1.328125 0.32812,-0.59375 0.85937,-0.953125 0.53125,-0.359375 1.20313,-0.546875 0.5,-0.140625 1.48437,-0.25 2.03125,-0.25 2.98438,-0.578125 0,-0.34375 0,-0.4375 0,-1.015625 -0.46875,-1.4375 -0.64063,-0.5625 -1.90625,-0.5625 -1.17188,0 -1.73438,0.40625 -0.5625,0.40625 -0.82812,1.46875 l -1.64063,-0.234375 q 0.23438,-1.046875 0.73438,-1.6875 0.51562,-0.640625 1.46875,-0.984375 0.96875,-0.359375 2.25,-0.359375 1.26562,0 2.04687,0.296875 0.78125,0.296875 1.15625,0.75 0.375,0.453125 0.51563,1.140625 0.0937,0.421875 0.0937,1.53125 v 2.234375 q 0,2.328125 0.0937,2.953125 0.10937,0.609375 0.4375,1.171875 h -1.75 q -0.26563,-0.515625 -0.32813,-1.21875 z m -0.14062,-3.71875 q -0.90625,0.359375 -2.73438,0.625 -1.03125,0.140625 -1.45312,0.328125 -0.42188,0.1875 -0.65625,0.546875 -0.23438,0.359375 -0.23438,0.796875 0,0.671875 0.5,1.125 0.51563,0.4375 1.48438,0.4375 0.96875,0 1.71875,-0.421875 0.75,-0.4375 1.10937,-1.15625 0.26563,-0.578125 0.26563,-1.671875 z m 10.46948,4.9375 v -1.25 q -0.9375,1.46875 -2.75,1.46875 -1.17188,0 -2.17188,-0.640625 -0.98437,-0.65625 -1.53125,-1.8125 -0.53125,-1.171875 -0.53125,-2.6875 0,-1.46875 0.48438,-2.671875 0.5,-1.203125 1.46875,-1.84375 0.98437,-0.640625 2.20312,-0.640625 0.89063,0 1.57813,0.375 0.70312,0.375 1.14062,0.984375 V 61.65958 h 1.65625 v 13.593754 z m -5.28125,-4.921875 q 0,1.890625 0.79687,2.828125 0.8125,0.9375 1.89063,0.9375 1.09375,0 1.85937,-0.890625 0.76563,-0.890625 0.76563,-2.734375 0,-2.015625 -0.78125,-2.953125 -0.78125,-0.953125 -1.92188,-0.953125 -1.10937,0 -1.85937,0.90625 -0.75,0.90625 -0.75,2.859375 z m 15.65695,4.921875 v -1.25 q -0.9375,1.46875 -2.75,1.46875 -1.17188,0 -2.17188,-0.640625 -0.98437,-0.65625 -1.53125,-1.8125 -0.53125,-1.171875 -0.53125,-2.6875 0,-1.46875 0.48438,-2.671875 0.5,-1.203125 1.46875,-1.84375 0.98437,-0.640625 2.20312,-0.640625 0.89063,0 1.57813,0.375 0.70312,0.375 1.14062,0.984375 V 61.65958 h 1.65625 v 13.593754 z m -5.28125,-4.921875 q 0,1.890625 0.79687,2.828125 0.8125,0.9375 1.89063,0.9375 1.09375,0 1.85937,-0.890625 0.76563,-0.890625 0.76563,-2.734375 0,-2.015625 -0.78125,-2.953125 -0.78125,-0.953125 -1.92188,-0.953125 -1.10937,0 -1.85937,0.90625 -0.75,0.90625 -0.75,2.859375 z m 12.45386,8.921875 q -1.375,-1.75 -2.32813,-4.078125 -0.95312,-2.34375 -0.95312,-4.84375 0,-2.21875 0.70312,-4.234375 0.84375,-2.343754 2.57813,-4.671879 h 1.20312 q -1.125,1.921875 -1.48437,2.750004 -0.5625,1.28125 -0.89063,2.671875 -0.40625,1.734375 -0.40625,3.484375 0,4.46875 2.78125,8.921875 z m 9.46267,-5.21875 q -0.9375,0.796875 -1.79687,1.125 -0.85938,0.3125 -1.84375,0.3125 -1.60938,0 -2.48438,-0.78125 -0.875,-0.796875 -0.875,-2.03125 0,-0.734375 0.32813,-1.328125 0.32812,-0.59375 0.85937,-0.953125 0.53125,-0.359375 1.20313,-0.546875 0.5,-0.140625 1.48437,-0.25 2.03125,-0.25 2.98438,-0.578125 0,-0.34375 0,-0.4375 0,-1.015625 -0.46875,-1.4375 -0.64063,-0.5625 -1.90625,-0.5625 -1.17188,0 -1.73438,0.40625 -0.5625,0.40625 -0.82812,1.46875 l -1.64063,-0.234375 q 0.23438,-1.046875 0.73438,-1.6875 0.51562,-0.640625 1.46875,-0.984375 0.96875,-0.359375 2.25,-0.359375 1.26562,0 2.04687,0.296875 0.78125,0.296875 1.15625,0.75 0.375,0.453125 0.51563,1.140625 0.0937,0.421875 0.0937,1.53125 v 2.234375 q 0,2.328125 0.0937,2.953125 0.10937,0.609375 0.4375,1.171875 h -1.75 q -0.26563,-0.515625 -0.32813,-1.21875 z m -0.14062,-3.71875 q -0.90625,0.359375 -2.73438,0.625 -1.03125,0.140625 -1.45312,0.328125 -0.42188,0.1875 -0.65625,0.546875 -0.23438,0.359375 -0.23438,0.796875 0,0.671875 0.5,1.125 0.51563,0.4375 1.48438,0.4375 0.96875,0 1.71875,-0.421875 0.75,-0.4375 1.10937,-1.15625 0.26563,-0.578125 0.26563,-1.671875 z m 10.46945,4.9375 v -1.25 q -0.9375,1.46875 -2.75,1.46875 -1.17188,0 -2.17188,-0.640625 -0.98437,-0.65625 -1.53125,-1.8125 -0.53125,-1.171875 -0.53125,-2.6875 0,-1.46875 0.48438,-2.671875 0.5,-1.203125 1.46875,-1.84375 0.98437,-0.640625 2.20312,-0.640625 0.89063,0 1.57813,0.375 0.70312,0.375 1.14062,0.984375 V 61.65958 h 1.65625 v 13.593754 z m -5.28125,-4.921875 q 0,1.890625 0.79687,2.828125 0.8125,0.9375 1.89063,0.9375 1.09375,0 1.85937,-0.890625 0.76563,-0.890625 0.76563,-2.734375 0,-2.015625 -0.78125,-2.953125 -0.78125,-0.953125 -1.92188,-0.953125 -1.10937,0 -1.85937,0.90625 -0.75,0.90625 -0.75,2.859375 z m 15.65698,4.921875 v -1.25 q -0.9375,1.46875 -2.75,1.46875 -1.17187,0 -2.17187,-0.640625 -0.98438,-0.65625 -1.53125,-1.8125 -0.53125,-1.171875 -0.53125,-2.6875 0,-1.46875 0.48437,-2.671875 0.5,-1.203125 1.46875,-1.84375 0.98438,-0.640625 2.20313,-0.640625 0.89062,0 1.57812,0.375 0.70313,0.375 1.14063,0.984375 V 61.65958 h 1.65625 v 13.593754 z m -5.28125,-4.921875 q 0,1.890625 0.79688,2.828125 0.8125,0.9375 1.89062,0.9375 1.09375,0 1.85938,-0.890625 0.76562,-0.890625 0.76562,-2.734375 0,-2.015625 -0.78125,-2.953125 -0.78125,-0.953125 -1.92187,-0.953125 -1.10938,0 -1.85938,0.90625 -0.75,0.90625 -0.75,2.859375 z m 12.45383,8.921875 q -1.375,-1.75 -2.32813,-4.078125 -0.95312,-2.34375 -0.95312,-4.84375 0,-2.21875 0.70312,-4.234375 0.84375,-2.343754 2.57813,-4.671879 h 1.20312 q -1.125,1.921875 -1.48437,2.750004 -0.5625,1.28125 -0.89063,2.671875 -0.40625,1.734375 -0.40625,3.484375 0,4.46875 2.78125,8.921875 z m 9.46268,-5.21875 q -0.9375,0.796875 -1.79688,1.125 -0.85937,0.3125 -1.84375,0.3125 -1.60937,0 -2.48437,-0.78125 -0.875,-0.796875 -0.875,-2.03125 0,-0.734375 0.32812,-1.328125 0.32813,-0.59375 0.85938,-0.953125 0.53125,-0.359375 1.20312,-0.546875 0.5,-0.140625 1.48438,-0.25 2.03125,-0.25 2.98437,-0.578125 0,-0.34375 0,-0.4375 0,-1.015625 -0.46875,-1.4375 -0.64062,-0.5625 -1.90625,-0.5625 -1.17187,0 -1.73437,0.40625 -0.5625,0.40625 -0.82813,1.46875 l -1.64062,-0.234375 q 0.23437,-1.046875 0.73437,-1.6875 0.51563,-0.640625 1.46875,-0.984375 0.96875,-0.359375 2.25,-0.359375 1.26563,0 2.04688,0.296875 0.78125,0.296875 1.15625,0.75 0.375,0.453125 0.51562,1.140625 0.0937,0.421875 0.0937,1.53125 v 2.234375 q 0,2.328125 0.0937,2.953125 0.10938,0.609375 0.4375,1.171875 h -1.75 q -0.26562,-0.515625 -0.32812,-1.21875 z m -0.14063,-3.71875 q -0.90625,0.359375 -2.73437,0.625 -1.03125,0.140625 -1.45313,0.328125 -0.42187,0.1875 -0.65625,0.546875 -0.23437,0.359375 -0.23437,0.796875 0,0.671875 0.5,1.125 0.51562,0.4375 1.48437,0.4375 0.96875,0 1.71875,-0.421875 0.75,-0.4375 1.10938,-1.15625 0.26562,-0.578125 0.26562,-1.671875 z m 4.51636,4.9375 v -1.90625 h 1.90625 v 1.90625 q 0,1.046875 -0.375,1.6875 -0.375,0.65625 -1.17188,1 l -0.46875,-0.71875 q 0.53125,-0.21875 0.78125,-0.671875 0.25,-0.453125 0.28125,-1.296875 z m 11.47598,0 h -1.54687 V 61.65958 h 1.65625 v 4.843754 q 1.0625,-1.328125 2.70312,-1.328125 0.90625,0 1.71875,0.375 0.8125,0.359375 1.32813,1.03125 0.53125,0.65625 0.82812,1.59375 0.29688,0.9375 0.29688,2 0,2.53125 -1.25,3.921875 -1.25,1.375 -3,1.375 -1.75,0 -2.73438,-1.453125 z m -0.0156,-5 q 0,1.765625 0.46875,2.5625 0.79687,1.28125 2.14062,1.28125 1.09375,0 1.89063,-0.9375 0.79687,-0.953125 0.79687,-2.84375 0,-1.921875 -0.76562,-2.84375 -0.76563,-0.921875 -1.84375,-0.921875 -1.09375,0 -1.89063,0.953125 -0.79687,0.953125 -0.79687,2.75 z m 9.9382,9 h -1.1875 q 2.76562,-4.453125 2.76562,-8.921875 0,-1.734375 -0.39062,-3.453125 -0.32813,-1.390625 -0.89063,-2.671875 -0.35937,-0.843754 -1.48437,-2.781254 h 1.1875 q 1.75,2.328125 2.57812,4.671879 0.71875,2.015625 0.71875,4.234375 0,2.5 -0.96875,4.84375 -0.95312,2.328125 -2.32812,4.078125 z m 5.55643,-4 v -1.90625 h 1.90625 v 1.90625 q 0,1.046875 -0.375,1.6875 -0.375,0.65625 -1.17188,1 l -0.46875,-0.71875 q 0.53125,-0.21875 0.78125,-0.671875 0.25,-0.453125 0.28125,-1.296875 z m 16.3666,-3.609375 1.64063,0.21875 q -0.26563,1.6875 -1.375,2.65625 -1.10938,0.953125 -2.73438,0.953125 -2.01562,0 -3.25,-1.3125 -1.21875,-1.328125 -1.21875,-3.796875 0,-1.59375 0.51563,-2.78125 0.53125,-1.203125 1.60937,-1.796875 1.09375,-0.609375 2.35938,-0.609375 1.60937,0 2.625,0.8125 1.01562,0.8125 1.3125,2.3125 l -1.625,0.25 q -0.23438,-1 -0.82813,-1.5 -0.59375,-0.5 -1.42187,-0.5 -1.26563,0 -2.0625,0.90625 -0.78125,0.90625 -0.78125,2.859375 0,1.984375 0.76562,2.890625 0.76563,0.890625 1.98438,0.890625 0.98437,0 1.64062,-0.59375 0.65625,-0.609375 0.84375,-1.859375 z m 3.98438,7.609375 h -1.1875 q 2.76562,-4.453125 2.76562,-8.921875 0,-1.734375 -0.39062,-3.453125 -0.32813,-1.390625 -0.89063,-2.671875 -0.35937,-0.843754 -1.48437,-2.781254 h 1.1875 q 1.75,2.328125 2.57812,4.671879 0.71875,2.015625 0.71875,4.234375 0,2.5 -0.96875,4.84375 -0.95312,2.328125 -2.32812,4.078125 z"
       id="path519"
       inkscape:connector-curvature="0"
       style="fill:#000000;fill-rule:nonzero" />
    <path
       d="M 333.22964,92.333336 165.22966,148.33333"
       id="path521"
       inkscape:connector-curvature="0"
       style="fill:#000000;fill-opacity:0;fill-rule:evenodd" />
    <path
       d="M 333.22964,92.333336 176.61386,144.53861"
       id="path523"
       inkscape:connector-curvature="0"
       style="fill-rule:evenodd;stroke:#073763;stroke-width:2;stroke-linecap:butt;stroke-linejoin:round" />
    <path
       d="m 175.56921,141.40466 -7.5658,6.00409 9.65509,0.26379 z"
       id="path525"
       inkscape:connector-curvature="0"
       style="fill:#073763;fill-rule:evenodd;stroke:#073763;stroke-width:2;stroke-linecap:butt" />
    <path
       d="m 325.22964,92.333336 184,55.999994"
       id="path527"
       inkscape:connector-curvature="0"
       style="fill:#000000;fill-opacity:0;fill-rule:evenodd" />
    <path
       d="M 325.22964,92.333336 497.7496,144.83939"
       id="path529"
       inkscape:connector-curvature="0"
       style="fill-rule:evenodd;stroke:#073763;stroke-width:2;stroke-linecap:butt;stroke-linejoin:round" />
    <path
       d="m 496.78772,147.99973 9.64481,-0.51768 -7.7211,-5.80298 z"
       id="path531"
       inkscape:connector-curvature="0"
       style="fill:#073763;fill-rule:evenodd;stroke:#073763;stroke-width:2;stroke-linecap:butt" />
    <path
       d="m 397.22964,156.3335 v 0 c 0,-4.41837 3.58182,-8.00017 8.00018,-8.00017 h 207.99966 c 2.12177,0 4.15668,0.84288 5.65699,2.3432 1.5003,1.50032 2.3432,3.53519 2.3432,5.65697 v 31.99968 c 0,4.41837 -3.58179,8.00015 -8.00019,8.00015 H 405.22982 c -4.41836,0 -8.00018,-3.58178 -8.00018,-8.00015 z"
       id="path533"
       inkscape:connector-curvature="0"
       style="fill:#cfe2f3;fill-rule:evenodd" />
    <path
       d="m 397.22964,156.3335 v 0 c 0,-4.41837 3.58182,-8.00017 8.00018,-8.00017 h 207.99966 c 2.12177,0 4.15668,0.84288 5.65699,2.3432 1.5003,1.50032 2.3432,3.53519 2.3432,5.65697 v 31.99968 c 0,4.41837 -3.58179,8.00015 -8.00019,8.00015 H 405.22982 c -4.41836,0 -8.00018,-3.58178 -8.00018,-8.00015 z"
       id="path535"
       inkscape:connector-curvature="0"
       style="fill-rule:evenodd;stroke:#073763;stroke-width:2;stroke-linecap:butt;stroke-linejoin:round" />
    <path
       d="m 430.33594,178.03458 q -0.9375,0.79687 -1.79688,1.125 -0.85937,0.3125 -1.84375,0.3125 -1.60937,0 -2.48437,-0.78125 -0.875,-0.79688 -0.875,-2.03125 0,-0.73438 0.32812,-1.32813 0.32813,-0.59375 0.85938,-0.95312 0.53125,-0.35938 1.20312,-0.54688 0.5,-0.14062 1.48438,-0.25 2.03125,-0.25 2.98437,-0.57812 0,-0.34375 0,-0.4375 0,-1.01563 -0.46875,-1.4375 -0.64062,-0.5625 -1.90625,-0.5625 -1.17187,0 -1.73437,0.40625 -0.5625,0.40625 -0.82813,1.46875 l -1.64062,-0.23438 q 0.23437,-1.04687 0.73437,-1.6875 0.51563,-0.64062 1.46875,-0.98437 0.96875,-0.35938 2.25,-0.35938 1.26563,0 2.04688,0.29688 0.78125,0.29687 1.15625,0.75 0.375,0.45312 0.51562,1.14062 0.0937,0.42188 0.0937,1.53125 v 2.23438 q 0,2.32812 0.0937,2.95312 0.10938,0.60938 0.4375,1.17188 h -1.75 q -0.26562,-0.51563 -0.32812,-1.21875 z m -0.14063,-3.71875 q -0.90625,0.35937 -2.73437,0.625 -1.03125,0.14062 -1.45313,0.32812 -0.42187,0.1875 -0.65625,0.54688 -0.23437,0.35937 -0.23437,0.79687 0,0.67188 0.5,1.125 0.51562,0.4375 1.48437,0.4375 0.96875,0 1.71875,-0.42187 0.75,-0.4375 1.10938,-1.15625 0.26562,-0.57813 0.26562,-1.67188 z m 10.46949,4.9375 v -1.25 q -0.9375,1.46875 -2.75,1.46875 -1.17188,0 -2.17188,-0.64063 -0.98437,-0.65625 -1.53125,-1.8125 -0.53125,-1.17187 -0.53125,-2.6875 0,-1.46875 0.48438,-2.67187 0.5,-1.20313 1.46875,-1.84375 0.98437,-0.64063 2.20312,-0.64063 0.89063,0 1.57813,0.375 0.70312,0.375 1.14062,0.98438 v -4.875 h 1.65625 v 13.59375 z m -5.28125,-4.92188 q 0,1.89063 0.79687,2.82813 0.8125,0.9375 1.89063,0.9375 1.09375,0 1.85937,-0.89063 0.76563,-0.89062 0.76563,-2.73437 0,-2.01563 -0.78125,-2.95313 -0.78125,-0.95312 -1.92188,-0.95312 -1.10937,0 -1.85937,0.90625 -0.75,0.90625 -0.75,2.85937 z m 15.65695,4.92188 v -1.25 q -0.9375,1.46875 -2.75,1.46875 -1.17188,0 -2.17188,-0.64063 -0.98437,-0.65625 -1.53125,-1.8125 -0.53125,-1.17187 -0.53125,-2.6875 0,-1.46875 0.48438,-2.67187 0.5,-1.20313 1.46875,-1.84375 0.98437,-0.64063 2.20312,-0.64063 0.89063,0 1.57813,0.375 0.70312,0.375 1.14062,0.98438 v -4.875 h 1.65625 v 13.59375 z m -5.28125,-4.92188 q 0,1.89063 0.79687,2.82813 0.8125,0.9375 1.89063,0.9375 1.09375,0 1.85937,-0.89063 0.76563,-0.89062 0.76563,-2.73437 0,-2.01563 -0.78125,-2.95313 -0.78125,-0.95312 -1.92188,-0.95312 -1.10937,0 -1.85937,0.90625 -0.75,0.90625 -0.75,2.85937 z m 12.45386,8.92188 q -1.375,-1.75 -2.32813,-4.07813 -0.95312,-2.34375 -0.95312,-4.84375 0,-2.21875 0.70312,-4.23437 0.84375,-2.34375 2.57813,-4.67188 h 1.20312 q -1.125,1.92188 -1.48437,2.75 -0.5625,1.28125 -0.89063,2.67188 -0.40625,1.73437 -0.40625,3.48437 0,4.46875 2.78125,8.92188 z m 2.63455,-8.375 1.6875,-0.14063 q 0.125,1.01563 0.5625,1.67188 0.4375,0.65625 1.35937,1.0625 0.9375,0.40625 2.09375,0.40625 1.03125,0 1.8125,-0.3125 0.79688,-0.3125 1.1875,-0.84375 0.39063,-0.53125 0.39063,-1.15625 0,-0.64063 -0.375,-1.10938 -0.375,-0.48437 -1.23438,-0.8125 -0.54687,-0.21875 -2.42187,-0.65625 -1.875,-0.45312 -2.625,-0.85937 -0.96875,-0.51563 -1.45313,-1.26563 -0.46875,-0.75 -0.46875,-1.6875 0,-1.03125 0.57813,-1.92187 0.59375,-0.90625 1.70312,-1.35938 1.125,-0.46875 2.5,-0.46875 1.51563,0 2.67188,0.48438 1.15625,0.48437 1.76562,1.4375 0.625,0.9375 0.67188,2.14062 l -1.71875,0.125 q -0.14063,-1.28125 -0.95313,-1.9375 -0.79687,-0.67187 -2.35937,-0.67187 -1.625,0 -2.375,0.60937 -0.75,0.59375 -0.75,1.4375 0,0.73438 0.53125,1.20313 0.51562,0.46875 2.70312,0.96875 2.20313,0.5 3.01563,0.875 1.1875,0.54687 1.75,1.39062 0.57812,0.82813 0.57812,1.92188 0,1.09375 -0.625,2.0625 -0.625,0.95312 -1.79687,1.48437 -1.15625,0.53125 -2.60938,0.53125 -1.84375,0 -3.09375,-0.53125 -1.25,-0.54687 -1.96875,-1.625 -0.70312,-1.07812 -0.73437,-2.45312 z m 16.0217,8.375 q -1.375,-1.75 -2.32813,-4.07813 -0.95312,-2.34375 -0.95312,-4.84375 0,-2.21875 0.70312,-4.23437 0.84375,-2.34375 2.57813,-4.67188 h 1.20312 q -1.125,1.92188 -1.48437,2.75 -0.5625,1.28125 -0.89063,2.67188 -0.40625,1.73437 -0.40625,3.48437 0,4.46875 2.78125,8.92188 z m 9.46267,-5.21875 q -0.9375,0.79687 -1.79687,1.125 -0.85938,0.3125 -1.84375,0.3125 -1.60938,0 -2.48438,-0.78125 -0.875,-0.79688 -0.875,-2.03125 0,-0.73438 0.32813,-1.32813 0.32812,-0.59375 0.85937,-0.95312 0.53125,-0.35938 1.20313,-0.54688 0.5,-0.14062 1.48437,-0.25 2.03125,-0.25 2.98438,-0.57812 0,-0.34375 0,-0.4375 0,-1.01563 -0.46875,-1.4375 -0.64063,-0.5625 -1.90625,-0.5625 -1.17188,0 -1.73438,0.40625 -0.5625,0.40625 -0.82812,1.46875 l -1.64063,-0.23438 q 0.23438,-1.04687 0.73438,-1.6875 0.51562,-0.64062 1.46875,-0.98437 0.96875,-0.35938 2.25,-0.35938 1.26562,0 2.04687,0.29688 0.78125,0.29687 1.15625,0.75 0.375,0.45312 0.51563,1.14062 0.0937,0.42188 0.0937,1.53125 v 2.23438 q 0,2.32812 0.0937,2.95312 0.10937,0.60938 0.4375,1.17188 h -1.75 q -0.26563,-0.51563 -0.32813,-1.21875 z m -0.14062,-3.71875 q -0.90625,0.35937 -2.73438,0.625 -1.03125,0.14062 -1.45312,0.32812 -0.42188,0.1875 -0.65625,0.54688 -0.23438,0.35937 -0.23438,0.79687 0,0.67188 0.5,1.125 0.51563,0.4375 1.48438,0.4375 0.96875,0 1.71875,-0.42187 0.75,-0.4375 1.10937,-1.15625 0.26563,-0.57813 0.26563,-1.67188 z m 10.46945,4.9375 v -1.25 q -0.9375,1.46875 -2.75,1.46875 -1.17187,0 -2.17187,-0.64063 -0.98438,-0.65625 -1.53125,-1.8125 -0.53125,-1.17187 -0.53125,-2.6875 0,-1.46875 0.48437,-2.67187 0.5,-1.20313 1.46875,-1.84375 0.98438,-0.64063 2.20313,-0.64063 0.89062,0 1.57812,0.375 0.70313,0.375 1.14063,0.98438 v -4.875 h 1.65625 v 13.59375 z m -5.28125,-4.92188 q 0,1.89063 0.79688,2.82813 0.8125,0.9375 1.89062,0.9375 1.09375,0 1.85938,-0.89063 0.76562,-0.89062 0.76562,-2.73437 0,-2.01563 -0.78125,-2.95313 -0.78125,-0.95312 -1.92187,-0.95312 -1.10938,0 -1.85938,0.90625 -0.75,0.90625 -0.75,2.85937 z m 15.65698,4.92188 v -1.25 q -0.9375,1.46875 -2.75,1.46875 -1.17187,0 -2.17187,-0.64063 -0.98438,-0.65625 -1.53125,-1.8125 -0.53125,-1.17187 -0.53125,-2.6875 0,-1.46875 0.48437,-2.67187 0.5,-1.20313 1.46875,-1.84375 0.98438,-0.64063 2.20313,-0.64063 0.89062,0 1.57812,0.375 0.70313,0.375 1.14063,0.98438 v -4.875 h 1.65625 v 13.59375 z m -5.28125,-4.92188 q 0,1.89063 0.79688,2.82813 0.8125,0.9375 1.89062,0.9375 1.09375,0 1.85938,-0.89063 0.76562,-0.89062 0.76562,-2.73437 0,-2.01563 -0.78125,-2.95313 -0.78125,-0.95312 -1.92187,-0.95312 -1.10938,0 -1.85938,0.90625 -0.75,0.90625 -0.75,2.85937 z m 12.45383,8.92188 q -1.375,-1.75 -2.32813,-4.07813 -0.95312,-2.34375 -0.95312,-4.84375 0,-2.21875 0.70312,-4.23437 0.84375,-2.34375 2.57813,-4.67188 h 1.20312 q -1.125,1.92188 -1.48437,2.75 -0.5625,1.28125 -0.89063,2.67188 -0.40625,1.73437 -0.40625,3.48437 0,4.46875 2.78125,8.92188 z m 9.46271,-5.21875 q -0.9375,0.79687 -1.79688,1.125 -0.85937,0.3125 -1.84375,0.3125 -1.60937,0 -2.48437,-0.78125 -0.875,-0.79688 -0.875,-2.03125 0,-0.73438 0.32812,-1.32813 0.32813,-0.59375 0.85938,-0.95312 0.53125,-0.35938 1.20312,-0.54688 0.5,-0.14062 1.48438,-0.25 2.03125,-0.25 2.98437,-0.57812 0,-0.34375 0,-0.4375 0,-1.01563 -0.46875,-1.4375 -0.64062,-0.5625 -1.90625,-0.5625 -1.17187,0 -1.73437,0.40625 -0.5625,0.40625 -0.82813,1.46875 l -1.64062,-0.23438 q 0.23437,-1.04687 0.73437,-1.6875 0.51563,-0.64062 1.46875,-0.98437 0.96875,-0.35938 2.25,-0.35938 1.26563,0 2.04688,0.29688 0.78125,0.29687 1.15625,0.75 0.375,0.45312 0.51562,1.14062 0.0937,0.42188 0.0937,1.53125 v 2.23438 q 0,2.32812 0.0937,2.95312 0.10938,0.60938 0.4375,1.17188 H 524 q -0.26562,-0.51563 -0.32812,-1.21875 z m -0.14063,-3.71875 q -0.90625,0.35937 -2.73437,0.625 -1.03125,0.14062 -1.45313,0.32812 -0.42187,0.1875 -0.65625,0.54688 -0.23437,0.35937 -0.23437,0.79687 0,0.67188 0.5,1.125 0.51562,0.4375 1.48437,0.4375 0.96875,0 1.71875,-0.42187 0.75,-0.4375 1.10938,-1.15625 0.26562,-0.57813 0.26562,-1.67188 z m 9.90692,4.9375 H 531.7663 V 168.6127 q -0.59375,0.57813 -1.57813,1.15625 -0.98437,0.5625 -1.76562,0.85938 v -1.625 q 1.40625,-0.65625 2.45312,-1.59375 1.04688,-0.9375 1.48438,-1.8125 h 1.07812 z m 4.98511,0 v -1.90625 h 1.90625 v 1.90625 q 0,1.04687 -0.375,1.6875 -0.375,0.65625 -1.17188,1 l -0.46875,-0.71875 q 0.53125,-0.21875 0.78125,-0.67188 0.25,-0.45312 0.28125,-1.29687 z m 11.47601,0 h -1.54687 v -13.59375 h 1.65625 v 4.84375 q 1.0625,-1.32813 2.70312,-1.32813 0.90625,0 1.71875,0.375 0.8125,0.35938 1.32813,1.03125 0.53125,0.65625 0.82812,1.59375 0.29688,0.9375 0.29688,2 0,2.53125 -1.25,3.92188 -1.25,1.375 -3,1.375 -1.75,0 -2.73438,-1.45313 z m -0.0156,-5 q 0,1.76562 0.46875,2.5625 0.79687,1.28125 2.14062,1.28125 1.09375,0 1.89063,-0.9375 0.79687,-0.95313 0.79687,-2.84375 0,-1.92188 -0.76562,-2.84375 -0.76563,-0.92188 -1.84375,-0.92188 -1.09375,0 -1.89063,0.95313 -0.79687,0.95312 -0.79687,2.75 z m 9.93817,9 h -1.1875 q 2.76562,-4.45313 2.76562,-8.92188 0,-1.73437 -0.39062,-3.45312 -0.32813,-1.39063 -0.89063,-2.67188 -0.35937,-0.84375 -1.48437,-2.78125 h 1.1875 q 1.75,2.32813 2.57812,4.67188 0.71875,2.01562 0.71875,4.23437 0,2.5 -0.96875,4.84375 -0.95312,2.32813 -2.32812,4.07813 z m 6.21271,0 h -1.1875 q 2.76562,-4.45313 2.76562,-8.92188 0,-1.73437 -0.39062,-3.45312 -0.32813,-1.39063 -0.89063,-2.67188 -0.35937,-0.84375 -1.48437,-2.78125 h 1.1875 q 1.75,2.32813 2.57812,4.67188 0.71875,2.01562 0.71875,4.23437 0,2.5 -0.96875,4.84375 -0.95312,2.32813 -2.32812,4.07813 z m 5.55639,-4 v -1.90625 h 1.90625 v 1.90625 q 0,1.04687 -0.375,1.6875 -0.375,0.65625 -1.17187,1 l -0.46875,-0.71875 q 0.53125,-0.21875 0.78125,-0.67188 0.25,-0.45312 0.28125,-1.29687 z m 16.36664,-3.60938 1.64063,0.21875 q -0.26563,1.6875 -1.375,2.65625 -1.10938,0.95313 -2.73438,0.95313 -2.01562,0 -3.25,-1.3125 -1.21875,-1.32813 -1.21875,-3.79688 0,-1.59375 0.51563,-2.78125 0.53125,-1.20312 1.60937,-1.79687 1.09375,-0.60938 2.35938,-0.60938 1.60937,0 2.625,0.8125 1.01562,0.8125 1.3125,2.3125 l -1.625,0.25 q -0.23438,-1 -0.82813,-1.5 -0.59375,-0.5 -1.42187,-0.5 -1.26563,0 -2.0625,0.90625 -0.78125,0.90625 -0.78125,2.85938 0,1.98437 0.76562,2.89062 0.76563,0.89063 1.98438,0.89063 0.98437,0 1.64062,-0.59375 0.65625,-0.60938 0.84375,-1.85938 z m 3.98438,7.60938 h -1.1875 q 2.76562,-4.45313 2.76562,-8.92188 0,-1.73437 -0.39062,-3.45312 -0.32813,-1.39063 -0.89063,-2.67188 -0.35937,-0.84375 -1.48437,-2.78125 h 1.1875 q 1.75,2.32813 2.57812,4.67188 0.71875,2.01562 0.71875,4.23437 0,2.5 -0.96875,4.84375 -0.95312,2.32813 -2.32812,4.07813 z"
       id="path537"
       inkscape:connector-curvature="0"
       style="fill:#000000;fill-rule:nonzero" />
    <path
       d="m 397.22964,244.3335 v 0 c 0,-4.41837 3.58182,-8.00017 8.00018,-8.00017 h 207.99966 c 2.12177,0 4.15668,0.84288 5.65699,2.3432 1.5003,1.50032 2.3432,3.53519 2.3432,5.65697 v 31.99966 c 0,4.41837 -3.58179,8.00019 -8.00019,8.00019 H 405.22982 c -4.41836,0 -8.00018,-3.58182 -8.00018,-8.00019 z"
       id="path539"
       inkscape:connector-curvature="0"
       style="fill:#cfe2f3;fill-rule:evenodd" />
    <path
       d="m 397.22964,244.3335 v 0 c 0,-4.41837 3.58182,-8.00017 8.00018,-8.00017 h 207.99966 c 2.12177,0 4.15668,0.84288 5.65699,2.3432 1.5003,1.50032 2.3432,3.53519 2.3432,5.65697 v 31.99966 c 0,4.41837 -3.58179,8.00019 -8.00019,8.00019 H 405.22982 c -4.41836,0 -8.00018,-3.58182 -8.00018,-8.00019 z"
       id="path541"
       inkscape:connector-curvature="0"
       style="fill-rule:evenodd;stroke:#073763;stroke-width:2;stroke-linecap:butt;stroke-linejoin:round" />
    <path
       d="m 423.5078,262.87833 1.6875,-0.14063 q 0.125,1.01563 0.5625,1.67188 0.4375,0.65625 1.35937,1.0625 0.9375,0.40625 2.09375,0.40625 1.03125,0 1.8125,-0.3125 0.79688,-0.3125 1.1875,-0.84375 0.39063,-0.53125 0.39063,-1.15625 0,-0.64063 -0.375,-1.10938 -0.375,-0.48437 -1.23438,-0.8125 -0.54687,-0.21875 -2.42187,-0.65625 -1.875,-0.45312 -2.625,-0.85937 -0.96875,-0.51563 -1.45313,-1.26563 -0.46875,-0.75 -0.46875,-1.6875 0,-1.03125 0.57813,-1.92187 0.59375,-0.90625 1.70312,-1.35938 1.125,-0.46875 2.5,-0.46875 1.51563,0 2.67188,0.48438 1.15625,0.48437 1.76562,1.4375 0.625,0.9375 0.67188,2.14062 l -1.71875,0.125 q -0.14063,-1.28125 -0.95313,-1.9375 -0.79687,-0.67187 -2.35937,-0.67187 -1.625,0 -2.375,0.60937 -0.75,0.59375 -0.75,1.4375 0,0.73438 0.53125,1.20313 0.51562,0.46875 2.70312,0.96875 2.20313,0.5 3.01563,0.875 1.1875,0.54687 1.75,1.39062 0.57812,0.82813 0.57812,1.92188 0,1.09375 -0.625,2.0625 -0.625,0.95312 -1.79687,1.48437 -1.15625,0.53125 -2.60938,0.53125 -1.84375,0 -3.09375,-0.53125 -1.25,-0.54687 -1.96875,-1.625 -0.70312,-1.07812 -0.73437,-2.45312 z m 16.0217,8.375 q -1.375,-1.75 -2.32813,-4.07813 -0.95312,-2.34375 -0.95312,-4.84375 0,-2.21875 0.70312,-4.23437 0.84375,-2.34375 2.57813,-4.67188 h 1.20312 q -1.125,1.92188 -1.48437,2.75 -0.5625,1.28125 -0.89063,2.67188 -0.40625,1.73437 -0.40625,3.48437 0,4.46875 2.78125,8.92188 z m 9.46267,-5.21875 q -0.9375,0.79687 -1.79687,1.125 -0.85938,0.3125 -1.84375,0.3125 -1.60938,0 -2.48438,-0.78125 -0.875,-0.79688 -0.875,-2.03125 0,-0.73438 0.32813,-1.32813 0.32812,-0.59375 0.85937,-0.95312 0.53125,-0.35938 1.20313,-0.54688 0.5,-0.14062 1.48437,-0.25 2.03125,-0.25 2.98438,-0.57812 0,-0.34375 0,-0.4375 0,-1.01563 -0.46875,-1.4375 -0.64063,-0.5625 -1.90625,-0.5625 -1.17188,0 -1.73438,0.40625 -0.5625,0.40625 -0.82812,1.46875 l -1.64063,-0.23438 q 0.23438,-1.04687 0.73438,-1.6875 0.51562,-0.64062 1.46875,-0.98437 0.96875,-0.35938 2.25,-0.35938 1.26562,0 2.04687,0.29688 0.78125,0.29687 1.15625,0.75 0.375,0.45312 0.51563,1.14062 0.0937,0.42188 0.0937,1.53125 v 2.23438 q 0,2.32812 0.0937,2.95312 0.10937,0.60938 0.4375,1.17188 h -1.75 q -0.26563,-0.51563 -0.32813,-1.21875 z m -0.14062,-3.71875 q -0.90625,0.35937 -2.73438,0.625 -1.03125,0.14062 -1.45312,0.32812 -0.42188,0.1875 -0.65625,0.54688 -0.23438,0.35937 -0.23438,0.79687 0,0.67188 0.5,1.125 0.51563,0.4375 1.48438,0.4375 0.96875,0 1.71875,-0.42187 0.75,-0.4375 1.10937,-1.15625 0.26563,-0.57813 0.26563,-1.67188 z m 10.46948,4.9375 v -1.25 q -0.9375,1.46875 -2.75,1.46875 -1.17187,0 -2.17187,-0.64063 -0.98438,-0.65625 -1.53125,-1.8125 -0.53125,-1.17187 -0.53125,-2.6875 0,-1.46875 0.48437,-2.67187 0.5,-1.20313 1.46875,-1.84375 0.98438,-0.64063 2.20313,-0.64063 0.89062,0 1.57812,0.375 0.70313,0.375 1.14063,0.98438 v -4.875 h 1.65625 v 13.59375 z m -5.28125,-4.92188 q 0,1.89063 0.79688,2.82813 0.8125,0.9375 1.89062,0.9375 1.09375,0 1.85938,-0.89063 0.76562,-0.89062 0.76562,-2.73437 0,-2.01563 -0.78125,-2.95313 -0.78125,-0.95312 -1.92187,-0.95312 -1.10938,0 -1.85938,0.90625 -0.75,0.90625 -0.75,2.85937 z m 15.65695,4.92188 v -1.25 q -0.9375,1.46875 -2.75,1.46875 -1.17187,0 -2.17187,-0.64063 -0.98438,-0.65625 -1.53125,-1.8125 -0.53125,-1.17187 -0.53125,-2.6875 0,-1.46875 0.48437,-2.67187 0.5,-1.20313 1.46875,-1.84375 0.98438,-0.64063 2.20313,-0.64063 0.89062,0 1.57812,0.375 0.70313,0.375 1.14063,0.98438 v -4.875 h 1.65625 v 13.59375 z m -5.28125,-4.92188 q 0,1.89063 0.79688,2.82813 0.8125,0.9375 1.89062,0.9375 1.09375,0 1.85938,-0.89063 0.76562,-0.89062 0.76562,-2.73437 0,-2.01563 -0.78125,-2.95313 -0.78125,-0.95312 -1.92187,-0.95312 -1.10938,0 -1.85938,0.90625 -0.75,0.90625 -0.75,2.85937 z m 12.45386,8.92188 q -1.375,-1.75 -2.32812,-4.07813 -0.95313,-2.34375 -0.95313,-4.84375 0,-2.21875 0.70313,-4.23437 0.84375,-2.34375 2.57812,-4.67188 h 1.20313 q -1.125,1.92188 -1.48438,2.75 -0.5625,1.28125 -0.89062,2.67188 -0.40625,1.73437 -0.40625,3.48437 0,4.46875 2.78125,8.92188 z m 9.46268,-5.21875 q -0.9375,0.79687 -1.79688,1.125 -0.85937,0.3125 -1.84375,0.3125 -1.60937,0 -2.48437,-0.78125 -0.875,-0.79688 -0.875,-2.03125 0,-0.73438 0.32812,-1.32813 0.32813,-0.59375 0.85938,-0.95312 0.53125,-0.35938 1.20312,-0.54688 0.5,-0.14062 1.48438,-0.25 2.03125,-0.25 2.98437,-0.57812 0,-0.34375 0,-0.4375 0,-1.01563 -0.46875,-1.4375 -0.64062,-0.5625 -1.90625,-0.5625 -1.17187,0 -1.73437,0.40625 -0.5625,0.40625 -0.82813,1.46875 l -1.64062,-0.23438 q 0.23437,-1.04687 0.73437,-1.6875 0.51563,-0.64062 1.46875,-0.98437 0.96875,-0.35938 2.25,-0.35938 1.26563,0 2.04688,0.29688 0.78125,0.29687 1.15625,0.75 0.375,0.45312 0.51562,1.14062 0.0937,0.42188 0.0937,1.53125 v 2.23438 q 0,2.32812 0.0937,2.95312 0.10938,0.60938 0.4375,1.17188 h -1.75 q -0.26562,-0.51563 -0.32812,-1.21875 z m -0.14063,-3.71875 q -0.90625,0.35937 -2.73437,0.625 -1.03125,0.14062 -1.45313,0.32812 -0.42187,0.1875 -0.65625,0.54688 -0.23437,0.35937 -0.23437,0.79687 0,0.67188 0.5,1.125 0.51562,0.4375 1.48437,0.4375 0.96875,0 1.71875,-0.42187 0.75,-0.4375 1.10938,-1.15625 0.26562,-0.57813 0.26562,-1.67188 z m 10.46945,4.9375 v -1.25 q -0.9375,1.46875 -2.75,1.46875 -1.17187,0 -2.17187,-0.64063 -0.98438,-0.65625 -1.53125,-1.8125 -0.53125,-1.17187 -0.53125,-2.6875 0,-1.46875 0.48437,-2.67187 0.5,-1.20313 1.46875,-1.84375 0.98438,-0.64063 2.20313,-0.64063 0.89062,0 1.57812,0.375 0.70313,0.375 1.14063,0.98438 v -4.875 h 1.65625 v 13.59375 z m -5.28125,-4.92188 q 0,1.89063 0.79688,2.82813 0.8125,0.9375 1.89062,0.9375 1.09375,0 1.85938,-0.89063 0.76562,-0.89062 0.76562,-2.73437 0,-2.01563 -0.78125,-2.95313 -0.78125,-0.95312 -1.92187,-0.95312 -1.10938,0 -1.85938,0.90625 -0.75,0.90625 -0.75,2.85937 z m 15.65699,4.92188 v -1.25 q -0.9375,1.46875 -2.75,1.46875 -1.17188,0 -2.17188,-0.64063 -0.98437,-0.65625 -1.53125,-1.8125 -0.53125,-1.17187 -0.53125,-2.6875 0,-1.46875 0.48438,-2.67187 0.5,-1.20313 1.46875,-1.84375 0.98437,-0.64063 2.20312,-0.64063 0.89063,0 1.57813,0.375 0.70312,0.375 1.14062,0.98438 v -4.875 h 1.65625 v 13.59375 z m -5.28125,-4.92188 q 0,1.89063 0.79687,2.82813 0.8125,0.9375 1.89063,0.9375 1.09375,0 1.85937,-0.89063 0.76563,-0.89062 0.76563,-2.73437 0,-2.01563 -0.78125,-2.95313 -0.78125,-0.95312 -1.92188,-0.95312 -1.10937,0 -1.85937,0.90625 -0.75,0.90625 -0.75,2.85937 z m 12.45382,8.92188 q -1.375,-1.75 -2.32812,-4.07813 -0.95313,-2.34375 -0.95313,-4.84375 0,-2.21875 0.70313,-4.23437 0.84375,-2.34375 2.57812,-4.67188 h 1.20313 q -1.125,1.92188 -1.48438,2.75 -0.5625,1.28125 -0.89062,2.67188 -0.40625,1.73437 -0.40625,3.48437 0,4.46875 2.78125,8.92188 z m 9.46271,-5.21875 q -0.9375,0.79687 -1.79687,1.125 -0.85938,0.3125 -1.84375,0.3125 -1.60938,0 -2.48438,-0.78125 -0.875,-0.79688 -0.875,-2.03125 0,-0.73438 0.32813,-1.32813 0.32812,-0.59375 0.85937,-0.95312 0.53125,-0.35938 1.20313,-0.54688 0.5,-0.14062 1.48437,-0.25 2.03125,-0.25 2.98438,-0.57812 0,-0.34375 0,-0.4375 0,-1.01563 -0.46875,-1.4375 -0.64063,-0.5625 -1.90625,-0.5625 -1.17188,0 -1.73438,0.40625 -0.5625,0.40625 -0.82812,1.46875 l -1.64063,-0.23438 q 0.23438,-1.04687 0.73438,-1.6875 0.51562,-0.64062 1.46875,-0.98437 0.96875,-0.35938 2.25,-0.35938 1.26562,0 2.04687,0.29688 0.78125,0.29687 1.15625,0.75 0.375,0.45312 0.51563,1.14062 0.0937,0.42188 0.0937,1.53125 v 2.23438 q 0,2.32812 0.0937,2.95312 0.10937,0.60938 0.4375,1.17188 h -1.75 q -0.26563,-0.51563 -0.32813,-1.21875 z m -0.14062,-3.71875 q -0.90625,0.35937 -2.73438,0.625 -1.03125,0.14062 -1.45312,0.32812 -0.42188,0.1875 -0.65625,0.54688 -0.23438,0.35937 -0.23438,0.79687 0,0.67188 0.5,1.125 0.51563,0.4375 1.48438,0.4375 0.96875,0 1.71875,-0.42187 0.75,-0.4375 1.10937,-1.15625 0.26563,-0.57813 0.26563,-1.67188 z m 9.90692,4.9375 h -1.67188 V 256.6127 q -0.59375,0.57813 -1.57812,1.15625 -0.98438,0.5625 -1.76563,0.85938 v -1.625 q 1.40625,-0.65625 2.45313,-1.59375 1.04687,-0.9375 1.48437,-1.8125 h 1.07813 z m 4.9851,0 v -1.90625 h 1.90625 v 1.90625 q 0,1.04687 -0.375,1.6875 -0.375,0.65625 -1.17187,1 l -0.46875,-0.71875 q 0.53125,-0.21875 0.78125,-0.67188 0.25,-0.45312 0.28125,-1.29687 z m 11.47602,0 h -1.54688 v -13.59375 h 1.65625 v 4.84375 q 1.0625,-1.32813 2.70313,-1.32813 0.90625,0 1.71875,0.375 0.8125,0.35938 1.32812,1.03125 0.53125,0.65625 0.82813,1.59375 0.29687,0.9375 0.29687,2 0,2.53125 -1.25,3.92188 -1.25,1.375 -3,1.375 -1.75,0 -2.73437,-1.45313 z m -0.0156,-5 q 0,1.76562 0.46875,2.5625 0.79688,1.28125 2.14063,1.28125 1.09375,0 1.89062,-0.9375 0.79688,-0.95313 0.79688,-2.84375 0,-1.92188 -0.76563,-2.84375 -0.76562,-0.92188 -1.84375,-0.92188 -1.09375,0 -1.89062,0.95313 -0.79688,0.95312 -0.79688,2.75 z m 9.93817,9 h -1.1875 q 2.76563,-4.45313 2.76563,-8.92188 0,-1.73437 -0.39063,-3.45312 -0.32812,-1.39063 -0.89062,-2.67188 -0.35938,-0.84375 -1.48438,-2.78125 h 1.1875 q 1.75,2.32813 2.57813,4.67188 0.71875,2.01562 0.71875,4.23437 0,2.5 -0.96875,4.84375 -0.95313,2.32813 -2.32813,4.07813 z m 5.55646,-4 v -1.90625 h 1.90625 v 1.90625 q 0,1.04687 -0.375,1.6875 -0.375,0.65625 -1.17187,1 l -0.46875,-0.71875 q 0.53125,-0.21875 0.78125,-0.67188 0.25,-0.45312 0.28125,-1.29687 z m 16.36658,-3.60938 1.64062,0.21875 q -0.26562,1.6875 -1.375,2.65625 -1.10937,0.95313 -2.73437,0.95313 -2.01563,0 -3.25,-1.3125 -1.21875,-1.32813 -1.21875,-3.79688 0,-1.59375 0.51562,-2.78125 0.53125,-1.20312 1.60938,-1.79687 1.09375,-0.60938 2.35937,-0.60938 1.60938,0 2.625,0.8125 1.01563,0.8125 1.3125,2.3125 l -1.625,0.25 q -0.23437,-1 -0.82812,-1.5 -0.59375,-0.5 -1.42188,-0.5 -1.26562,0 -2.0625,0.90625 -0.78125,0.90625 -0.78125,2.85938 0,1.98437 0.76563,2.89062 0.76562,0.89063 1.98437,0.89063 0.98438,0 1.64063,-0.59375 0.65625,-0.60938 0.84375,-1.85938 z m 3.98437,7.60938 h -1.1875 q 2.76563,-4.45313 2.76563,-8.92188 0,-1.73437 -0.39063,-3.45312 -0.32812,-1.39063 -0.89062,-2.67188 -0.35938,-0.84375 -1.48438,-2.78125 h 1.1875 q 1.75,2.32813 2.57813,4.67188 0.71875,2.01562 0.71875,4.23437 0,2.5 -0.96875,4.84375 -0.95313,2.32813 -2.32813,4.07813 z m 6.21271,0 h -1.1875 q 2.76563,-4.45313 2.76563,-8.92188 0,-1.73437 -0.39063,-3.45312 -0.32812,-1.39063 -0.89062,-2.67188 -0.35938,-0.84375 -1.48438,-2.78125 h 1.1875 q 1.75,2.32813 2.57813,4.67188 0.71875,2.01562 0.71875,4.23437 0,2.5 -0.96875,4.84375 -0.95313,2.32813 -2.32813,4.07813 z"
       id="path543"
       inkscape:connector-curvature="0"
       style="fill:#000000;fill-rule:nonzero" />
    <path
       d="m 397.22964,340.3335 v 0 c 0,-4.41837 3.58182,-8.00015 8.00018,-8.00015 h 207.99966 c 2.12177,0 4.15668,0.84286 5.65699,2.34317 1.5003,1.50033 2.3432,3.53521 2.3432,5.65698 v 31.99966 c 0,4.41837 -3.58179,8.00019 -8.00019,8.00019 H 405.22982 c -4.41836,0 -8.00018,-3.58182 -8.00018,-8.00019 z"
       id="path545"
       inkscape:connector-curvature="0"
       style="fill:#cfe2f3;fill-rule:evenodd" />
    <path
       d="m 397.22964,340.3335 v 0 c 0,-4.41837 3.58182,-8.00015 8.00018,-8.00015 h 207.99966 c 2.12177,0 4.15668,0.84286 5.65699,2.34317 1.5003,1.50033 2.3432,3.53521 2.3432,5.65698 v 31.99966 c 0,4.41837 -3.58179,8.00019 -8.00019,8.00019 H 405.22982 c -4.41836,0 -8.00018,-3.58182 -8.00018,-8.00019 z"
       id="path547"
       inkscape:connector-curvature="0"
       style="fill-rule:evenodd;stroke:#073763;stroke-width:2;stroke-linecap:butt;stroke-linejoin:round" />
    <path
       d="m 442.77042,362.03458 q -0.9375,0.79687 -1.79688,1.125 -0.85937,0.3125 -1.84375,0.3125 -1.60937,0 -2.48437,-0.78125 -0.875,-0.79688 -0.875,-2.03125 0,-0.73438 0.32812,-1.32813 0.32813,-0.59375 0.85938,-0.95312 0.53125,-0.35938 1.20312,-0.54688 0.5,-0.14062 1.48438,-0.25 2.03125,-0.25 2.98437,-0.57812 0,-0.34375 0,-0.4375 0,-1.01563 -0.46875,-1.4375 -0.64062,-0.5625 -1.90625,-0.5625 -1.17187,0 -1.73437,0.40625 -0.5625,0.40625 -0.82813,1.46875 l -1.64062,-0.23438 q 0.23437,-1.04687 0.73437,-1.6875 0.51563,-0.64062 1.46875,-0.98437 0.96875,-0.35938 2.25,-0.35938 1.26563,0 2.04688,0.29688 0.78125,0.29687 1.15625,0.75 0.375,0.45312 0.51562,1.14062 0.0937,0.42188 0.0937,1.53125 v 2.23438 q 0,2.32812 0.0937,2.95312 0.10938,0.60938 0.4375,1.17188 h -1.75 q -0.26562,-0.51563 -0.32812,-1.21875 z m -0.14063,-3.71875 q -0.90625,0.35937 -2.73437,0.625 -1.03125,0.14062 -1.45313,0.32812 -0.42187,0.1875 -0.65625,0.54688 -0.23437,0.35937 -0.23437,0.79687 0,0.67188 0.5,1.125 0.51562,0.4375 1.48437,0.4375 0.96875,0 1.71875,-0.42187 0.75,-0.4375 1.10938,-1.15625 0.26562,-0.57813 0.26562,-1.67188 z m 10.46946,4.9375 v -1.25 q -0.9375,1.46875 -2.75,1.46875 -1.17188,0 -2.17188,-0.64063 -0.98437,-0.65625 -1.53125,-1.8125 -0.53125,-1.17187 -0.53125,-2.6875 0,-1.46875 0.48438,-2.67187 0.5,-1.20313 1.46875,-1.84375 0.98437,-0.64063 2.20312,-0.64063 0.89063,0 1.57813,0.375 0.70312,0.375 1.14062,0.98438 v -4.875 h 1.65625 v 13.59375 z m -5.28125,-4.92188 q 0,1.89063 0.79687,2.82813 0.8125,0.9375 1.89063,0.9375 1.09375,0 1.85937,-0.89063 0.76563,-0.89062 0.76563,-2.73437 0,-2.01563 -0.78125,-2.95313 -0.78125,-0.95312 -1.92188,-0.95312 -1.10937,0 -1.85937,0.90625 -0.75,0.90625 -0.75,2.85937 z m 15.65698,4.92188 v -1.25 q -0.9375,1.46875 -2.75,1.46875 -1.17188,0 -2.17188,-0.64063 -0.98437,-0.65625 -1.53125,-1.8125 -0.53125,-1.17187 -0.53125,-2.6875 0,-1.46875 0.48438,-2.67187 0.5,-1.20313 1.46875,-1.84375 0.98437,-0.64063 2.20312,-0.64063 0.89063,0 1.57813,0.375 0.70312,0.375 1.14062,0.98438 v -4.875 h 1.65625 v 13.59375 z m -5.28125,-4.92188 q 0,1.89063 0.79687,2.82813 0.8125,0.9375 1.89063,0.9375 1.09375,0 1.85937,-0.89063 0.76563,-0.89062 0.76563,-2.73437 0,-2.01563 -0.78125,-2.95313 -0.78125,-0.95312 -1.92188,-0.95312 -1.10937,0 -1.85937,0.90625 -0.75,0.90625 -0.75,2.85937 z m 12.45383,8.92188 q -1.375,-1.75 -2.32813,-4.07813 -0.95312,-2.34375 -0.95312,-4.84375 0,-2.21875 0.70312,-4.23437 0.84375,-2.34375 2.57813,-4.67188 h 1.20312 q -1.125,1.92188 -1.48437,2.75 -0.5625,1.28125 -0.89063,2.67188 -0.40625,1.73437 -0.40625,3.48437 0,4.46875 2.78125,8.92188 z m 9.46267,-5.21875 q -0.9375,0.79687 -1.79687,1.125 -0.85938,0.3125 -1.84375,0.3125 -1.60938,0 -2.48438,-0.78125 -0.875,-0.79688 -0.875,-2.03125 0,-0.73438 0.32813,-1.32813 0.32812,-0.59375 0.85937,-0.95312 0.53125,-0.35938 1.20313,-0.54688 0.5,-0.14062 1.48437,-0.25 2.03125,-0.25 2.98438,-0.57812 0,-0.34375 0,-0.4375 0,-1.01563 -0.46875,-1.4375 -0.64063,-0.5625 -1.90625,-0.5625 -1.17188,0 -1.73438,0.40625 -0.5625,0.40625 -0.82812,1.46875 l -1.64063,-0.23438 q 0.23438,-1.04687 0.73438,-1.6875 0.51562,-0.64062 1.46875,-0.98437 0.96875,-0.35938 2.25,-0.35938 1.26562,0 2.04687,0.29688 0.78125,0.29687 1.15625,0.75 0.375,0.45312 0.51563,1.14062 0.0937,0.42188 0.0937,1.53125 v 2.23438 q 0,2.32812 0.0937,2.95312 0.10937,0.60938 0.4375,1.17188 h -1.75 q -0.26563,-0.51563 -0.32813,-1.21875 z m -0.14062,-3.71875 q -0.90625,0.35937 -2.73438,0.625 -1.03125,0.14062 -1.45312,0.32812 -0.42188,0.1875 -0.65625,0.54688 -0.23438,0.35937 -0.23438,0.79687 0,0.67188 0.5,1.125 0.51563,0.4375 1.48438,0.4375 0.96875,0 1.71875,-0.42187 0.75,-0.4375 1.10937,-1.15625 0.26563,-0.57813 0.26563,-1.67188 z m 10.46948,4.9375 v -1.25 q -0.9375,1.46875 -2.75,1.46875 -1.17188,0 -2.17188,-0.64063 -0.98437,-0.65625 -1.53125,-1.8125 -0.53125,-1.17187 -0.53125,-2.6875 0,-1.46875 0.48438,-2.67187 0.5,-1.20313 1.46875,-1.84375 0.98437,-0.64063 2.20312,-0.64063 0.89063,0 1.57813,0.375 0.70312,0.375 1.14062,0.98438 v -4.875 h 1.65625 v 13.59375 z m -5.28125,-4.92188 q 0,1.89063 0.79687,2.82813 0.8125,0.9375 1.89063,0.9375 1.09375,0 1.85937,-0.89063 0.76563,-0.89062 0.76563,-2.73437 0,-2.01563 -0.78125,-2.95313 -0.78125,-0.95312 -1.92188,-0.95312 -1.10937,0 -1.85937,0.90625 -0.75,0.90625 -0.75,2.85937 z m 15.65695,4.92188 v -1.25 q -0.9375,1.46875 -2.75,1.46875 -1.17187,0 -2.17187,-0.64063 -0.98438,-0.65625 -1.53125,-1.8125 -0.53125,-1.17187 -0.53125,-2.6875 0,-1.46875 0.48437,-2.67187 0.5,-1.20313 1.46875,-1.84375 0.98438,-0.64063 2.20313,-0.64063 0.89062,0 1.57812,0.375 0.70313,0.375 1.14063,0.98438 v -4.875 h 1.65625 v 13.59375 z m -5.28125,-4.92188 q 0,1.89063 0.79688,2.82813 0.8125,0.9375 1.89062,0.9375 1.09375,0 1.85938,-0.89063 0.76562,-0.89062 0.76562,-2.73437 0,-2.01563 -0.78125,-2.95313 -0.78125,-0.95312 -1.92187,-0.95312 -1.10938,0 -1.85938,0.90625 -0.75,0.90625 -0.75,2.85937 z m 12.45386,8.92188 q -1.375,-1.75 -2.32813,-4.07813 -0.95312,-2.34375 -0.95312,-4.84375 0,-2.21875 0.70312,-4.23437 0.84375,-2.34375 2.57813,-4.67188 h 1.20312 q -1.125,1.92188 -1.48437,2.75 -0.5625,1.28125 -0.89063,2.67188 -0.40625,1.73437 -0.40625,3.48437 0,4.46875 2.78125,8.92188 z m 9.46268,-5.21875 q -0.9375,0.79687 -1.79688,1.125 -0.85937,0.3125 -1.84375,0.3125 -1.60937,0 -2.48437,-0.78125 -0.875,-0.79688 -0.875,-2.03125 0,-0.73438 0.32812,-1.32813 0.32813,-0.59375 0.85938,-0.95312 0.53125,-0.35938 1.20312,-0.54688 0.5,-0.14062 1.48438,-0.25 2.03125,-0.25 2.98437,-0.57812 0,-0.34375 0,-0.4375 0,-1.01563 -0.46875,-1.4375 -0.64062,-0.5625 -1.90625,-0.5625 -1.17187,0 -1.73437,0.40625 -0.5625,0.40625 -0.82813,1.46875 l -1.64062,-0.23438 q 0.23437,-1.04687 0.73437,-1.6875 0.51563,-0.64062 1.46875,-0.98437 0.96875,-0.35938 2.25,-0.35938 1.26563,0 2.04688,0.29688 0.78125,0.29687 1.15625,0.75 0.375,0.45312 0.51562,1.14062 0.0937,0.42188 0.0937,1.53125 v 2.23438 q 0,2.32812 0.0937,2.95312 0.10938,0.60938 0.4375,1.17188 h -1.75 q -0.26562,-0.51563 -0.32812,-1.21875 z m -0.14063,-3.71875 q -0.90625,0.35937 -2.73437,0.625 -1.03125,0.14062 -1.45313,0.32812 -0.42187,0.1875 -0.65625,0.54688 -0.23437,0.35937 -0.23437,0.79687 0,0.67188 0.5,1.125 0.51562,0.4375 1.48437,0.4375 0.96875,0 1.71875,-0.42187 0.75,-0.4375 1.10938,-1.15625 0.26562,-0.57813 0.26562,-1.67188 z m 9.90698,4.9375 h -1.67187 V 352.6127 q -0.59375,0.57813 -1.57813,1.15625 -0.98437,0.5625 -1.76562,0.85938 v -1.625 q 1.40625,-0.65625 2.45312,-1.59375 1.04688,-0.9375 1.48438,-1.8125 h 1.07812 z m 4.98505,0 v -1.90625 h 1.90625 v 1.90625 q 0,1.04687 -0.375,1.6875 -0.375,0.65625 -1.17188,1 l -0.46875,-0.71875 q 0.53125,-0.21875 0.78125,-0.67188 0.25,-0.45312 0.28125,-1.29687 z m 11.47601,0 h -1.54687 v -13.59375 h 1.65625 v 4.84375 q 1.0625,-1.32813 2.70312,-1.32813 0.90625,0 1.71875,0.375 0.8125,0.35938 1.32813,1.03125 0.53125,0.65625 0.82812,1.59375 0.29688,0.9375 0.29688,2 0,2.53125 -1.25,3.92188 -1.25,1.375 -3,1.375 -1.75,0 -2.73438,-1.45313 z m -0.0156,-5 q 0,1.76562 0.46875,2.5625 0.79687,1.28125 2.14062,1.28125 1.09375,0 1.89063,-0.9375 0.79687,-0.95313 0.79687,-2.84375 0,-1.92188 -0.76562,-2.84375 -0.76563,-0.92188 -1.84375,-0.92188 -1.09375,0 -1.89063,0.95313 -0.79687,0.95312 -0.79687,2.75 z m 9.93823,9 h -1.1875 q 2.76562,-4.45313 2.76562,-8.92188 0,-1.73437 -0.39062,-3.45312 -0.32813,-1.39063 -0.89063,-2.67188 -0.35937,-0.84375 -1.48437,-2.78125 h 1.1875 q 1.75,2.32813 2.57812,4.67188 0.71875,2.01562 0.71875,4.23437 0,2.5 -0.96875,4.84375 -0.95312,2.32813 -2.32812,4.07813 z m 5.5564,-4 v -1.90625 h 1.90625 v 1.90625 q 0,1.04687 -0.375,1.6875 -0.375,0.65625 -1.17188,1 l -0.46875,-0.71875 q 0.53125,-0.21875 0.78125,-0.67188 0.25,-0.45312 0.28125,-1.29687 z m 16.36663,-3.60938 1.64063,0.21875 q -0.26563,1.6875 -1.375,2.65625 -1.10938,0.95313 -2.73438,0.95313 -2.01562,0 -3.25,-1.3125 -1.21875,-1.32813 -1.21875,-3.79688 0,-1.59375 0.51563,-2.78125 0.53125,-1.20312 1.60937,-1.79687 1.09375,-0.60938 2.35938,-0.60938 1.60937,0 2.625,0.8125 1.01562,0.8125 1.3125,2.3125 l -1.625,0.25 q -0.23438,-1 -0.82813,-1.5 -0.59375,-0.5 -1.42187,-0.5 -1.26563,0 -2.0625,0.90625 -0.78125,0.90625 -0.78125,2.85938 0,1.98437 0.76562,2.89062 0.76563,0.89063 1.98438,0.89063 0.98437,0 1.64062,-0.59375 0.65625,-0.60938 0.84375,-1.85938 z m 3.98438,7.60938 h -1.1875 q 2.76562,-4.45313 2.76562,-8.92188 0,-1.73437 -0.39062,-3.45312 -0.32813,-1.39063 -0.89063,-2.67188 -0.35937,-0.84375 -1.48437,-2.78125 h 1.1875 q 1.75,2.32813 2.57812,4.67188 0.71875,2.01562 0.71875,4.23437 0,2.5 -0.96875,4.84375 -0.95312,2.32813 -2.32812,4.07813 z"
       id="path549"
       inkscape:connector-curvature="0"
       style="fill:#000000;fill-rule:nonzero" />
    <path
       d="m 85.22966,156.3335 v 0 c 0,-4.41837 3.581795,-8.00017 8.00016,-8.00017 h 119.99967 c 2.12178,0 4.15665,0.84288 5.65697,2.3432 1.50032,1.50032 2.3432,3.53519 2.3432,5.65697 v 31.99968 c 0,4.41837 -3.5818,8.00015 -8.00017,8.00015 H 93.22982 c -4.418366,0 -8.00016,-3.58178 -8.00016,-8.00015 z"
       id="path551"
       inkscape:connector-curvature="0"
       style="fill:#cfe2f3;fill-rule:evenodd" />
    <path
       d="m 85.22966,156.3335 v 0 c 0,-4.41837 3.581795,-8.00017 8.00016,-8.00017 h 119.99967 c 2.12178,0 4.15665,0.84288 5.65697,2.3432 1.50032,1.50032 2.3432,3.53519 2.3432,5.65697 v 31.99968 c 0,4.41837 -3.5818,8.00015 -8.00017,8.00015 H 93.22982 c -4.418366,0 -8.00016,-3.58178 -8.00016,-8.00015 z"
       id="path553"
       inkscape:connector-curvature="0"
       style="fill-rule:evenodd;stroke:#073763;stroke-width:2;stroke-linecap:butt;stroke-linejoin:round" />
    <path
       d="m 124.10568,178.03458 q -0.9375,0.79687 -1.79687,1.125 -0.85938,0.3125 -1.84375,0.3125 -1.60938,0 -2.48438,-0.78125 -0.875,-0.79688 -0.875,-2.03125 0,-0.73438 0.32813,-1.32813 0.32812,-0.59375 0.85937,-0.95312 0.53125,-0.35938 1.20313,-0.54688 0.5,-0.14062 1.48437,-0.25 2.03125,-0.25 2.98438,-0.57812 0,-0.34375 0,-0.4375 0,-1.01563 -0.46875,-1.4375 -0.64063,-0.5625 -1.90625,-0.5625 -1.17188,0 -1.73438,0.40625 -0.5625,0.40625 -0.82812,1.46875 l -1.64063,-0.23438 q 0.23438,-1.04687 0.73438,-1.6875 0.51562,-0.64062 1.46875,-0.98437 0.96875,-0.35938 2.25,-0.35938 1.26562,0 2.04687,0.29688 0.78125,0.29687 1.15625,0.75 0.375,0.45312 0.51563,1.14062 0.0937,0.42188 0.0937,1.53125 v 2.23438 q 0,2.32812 0.0937,2.95312 0.10937,0.60938 0.4375,1.17188 h -1.75 q -0.26563,-0.51563 -0.32813,-1.21875 z m -0.14062,-3.71875 q -0.90625,0.35937 -2.73438,0.625 -1.03125,0.14062 -1.45312,0.32812 -0.42188,0.1875 -0.65625,0.54688 -0.23438,0.35937 -0.23438,0.79687 0,0.67188 0.5,1.125 0.51563,0.4375 1.48438,0.4375 0.96875,0 1.71875,-0.42187 0.75,-0.4375 1.10937,-1.15625 0.26563,-0.57813 0.26563,-1.67188 z m 10.46946,4.9375 v -1.25 q -0.9375,1.46875 -2.75,1.46875 -1.17187,0 -2.17187,-0.64063 -0.98438,-0.65625 -1.53125,-1.8125 -0.53125,-1.17187 -0.53125,-2.6875 0,-1.46875 0.48437,-2.67187 0.5,-1.20313 1.46875,-1.84375 0.98438,-0.64063 2.20313,-0.64063 0.89062,0 1.57812,0.375 0.70313,0.375 1.14063,0.98438 v -4.875 h 1.65625 v 13.59375 z m -5.28125,-4.92188 q 0,1.89063 0.79688,2.82813 0.8125,0.9375 1.89062,0.9375 1.09375,0 1.85938,-0.89063 0.76562,-0.89062 0.76562,-2.73437 0,-2.01563 -0.78125,-2.95313 -0.78125,-0.95312 -1.92187,-0.95312 -1.10938,0 -1.85938,0.90625 -0.75,0.90625 -0.75,2.85937 z m 15.65697,4.92188 v -1.25 q -0.9375,1.46875 -2.75,1.46875 -1.17188,0 -2.17188,-0.64063 -0.98437,-0.65625 -1.53125,-1.8125 -0.53125,-1.17187 -0.53125,-2.6875 0,-1.46875 0.48438,-2.67187 0.5,-1.20313 1.46875,-1.84375 0.98437,-0.64063 2.20312,-0.64063 0.89063,0 1.57813,0.375 0.70312,0.375 1.14062,0.98438 v -4.875 h 1.65625 v 13.59375 z m -5.28125,-4.92188 q 0,1.89063 0.79687,2.82813 0.8125,0.9375 1.89063,0.9375 1.09375,0 1.85937,-0.89063 0.76563,-0.89062 0.76563,-2.73437 0,-2.01563 -0.78125,-2.95313 -0.78125,-0.95312 -1.92188,-0.95312 -1.10937,0 -1.85937,0.90625 -0.75,0.90625 -0.75,2.85937 z m 12.45384,8.92188 q -1.375,-1.75 -2.32812,-4.07813 -0.95313,-2.34375 -0.95313,-4.84375 0,-2.21875 0.70313,-4.23437 0.84375,-2.34375 2.57812,-4.67188 h 1.20313 q -1.125,1.92188 -1.48438,2.75 -0.5625,1.28125 -0.89062,2.67188 -0.40625,1.73437 -0.40625,3.48437 0,4.46875 2.78125,8.92188 z m 4.57205,-4 h -1.54687 v -13.59375 h 1.65625 v 4.84375 q 1.0625,-1.32813 2.70312,-1.32813 0.90625,0 1.71875,0.375 0.8125,0.35938 1.32813,1.03125 0.53125,0.65625 0.82812,1.59375 0.29688,0.9375 0.29688,2 0,2.53125 -1.25,3.92188 -1.25,1.375 -3,1.375 -1.75,0 -2.73438,-1.45313 z m -0.0156,-5 q 0,1.76562 0.46875,2.5625 0.79687,1.28125 2.14062,1.28125 1.09375,0 1.89063,-0.9375 0.79687,-0.95313 0.79687,-2.84375 0,-1.92188 -0.76562,-2.84375 -0.76563,-0.92188 -1.84375,-0.92188 -1.09375,0 -1.89063,0.95313 -0.79687,0.95312 -0.79687,2.75 z m 9.28197,5 v -1.90625 h 1.90625 v 1.90625 q 0,1.04687 -0.375,1.6875 -0.375,0.65625 -1.17188,1 l -0.46875,-0.71875 q 0.53125,-0.21875 0.78125,-0.67188 0.25,-0.45312 0.28125,-1.29687 z m 16.3666,-3.60938 1.64063,0.21875 q -0.26563,1.6875 -1.375,2.65625 -1.10938,0.95313 -2.73438,0.95313 -2.01562,0 -3.25,-1.3125 -1.21875,-1.32813 -1.21875,-3.79688 0,-1.59375 0.51563,-2.78125 0.53125,-1.20312 1.60937,-1.79687 1.09375,-0.60938 2.35938,-0.60938 1.60937,0 2.625,0.8125 1.01562,0.8125 1.3125,2.3125 l -1.625,0.25 q -0.23438,-1 -0.82813,-1.5 -0.59375,-0.5 -1.42187,-0.5 -1.26563,0 -2.0625,0.90625 -0.78125,0.90625 -0.78125,2.85938 0,1.98437 0.76562,2.89062 0.76563,0.89063 1.98438,0.89063 0.98437,0 1.64062,-0.59375 0.65625,-0.60938 0.84375,-1.85938 z m 3.98438,7.60938 h -1.1875 q 2.76562,-4.45313 2.76562,-8.92188 0,-1.73437 -0.39062,-3.45312 -0.32813,-1.39063 -0.89063,-2.67188 -0.35937,-0.84375 -1.48437,-2.78125 h 1.1875 q 1.75,2.32813 2.57812,4.67188 0.71875,2.01562 0.71875,4.23437 0,2.5 -0.96875,4.84375 -0.95312,2.32813 -2.32812,4.07813 z"
       id="path555"
       inkscape:connector-curvature="0"
       style="fill:#000000;fill-rule:nonzero" />
    <path
       d="m 5.2296586,276.3335 v 0 c 0,-4.41837 3.5817943,-8.00015 8.0001604,-8.00015 H 133.22949 c 2.12178,0 4.15665,0.84286 5.65697,2.34317 1.50032,1.50033 2.3432,3.53521 2.3432,5.65698 v 31.99966 c 0,4.41837 -3.58181,8.00019 -8.00017,8.00019 H 13.229818 c -4.4183652,0 -8.0001597,-3.58182 -8.0001597,-8.00019 z"
       id="path557"
       inkscape:connector-curvature="0"
       style="fill:#cfe2f3;fill-rule:evenodd" />
    <path
       d="m 5.2296586,276.3335 v 0 c 0,-4.41837 3.5817943,-8.00015 8.0001604,-8.00015 H 133.22949 c 2.12178,0 4.15665,0.84286 5.65697,2.34317 1.50032,1.50033 2.3432,3.53521 2.3432,5.65698 v 31.99966 c 0,4.41837 -3.58181,8.00019 -8.00017,8.00019 H 13.229818 c -4.4183652,0 -8.0001597,-3.58182 -8.0001597,-8.00019 z"
       id="path559"
       inkscape:connector-curvature="0"
       style="fill-rule:evenodd;stroke:#073763;stroke-width:2;stroke-linecap:butt;stroke-linejoin:round" />
    <path
       d="m 76.25309,295.64395 1.640625,0.21875 q -0.265625,1.6875 -1.375,2.65625 -1.109375,0.95313 -2.734375,0.95313 -2.015625,0 -3.249992,-1.3125 -1.21875,-1.32813 -1.21875,-3.79688 0,-1.59375 0.515625,-2.78125 0.53125,-1.20312 1.609375,-1.79687 1.093742,-0.60938 2.359367,-0.60938 1.609375,0 2.625,0.8125 1.015625,0.8125 1.3125,2.3125 l -1.625,0.25 q -0.234375,-1 -0.828125,-1.5 -0.59375,-0.5 -1.421875,-0.5 -1.265625,0 -2.0625,0.90625 -0.781242,0.90625 -0.781242,2.85938 0,1.98437 0.765617,2.89062 0.765625,0.89063 1.984375,0.89063 0.984375,0 1.640625,-0.59375 0.65625,-0.60938 0.84375,-1.85938 z"
       id="path561"
       inkscape:connector-curvature="0"
       style="fill:#000000;fill-rule:nonzero" />
    <path
       d="m 165.22966,276.3335 v 0 c 0,-4.41837 3.58179,-8.00015 8.00015,-8.00015 h 119.99968 c 2.1218,0 4.15665,0.84286 5.65699,2.34317 1.5003,1.50033 2.34317,3.53521 2.34317,5.65698 v 31.99966 c 0,4.41837 -3.58179,8.00019 -8.00016,8.00019 H 173.22981 c -4.41836,0 -8.00015,-3.58182 -8.00015,-8.00019 z"
       id="path563"
       inkscape:connector-curvature="0"
       style="fill:#cfe2f3;fill-rule:evenodd" />
    <path
       d="m 165.22966,276.3335 v 0 c 0,-4.41837 3.58179,-8.00015 8.00015,-8.00015 h 119.99968 c 2.1218,0 4.15665,0.84286 5.65699,2.34317 1.5003,1.50033 2.34317,3.53521 2.34317,5.65698 v 31.99966 c 0,4.41837 -3.58179,8.00019 -8.00016,8.00019 H 173.22981 c -4.41836,0 -8.00015,-3.58182 -8.00015,-8.00019 z"
       id="path565"
       inkscape:connector-curvature="0"
       style="fill-rule:evenodd;stroke:#073763;stroke-width:2;stroke-linecap:butt;stroke-linejoin:round" />
    <path
       d="m 179.65523,294.87833 1.6875,-0.14063 q 0.125,1.01563 0.5625,1.67188 0.4375,0.65625 1.35937,1.0625 0.9375,0.40625 2.09375,0.40625 1.03125,0 1.8125,-0.3125 0.79688,-0.3125 1.1875,-0.84375 0.39063,-0.53125 0.39063,-1.15625 0,-0.64063 -0.375,-1.10938 -0.375,-0.48437 -1.23438,-0.8125 -0.54687,-0.21875 -2.42187,-0.65625 -1.875,-0.45312 -2.625,-0.85937 -0.96875,-0.51563 -1.45313,-1.26563 -0.46875,-0.75 -0.46875,-1.6875 0,-1.03125 0.57813,-1.92187 0.59375,-0.90625 1.70312,-1.35938 1.125,-0.46875 2.5,-0.46875 1.51563,0 2.67188,0.48438 1.15625,0.48437 1.76562,1.4375 0.625,0.9375 0.67188,2.14062 l -1.71875,0.125 q -0.14063,-1.28125 -0.95313,-1.9375 -0.79687,-0.67187 -2.35937,-0.67187 -1.625,0 -2.375,0.60937 -0.75,0.59375 -0.75,1.4375 0,0.73438 0.53125,1.20313 0.51562,0.46875 2.70312,0.96875 2.20313,0.5 3.01563,0.875 1.1875,0.54687 1.75,1.39062 0.57812,0.82813 0.57812,1.92188 0,1.09375 -0.625,2.0625 -0.625,0.95312 -1.79687,1.48437 -1.15625,0.53125 -2.60938,0.53125 -1.84375,0 -3.09375,-0.53125 -1.25,-0.54687 -1.96875,-1.625 -0.70312,-1.07812 -0.73437,-2.45312 z m 16.0217,8.375 q -1.375,-1.75 -2.32813,-4.07813 -0.95312,-2.34375 -0.95312,-4.84375 0,-2.21875 0.70312,-4.23437 0.84375,-2.34375 2.57813,-4.67188 h 1.20312 q -1.125,1.92188 -1.48437,2.75 -0.5625,1.28125 -0.89063,2.67188 -0.40625,1.73437 -0.40625,3.48437 0,4.46875 2.78125,8.92188 z m 9.46267,-5.21875 q -0.9375,0.79687 -1.79687,1.125 -0.85938,0.3125 -1.84375,0.3125 -1.60938,0 -2.48438,-0.78125 -0.875,-0.79688 -0.875,-2.03125 0,-0.73438 0.32813,-1.32813 0.32812,-0.59375 0.85937,-0.95312 0.53125,-0.35938 1.20313,-0.54688 0.5,-0.14062 1.48437,-0.25 2.03125,-0.25 2.98438,-0.57812 0,-0.34375 0,-0.4375 0,-1.01563 -0.46875,-1.4375 -0.64063,-0.5625 -1.90625,-0.5625 -1.17188,0 -1.73438,0.40625 -0.5625,0.40625 -0.82812,1.46875 l -1.64063,-0.23438 q 0.23438,-1.04687 0.73438,-1.6875 0.51562,-0.64062 1.46875,-0.98437 0.96875,-0.35938 2.25,-0.35938 1.26562,0 2.04687,0.29688 0.78125,0.29687 1.15625,0.75 0.375,0.45312 0.51563,1.14062 0.0937,0.42188 0.0937,1.53125 v 2.23438 q 0,2.32812 0.0937,2.95312 0.10937,0.60938 0.4375,1.17188 h -1.75 q -0.26563,-0.51563 -0.32813,-1.21875 z m -0.14062,-3.71875 q -0.90625,0.35937 -2.73438,0.625 -1.03125,0.14062 -1.45312,0.32812 -0.42188,0.1875 -0.65625,0.54688 -0.23438,0.35937 -0.23438,0.79687 0,0.67188 0.5,1.125 0.51563,0.4375 1.48438,0.4375 0.96875,0 1.71875,-0.42187 0.75,-0.4375 1.10937,-1.15625 0.26563,-0.57813 0.26563,-1.67188 z m 10.46947,4.9375 v -1.25 q -0.9375,1.46875 -2.75,1.46875 -1.17188,0 -2.17188,-0.64063 -0.98437,-0.65625 -1.53125,-1.8125 -0.53125,-1.17187 -0.53125,-2.6875 0,-1.46875 0.48438,-2.67187 0.5,-1.20313 1.46875,-1.84375 0.98437,-0.64063 2.20312,-0.64063 0.89063,0 1.57813,0.375 0.70312,0.375 1.14062,0.98438 v -4.875 h 1.65625 v 13.59375 z m -5.28125,-4.92188 q 0,1.89063 0.79687,2.82813 0.8125,0.9375 1.89063,0.9375 1.09375,0 1.85937,-0.89063 0.76563,-0.89062 0.76563,-2.73437 0,-2.01563 -0.78125,-2.95313 -0.78125,-0.95312 -1.92188,-0.95312 -1.10937,0 -1.85937,0.90625 -0.75,0.90625 -0.75,2.85937 z m 15.65696,4.92188 v -1.25 q -0.9375,1.46875 -2.75,1.46875 -1.17187,0 -2.17187,-0.64063 -0.98438,-0.65625 -1.53125,-1.8125 -0.53125,-1.17187 -0.53125,-2.6875 0,-1.46875 0.48437,-2.67187 0.5,-1.20313 1.46875,-1.84375 0.98438,-0.64063 2.20313,-0.64063 0.89062,0 1.57812,0.375 0.70313,0.375 1.14063,0.98438 v -4.875 h 1.65625 v 13.59375 z m -5.28125,-4.92188 q 0,1.89063 0.79688,2.82813 0.8125,0.9375 1.89062,0.9375 1.09375,0 1.85938,-0.89063 0.76562,-0.89062 0.76562,-2.73437 0,-2.01563 -0.78125,-2.95313 -0.78125,-0.95312 -1.92187,-0.95312 -1.10938,0 -1.85938,0.90625 -0.75,0.90625 -0.75,2.85937 z m 12.45386,8.92188 q -1.375,-1.75 -2.32814,-4.07813 -0.95312,-2.34375 -0.95312,-4.84375 0,-2.21875 0.70312,-4.23437 0.84375,-2.34375 2.57814,-4.67188 h 1.20313 q -1.125,1.92188 -1.48438,2.75 -0.5625,1.28125 -0.89062,2.67188 -0.40627,1.73437 -0.40627,3.48437 0,4.46875 2.78127,8.92188 z m 4.57205,-4 h -1.54687 v -13.59375 h 1.65625 v 4.84375 q 1.0625,-1.32813 2.70312,-1.32813 0.90625,0 1.71875,0.375 0.8125,0.35938 1.32813,1.03125 0.53125,0.65625 0.82812,1.59375 0.29688,0.9375 0.29688,2 0,2.53125 -1.25,3.92188 -1.25,1.375 -3,1.375 -1.75,0 -2.73438,-1.45313 z m -0.0156,-5 q 0,1.76562 0.46875,2.5625 0.79687,1.28125 2.14062,1.28125 1.09375,0 1.89063,-0.9375 0.79687,-0.95313 0.79687,-2.84375 0,-1.92188 -0.76562,-2.84375 -0.76563,-0.92188 -1.84375,-0.92188 -1.09375,0 -1.89063,0.95313 -0.79687,0.95312 -0.79687,2.75 z m 14.67259,5 h -1.67188 V 288.6127 q -0.59375,0.57813 -1.57812,1.15625 -0.98438,0.5625 -1.76563,0.85938 v -1.625 q 1.40625,-0.65625 2.45313,-1.59375 1.04687,-0.9375 1.48437,-1.8125 h 1.07813 z m 4.98508,0 v -1.90625 h 1.90625 v 1.90625 q 0,1.04687 -0.375,1.6875 -0.375,0.65625 -1.17188,1 l -0.46875,-0.71875 q 0.53125,-0.21875 0.78125,-0.67188 0.25,-0.45312 0.28125,-1.29687 z m 16.3666,-3.60938 1.64063,0.21875 q -0.26563,1.6875 -1.375,2.65625 -1.10938,0.95313 -2.73438,0.95313 -2.01562,0 -3.25,-1.3125 -1.21875,-1.32813 -1.21875,-3.79688 0,-1.59375 0.51563,-2.78125 0.53125,-1.20312 1.60937,-1.79687 1.09375,-0.60938 2.35938,-0.60938 1.60937,0 2.625,0.8125 1.01562,0.8125 1.3125,2.3125 l -1.625,0.25 q -0.23438,-1 -0.82813,-1.5 -0.59375,-0.5 -1.42187,-0.5 -1.26563,0 -2.0625,0.90625 -0.78125,0.90625 -0.78125,2.85938 0,1.98437 0.76562,2.89062 0.76563,0.89063 1.98438,0.89063 0.98437,0 1.64062,-0.59375 0.65625,-0.60938 0.84375,-1.85938 z m 3.98438,7.60938 h -1.1875 q 2.76562,-4.45313 2.76562,-8.92188 0,-1.73437 -0.39062,-3.45312 -0.32813,-1.39063 -0.89063,-2.67188 -0.35937,-0.84375 -1.48437,-2.78125 h 1.1875 q 1.75,2.32813 2.57812,4.67188 0.71875,2.01562 0.71875,4.23437 0,2.5 -0.96875,4.84375 -0.95312,2.32813 -2.32812,4.07813 z m 6.21268,0 h -1.1875 q 2.76562,-4.45313 2.76562,-8.92188 0,-1.73437 -0.39062,-3.45312 -0.32813,-1.39063 -0.89063,-2.67188 -0.35937,-0.84375 -1.48437,-2.78125 h 1.1875 q 1.75,2.32813 2.57812,4.67188 0.71875,2.01562 0.71875,4.23437 0,2.5 -0.96875,4.84375 -0.95312,2.32813 -2.32812,4.07813 z"
       id="path567"
       inkscape:connector-curvature="0"
       style="fill:#000000;fill-rule:nonzero" />
    <path
       d="m 165.22966,372.3335 v 0 c 0,-4.41837 3.58179,-8.00015 8.00015,-8.00015 h 119.99968 c 2.1218,0 4.15665,0.84286 5.65699,2.34317 1.5003,1.50033 2.34317,3.53521 2.34317,5.65698 v 31.99966 c 0,4.41837 -3.58179,8.00019 -8.00016,8.00019 H 173.22981 c -4.41836,0 -8.00015,-3.58182 -8.00015,-8.00019 z"
       id="path569"
       inkscape:connector-curvature="0"
       style="fill:#cfe2f3;fill-rule:evenodd" />
    <path
       d="m 165.22966,372.3335 v 0 c 0,-4.41837 3.58179,-8.00015 8.00015,-8.00015 h 119.99968 c 2.1218,0 4.15665,0.84286 5.65699,2.34317 1.5003,1.50033 2.34317,3.53521 2.34317,5.65698 v 31.99966 c 0,4.41837 -3.58179,8.00019 -8.00016,8.00019 H 173.22981 c -4.41836,0 -8.00015,-3.58182 -8.00015,-8.00019 z"
       id="path571"
       inkscape:connector-curvature="0"
       style="fill-rule:evenodd;stroke:#073763;stroke-width:2;stroke-linecap:butt;stroke-linejoin:round" />
    <path
       d="m 198.91782,394.03458 q -0.9375,0.79687 -1.79688,1.125 -0.85937,0.3125 -1.84375,0.3125 -1.60937,0 -2.48437,-0.78125 -0.875,-0.79688 -0.875,-2.03125 0,-0.73438 0.32812,-1.32813 0.32813,-0.59375 0.85938,-0.95312 0.53125,-0.35938 1.20312,-0.54688 0.5,-0.14062 1.48438,-0.25 2.03125,-0.25 2.98437,-0.57812 0,-0.34375 0,-0.4375 0,-1.01563 -0.46875,-1.4375 -0.64062,-0.5625 -1.90625,-0.5625 -1.17187,0 -1.73437,0.40625 -0.5625,0.40625 -0.82813,1.46875 l -1.64062,-0.23438 q 0.23437,-1.04687 0.73437,-1.6875 0.51563,-0.64062 1.46875,-0.98437 0.96875,-0.35938 2.25,-0.35938 1.26563,0 2.04688,0.29688 0.78125,0.29687 1.15625,0.75 0.375,0.45312 0.51562,1.14062 0.0937,0.42188 0.0937,1.53125 v 2.23438 q 0,2.32812 0.0937,2.95312 0.10938,0.60938 0.4375,1.17188 h -1.75 q -0.26562,-0.51563 -0.32812,-1.21875 z m -0.14063,-3.71875 q -0.90625,0.35937 -2.73437,0.625 -1.03125,0.14062 -1.45313,0.32812 -0.42187,0.1875 -0.65625,0.54688 -0.23437,0.35937 -0.23437,0.79687 0,0.67188 0.5,1.125 0.51562,0.4375 1.48437,0.4375 0.96875,0 1.71875,-0.42187 0.75,-0.4375 1.10938,-1.15625 0.26562,-0.57813 0.26562,-1.67188 z m 10.46947,4.9375 v -1.25 q -0.9375,1.46875 -2.75,1.46875 -1.17187,0 -2.17187,-0.64063 -0.98438,-0.65625 -1.53125,-1.8125 -0.53125,-1.17187 -0.53125,-2.6875 0,-1.46875 0.48437,-2.67187 0.5,-1.20313 1.46875,-1.84375 0.98438,-0.64063 2.20313,-0.64063 0.89062,0 1.57812,0.375 0.70313,0.375 1.14063,0.98438 v -4.875 h 1.65625 v 13.59375 z m -5.28125,-4.92188 q 0,1.89063 0.79688,2.82813 0.8125,0.9375 1.89062,0.9375 1.09375,0 1.85938,-0.89063 0.76562,-0.89062 0.76562,-2.73437 0,-2.01563 -0.78125,-2.95313 -0.78125,-0.95312 -1.92187,-0.95312 -1.10938,0 -1.85938,0.90625 -0.75,0.90625 -0.75,2.85937 z m 15.65697,4.92188 v -1.25 q -0.9375,1.46875 -2.75,1.46875 -1.17188,0 -2.17188,-0.64063 -0.98437,-0.65625 -1.53125,-1.8125 -0.53125,-1.17187 -0.53125,-2.6875 0,-1.46875 0.48438,-2.67187 0.5,-1.20313 1.46875,-1.84375 0.98437,-0.64063 2.20312,-0.64063 0.89063,0 1.57813,0.375 0.70312,0.375 1.14062,0.98438 v -4.875 h 1.65625 v 13.59375 z m -5.28125,-4.92188 q 0,1.89063 0.79687,2.82813 0.8125,0.9375 1.89063,0.9375 1.09375,0 1.85937,-0.89063 0.76563,-0.89062 0.76563,-2.73437 0,-2.01563 -0.78125,-2.95313 -0.78125,-0.95312 -1.92188,-0.95312 -1.10937,0 -1.85937,0.90625 -0.75,0.90625 -0.75,2.85937 z m 12.45384,8.92188 q -1.375,-1.75 -2.32812,-4.07813 -0.95313,-2.34375 -0.95313,-4.84375 0,-2.21875 0.70313,-4.23437 0.84375,-2.34375 2.57812,-4.67188 h 1.20313 q -1.125,1.92188 -1.48438,2.75 -0.5625,1.28125 -0.89062,2.67188 -0.40625,1.73437 -0.40625,3.48437 0,4.46875 2.78125,8.92188 z m 4.57205,-4 h -1.54687 v -13.59375 h 1.65625 v 4.84375 q 1.06251,-1.32813 2.70314,-1.32813 0.90625,0 1.71875,0.375 0.8125,0.35938 1.32812,1.03125 0.53125,0.65625 0.82813,1.59375 0.29687,0.9375 0.29687,2 0,2.53125 -1.25,3.92188 -1.25,1.375 -3,1.375 -1.75,0 -2.73439,-1.45313 z m -0.0156,-5 q 0,1.76562 0.46876,2.5625 0.79688,1.28125 2.14063,1.28125 1.09375,0 1.89062,-0.9375 0.79688,-0.95313 0.79688,-2.84375 0,-1.92188 -0.76563,-2.84375 -0.76562,-0.92188 -1.84375,-0.92188 -1.09375,0 -1.89062,0.95313 -0.79689,0.95312 -0.79689,2.75 z m 14.67261,5 h -1.67188 V 384.6127 q -0.59375,0.57813 -1.57812,1.15625 -0.98438,0.5625 -1.76563,0.85938 v -1.625 q 1.40625,-0.65625 2.45313,-1.59375 1.04687,-0.9375 1.48437,-1.8125 h 1.07813 z m 4.98509,0 v -1.90625 h 1.90625 v 1.90625 q 0,1.04687 -0.375,1.6875 -0.375,0.65625 -1.17188,1 l -0.46875,-0.71875 q 0.53125,-0.21875 0.78125,-0.67188 0.25,-0.45312 0.28125,-1.29687 z m 16.36661,-3.60938 1.64062,0.21875 q -0.26562,1.6875 -1.375,2.65625 -1.10937,0.95313 -2.73437,0.95313 -2.01563,0 -3.25,-1.3125 -1.21875,-1.32813 -1.21875,-3.79688 0,-1.59375 0.51562,-2.78125 0.53125,-1.20312 1.60938,-1.79687 1.09375,-0.60938 2.35937,-0.60938 1.60938,0 2.625,0.8125 1.01563,0.8125 1.3125,2.3125 l -1.625,0.25 q -0.23437,-1 -0.82812,-1.5 -0.59375,-0.5 -1.42188,-0.5 -1.26562,0 -2.0625,0.90625 -0.78125,0.90625 -0.78125,2.85938 0,1.98437 0.76563,2.89062 0.76562,0.89063 1.98437,0.89063 0.98438,0 1.64063,-0.59375 0.65625,-0.60938 0.84375,-1.85938 z m 3.98437,7.60938 h -1.1875 q 2.76563,-4.45313 2.76563,-8.92188 0,-1.73437 -0.39063,-3.45312 -0.32812,-1.39063 -0.89062,-2.67188 -0.35938,-0.84375 -1.48438,-2.78125 h 1.1875 q 1.75,2.32813 2.57813,4.67188 0.71875,2.01562 0.71875,4.23437 0,2.5 -0.96875,4.84375 -0.95313,2.32813 -2.32813,4.07813 z"
       id="path573"
       inkscape:connector-curvature="0"
       style="fill:#000000;fill-rule:nonzero" />
    <path
       d="m 509.22964,196.33333 v 40"
       id="path575"
       inkscape:connector-curvature="0"
       style="fill:#000000;fill-opacity:0;fill-rule:evenodd" />
    <path
       d="m 509.22964,196.33333 v 28"
       id="path577"
       inkscape:connector-curvature="0"
       style="fill-rule:evenodd;stroke:#073763;stroke-width:2;stroke-linecap:butt;stroke-linejoin:round" />
    <path
       d="m 505.9262,224.33333 3.30344,9.0762 3.30349,-9.0762 z"
       id="path579"
       inkscape:connector-curvature="0"
       style="fill:#073763;fill-rule:evenodd;stroke:#073763;stroke-width:2;stroke-linecap:butt" />
    <path
       d="m 157.22966,196.33333 -80,72.00001"
       id="path581"
       inkscape:connector-curvature="0"
       style="fill:#000000;fill-opacity:0;fill-rule:evenodd" />
    <path
       d="M 157.22966,196.33333 86.149185,260.30576"
       id="path583"
       inkscape:connector-curvature="0"
       style="fill-rule:evenodd;stroke:#073763;stroke-width:2;stroke-linecap:butt;stroke-linejoin:round" />
    <path
       d="m 83.939285,257.8503 -4.536377,8.5271 8.956184,-3.61621 z"
       id="path585"
       inkscape:connector-curvature="0"
       style="fill:#073763;fill-rule:evenodd;stroke:#073763;stroke-width:2;stroke-linecap:butt" />
    <path
       d="m 157.22966,196.33333 72,72.00001"
       id="path587"
       inkscape:connector-curvature="0"
       style="fill:#000000;fill-opacity:0;fill-rule:evenodd" />
    <path
       d="m 157.22966,196.33333 63.51472,63.51472"
       id="path589"
       inkscape:connector-curvature="0"
       style="fill-rule:evenodd;stroke:#073763;stroke-width:2;stroke-linecap:butt;stroke-linejoin:round" />
    <path
       d="m 218.40848,262.18396 8.75374,4.08194 -4.08194,-8.75375 z"
       id="path591"
       inkscape:connector-curvature="0"
       style="fill:#073763;fill-rule:evenodd;stroke:#073763;stroke-width:2;stroke-linecap:butt" />
    <path
       d="m 221.22966,344.33334 h 6 v -20 h 12 v 20 h 6 l -12,12 z"
       id="path593"
       inkscape:connector-curvature="0"
       style="fill:#cfe2f3;fill-rule:evenodd" />
    <path
       d="m 221.22966,344.33334 h 6 v -20 h 12 v 20 h 6 l -12,12 z"
       id="path595"
       inkscape:connector-curvature="0"
       style="fill-rule:evenodd;stroke:#073763;stroke-width:2;stroke-linecap:butt;stroke-linejoin:round" />
    <path
       d="m 493.22964,312.33334 h 6 v -20 h 12 v 20 h 6.00003 l -12.00003,12 z"
       id="path597"
       inkscape:connector-curvature="0"
       style="fill:#cfe2f3;fill-rule:evenodd" />
    <path
       d="m 493.22964,312.33334 h 6 v -20 h 12 v 20 h 6.00003 l -12.00003,12 z"
       id="path599"
       inkscape:connector-curvature="0"
       style="fill-rule:evenodd;stroke:#073763;stroke-width:2;stroke-linecap:butt;stroke-linejoin:round" />
    <path
       d="M 325.22964,172.33333 H 221.22966"
       id="path601"
       inkscape:connector-curvature="0"
       style="fill:#000000;fill-opacity:0;fill-rule:evenodd" />
    <path
       d="M 325.22964,172.33333 H 233.22966"
       id="path603"
       inkscape:connector-curvature="0"
       style="fill-rule:evenodd;stroke:#073763;stroke-width:2;stroke-linecap:butt;stroke-linejoin:round;stroke-dasharray:2, 6" />
    <path
       d="m 233.22966,169.02986 -9.0762,3.30347 9.0762,3.30346 z"
       id="path605"
       inkscape:connector-curvature="0"
       style="fill:#073763;fill-rule:evenodd;stroke:#073763;stroke-width:2;stroke-linecap:butt" />
    <path
       d="M 325.22964,172.33333 V 388.33335"
       id="path607"
       inkscape:connector-curvature="0"
       style="fill:#000000;fill-opacity:0;fill-rule:evenodd" />
    <path
       d="M 325.22964,172.33333 V 388.33335"
       id="path609"
       inkscape:connector-curvature="0"
       style="fill-rule:evenodd;stroke:#073763;stroke-width:2;stroke-linecap:butt;stroke-linejoin:round;stroke-dasharray:2, 6" />
    <path
       d="m 301.22964,388.33334 h 24"
       id="path611"
       inkscape:connector-curvature="0"
       style="fill:#000000;fill-opacity:0;fill-rule:evenodd" />
    <path
       d="m 301.22964,388.33334 h 24"
       id="path613"
       inkscape:connector-curvature="0"
       style="fill-rule:evenodd;stroke:#073763;stroke-width:2;stroke-linecap:butt;stroke-linejoin:round;stroke-dasharray:2, 6" />
    <path
       d="M 645.2297,68.333336 H 453.22967"
       id="path615"
       inkscape:connector-curvature="0"
       style="fill:#000000;fill-opacity:0;fill-rule:evenodd" />
    <path
       d="M 645.2297,68.333336 H 465.22967"
       id="path617"
       inkscape:connector-curvature="0"
       style="fill-rule:evenodd;stroke:#073763;stroke-width:2;stroke-linecap:butt;stroke-linejoin:round;stroke-dasharray:2, 6" />
    <path
       d="m 465.22964,65.02987 -9.07617,3.303467 9.07617,3.303459 z"
       id="path619"
       inkscape:connector-curvature="0"
       style="fill:#073763;fill-rule:evenodd;stroke:#073763;stroke-width:2;stroke-linecap:butt" />
    <path
       d="M 645.2297,68.333336 V 356.33334"
       id="path621"
       inkscape:connector-curvature="0"
       style="fill:#000000;fill-opacity:0;fill-rule:evenodd" />
    <path
       d="M 645.2297,68.333336 V 356.33334"
       id="path623"
       inkscape:connector-curvature="0"
       style="fill-rule:evenodd;stroke:#073763;stroke-width:2;stroke-linecap:butt;stroke-linejoin:round;stroke-dasharray:2, 6" />
    <path
       d="m 621.2297,356.33334 h 24"
       id="path625"
       inkscape:connector-curvature="0"
       style="fill:#000000;fill-opacity:0;fill-rule:evenodd" />
    <path
       d="m 621.2297,356.33334 h 24"
       id="path627"
       inkscape:connector-curvature="0"
       style="fill-rule:evenodd;stroke:#073763;stroke-width:2;stroke-linecap:butt;stroke-linejoin:round;stroke-dasharray:2, 6" />
    <path
       d="M 333.22964,4.3333335 V 44.333334"
       id="path629"
       inkscape:connector-curvature="0"
       style="fill:#000000;fill-opacity:0;fill-rule:evenodd" />
    <path
       d="M 333.22964,4.3333335 V 32.333331"
       id="path631"
       inkscape:connector-curvature="0"
       style="fill-rule:evenodd;stroke:#073763;stroke-width:2;stroke-linecap:butt;stroke-linejoin:round" />
    <path
       d="m 329.9262,32.333332 3.30344,9.076199 3.30346,-9.076199 z"
       id="path633"
       inkscape:connector-curvature="0"
       style="fill:#073763;fill-rule:evenodd;stroke:#073763;stroke-width:2;stroke-linecap:butt" />
    <path
       d="m 141.22966,100.33334 h 88 v 39.99999 h -88 z"
       id="path635"
       inkscape:connector-curvature="0"
       style="fill:#000000;fill-opacity:0;fill-rule:evenodd" />
    <path
       d="m 171.40053,126.03458 q -0.9375,0.79688 -1.79688,1.125 -0.85937,0.3125 -1.84375,0.3125 -1.60937,0 -2.48437,-0.78125 -0.875,-0.79687 -0.875,-2.03125 0,-0.73437 0.32812,-1.32812 0.32813,-0.59375 0.85938,-0.95313 0.53125,-0.35937 1.20312,-0.54687 0.5,-0.14063 1.48438,-0.25 2.03125,-0.25 2.98437,-0.57813 0,-0.34375 0,-0.4375 0,-1.01562 -0.46875,-1.4375 -0.64062,-0.5625 -1.90625,-0.5625 -1.17187,0 -1.73437,0.40625 -0.5625,0.40625 -0.82813,1.46875 l -1.64062,-0.23437 q 0.23437,-1.04688 0.73437,-1.6875 0.51563,-0.64063 1.46875,-0.98438 0.96875,-0.35937 2.25,-0.35937 1.26563,0 2.04688,0.29687 0.78125,0.29688 1.15625,0.75 0.375,0.45313 0.51562,1.14063 0.0937,0.42187 0.0937,1.53125 v 2.23437 q 0,2.32813 0.0937,2.95313 0.10938,0.60937 0.4375,1.17187 h -1.75 q -0.26562,-0.51562 -0.32812,-1.21875 z m -0.14063,-3.71875 q -0.90625,0.35938 -2.73437,0.625 -1.03125,0.14063 -1.45313,0.32813 -0.42187,0.1875 -0.65625,0.54687 -0.23437,0.35938 -0.23437,0.79688 0,0.67187 0.5,1.125 0.51562,0.4375 1.48437,0.4375 0.96875,0 1.71875,-0.42188 0.75,-0.4375 1.10938,-1.15625 0.26562,-0.57812 0.26562,-1.67187 z m 18.0434,-3.0625 h -8.96875 v -1.5625 h 8.96875 z m 0,4.125 h -8.96875 v -1.54687 h 8.96875 z m 6.42201,3.875 v -1.67187 l 6.96875,-8.70313 q 0.75,-0.9375 1.42188,-1.625 h -7.59375 v -1.59375 h 9.73437 v 1.59375 l -7.625,9.4375 -0.82812,0.95313 h 8.6875 v 1.60937 z"
       id="path637"
       inkscape:connector-curvature="0"
       style="fill:#000000;fill-rule:nonzero" />
    <path
       d="m 445.22964,100.33334 h 112.00003 v 47.99999 H 445.22964 Z"
       id="path639"
       inkscape:connector-curvature="0"
       style="fill:#000000;fill-opacity:0;fill-rule:evenodd" />
    <path
       d="m 470.28833,130.03458 q -0.9375,0.79687 -1.79688,1.125 -0.85937,0.3125 -1.84375,0.3125 -1.60937,0 -2.48437,-0.78125 -0.875,-0.79688 -0.875,-2.03125 0,-0.73437 0.32812,-1.32812 0.32813,-0.59375 0.85938,-0.95312 0.53125,-0.35938 1.20312,-0.54688 0.5,-0.14062 1.48438,-0.25 2.03125,-0.25 2.98437,-0.57812 0,-0.34375 0,-0.4375 0,-1.01563 -0.46875,-1.4375 -0.64062,-0.5625 -1.90625,-0.5625 -1.17187,0 -1.73437,0.40625 -0.5625,0.40625 -0.82813,1.46875 l -1.64062,-0.23438 q 0.23437,-1.04687 0.73437,-1.6875 0.51563,-0.64062 1.46875,-0.98437 0.96875,-0.35938 2.25,-0.35938 1.26563,0 2.04688,0.29688 0.78125,0.29687 1.15625,0.75 0.375,0.45312 0.51562,1.14062 0.0937,0.42188 0.0937,1.53125 v 2.23438 q 0,2.32811 0.0937,2.95311 0.10938,0.60938 0.4375,1.17188 h -1.75 q -0.26562,-0.51563 -0.32812,-1.21875 z m -0.14063,-3.71874 q -0.90625,0.35937 -2.73437,0.625 -1.03125,0.14062 -1.45313,0.32812 -0.42187,0.1875 -0.65625,0.54688 -0.23437,0.35936 -0.23437,0.79686 0,0.67188 0.5,1.125 0.51562,0.4375 1.48437,0.4375 0.96875,0 1.71875,-0.42187 0.75,-0.4375 1.10938,-1.15625 0.26562,-0.57813 0.26562,-1.67187 z m 18.0434,-3.0625 h -8.96875 v -1.5625 h 8.96875 z m 0,4.125 h -8.96875 v -1.54688 h 8.96875 z m 6.9064,-0.5 1.6875,-0.14063 q 0.125,1.01563 0.5625,1.67187 0.4375,0.65625 1.35938,1.0625 0.9375,0.40625 2.09375,0.40625 1.03125,0 1.8125,-0.3125 0.79687,-0.3125 1.1875,-0.84375 0.39062,-0.53125 0.39062,-1.15624 0,-0.64063 -0.375,-1.10938 -0.375,-0.48437 -1.23437,-0.8125 -0.54688,-0.21875 -2.42188,-0.65625 -1.875,-0.45312 -2.625,-0.85937 -0.96875,-0.51563 -1.45312,-1.26563 -0.46875,-0.75 -0.46875,-1.6875 0,-1.03125 0.57812,-1.92187 0.59375,-0.90625 1.70313,-1.35938 1.125,-0.46875 2.5,-0.46875 1.51562,0 2.67187,0.48438 1.15625,0.48437 1.76563,1.4375 0.625,0.9375 0.67187,2.14062 l -1.71875,0.125 q -0.14062,-1.28125 -0.95312,-1.9375 -0.79688,-0.67187 -2.35938,-0.67187 -1.625,0 -2.375,0.60937 -0.75,0.59375 -0.75,1.4375 0,0.73438 0.53125,1.20313 0.51563,0.46875 2.70313,0.96875 2.20312,0.5 3.01562,0.875 1.1875,0.54687 1.75,1.39062 0.57813,0.82813 0.57813,1.92188 0,1.09374 -0.625,2.06249 -0.625,0.95312 -1.79688,1.48437 -1.15625,0.53125 -2.60937,0.53125 -1.84375,0 -3.09375,-0.53125 -1.25,-0.54687 -1.96875,-1.625 -0.70313,-1.07812 -0.73438,-2.45311 z m 16.0217,8.37499 q -1.375,-1.75 -2.32812,-4.07813 -0.95313,-2.34375 -0.95313,-4.84374 0,-2.21875 0.70313,-4.23437 0.84375,-2.34375 2.57812,-4.67188 h 1.20313 q -1.125,1.92188 -1.48438,2.75 -0.5625,1.28125 -0.89062,2.67188 -0.40625,1.73437 -0.40625,3.48437 0,4.46874 2.78125,8.92187 z m 9.46265,-5.21875 q -0.9375,0.79687 -1.79688,1.125 -0.85937,0.3125 -1.84375,0.3125 -1.60937,0 -2.48437,-0.78125 -0.875,-0.79688 -0.875,-2.03125 0,-0.73437 0.32812,-1.32812 0.32813,-0.59375 0.85938,-0.95312 0.53125,-0.35938 1.20312,-0.54688 0.5,-0.14062 1.48438,-0.25 2.03125,-0.25 2.98437,-0.57812 0,-0.34375 0,-0.4375 0,-1.01563 -0.46875,-1.4375 -0.64062,-0.5625 -1.90625,-0.5625 -1.17187,0 -1.73437,0.40625 -0.5625,0.40625 -0.82813,1.46875 l -1.64062,-0.23438 q 0.23437,-1.04687 0.73437,-1.6875 0.51563,-0.64062 1.46875,-0.98437 0.96875,-0.35938 2.25,-0.35938 1.26563,0 2.04688,0.29688 0.78125,0.29687 1.15625,0.75 0.375,0.45312 0.51562,1.14062 0.0937,0.42188 0.0937,1.53125 v 2.23438 q 0,2.32811 0.0937,2.95311 0.10938,0.60938 0.4375,1.17188 h -1.75 q -0.26562,-0.51563 -0.32812,-1.21875 z m -0.14063,-3.71874 q -0.90625,0.35937 -2.73437,0.625 -1.03125,0.14062 -1.45313,0.32812 -0.42187,0.1875 -0.65625,0.54688 -0.23437,0.35936 -0.23437,0.79686 0,0.67188 0.5,1.125 0.51562,0.4375 1.48437,0.4375 0.96875,0 1.71875,-0.42187 0.75,-0.4375 1.10938,-1.15625 0.26562,-0.57813 0.26562,-1.67187 z m 9.90699,4.93749 h -1.67188 v -10.64062 q -0.59375,0.57813 -1.57812,1.15625 -0.98438,0.5625 -1.76563,0.85938 v -1.625 q 1.40625,-0.65625 2.45313,-1.59375 1.04687,-0.9375 1.48437,-1.8125 h 1.07813 z m 5.64135,4 h -1.1875 q 2.76563,-4.45313 2.76563,-8.92187 0,-1.73437 -0.39063,-3.45312 -0.32812,-1.39063 -0.89062,-2.67188 -0.35938,-0.84375 -1.48438,-2.78125 h 1.1875 q 1.75,2.32813 2.57813,4.67188 0.71875,2.01562 0.71875,4.23437 0,2.49999 -0.96875,4.84374 -0.95313,2.32813 -2.32813,4.07813 z"
       id="path641"
       inkscape:connector-curvature="0"
       style="fill:#000000;fill-rule:nonzero" />
    <path
       d="m 37.22966,212.33333 h 80 v 40 h -80 z"
       id="path643"
       inkscape:connector-curvature="0"
       style="fill:#000000;fill-opacity:0;fill-rule:evenodd" />
    <path
       d="m 58.509903,239.25333 h -1.546875 v -13.59375 h 1.65625 v 4.84375 q 1.0625,-1.32813 2.703125,-1.32813 0.90625,0 1.71875,0.375 0.8125,0.35938 1.328125,1.03125 0.53125,0.65625 0.828125,1.59375 0.296875,0.9375 0.296875,2 0,2.53125 -1.25,3.92188 -1.25,1.375 -3,1.375 -1.75,0 -2.734375,-1.45313 z m -0.01563,-5 q 0,1.76562 0.46875,2.5625 0.796875,1.28125 2.140625,1.28125 1.09375,0 1.890625,-0.9375 0.796875,-0.95313 0.796875,-2.84375 0,-1.92188 -0.765625,-2.84375 -0.765625,-0.92188 -1.84375,-0.92188 -1.09375,0 -1.890625,0.95313 -0.796875,0.95312 -0.796875,2.75 z m 22.809021,-3 h -8.96875 v -1.5625 h 8.96875 z m 0,4.125 h -8.96875 v -1.54688 h 8.96875 z m 6.422012,3.875 v -1.67188 l 6.96875,-8.70312 q 0.75,-0.9375 1.421875,-1.625 h -7.59375 v -1.59375 h 9.734375 v 1.59375 l -7.625,9.4375 -0.828125,0.95312 h 8.6875 v 1.60938 z"
       id="path645"
       inkscape:connector-curvature="0"
       style="fill:#000000;fill-rule:nonzero" />
    <path
       d="m 197.22966,212.33333 h 103.99998 v 40 H 197.22966 Z"
       id="path647"
       inkscape:connector-curvature="0"
       style="fill:#000000;fill-opacity:0;fill-rule:evenodd" />
    <path
       d="m 213.3977,239.25333 h -1.54688 v -13.59375 h 1.65625 v 4.84375 q 1.0625,-1.32813 2.70313,-1.32813 0.90625,0 1.71875,0.375 0.8125,0.35938 1.32812,1.03125 0.53125,0.65625 0.82813,1.59375 0.29687,0.9375 0.29687,2 0,2.53125 -1.25,3.92188 -1.25,1.375 -3,1.375 -1.75,0 -2.73437,-1.45313 z m -0.0156,-5 q 0,1.76562 0.46875,2.5625 0.79688,1.28125 2.14063,1.28125 1.09375,0 1.89062,-0.9375 0.79688,-0.95313 0.79688,-2.84375 0,-1.92188 -0.76563,-2.84375 -0.76562,-0.92188 -1.84375,-0.92188 -1.09375,0 -1.89062,0.95313 -0.79688,0.95312 -0.79688,2.75 z m 22.80903,-3 h -8.96875 v -1.5625 h 8.96875 z m 0,4.125 h -8.96875 v -1.54688 h 8.96875 z m 6.90638,-0.5 1.6875,-0.14063 q 0.125,1.01563 0.5625,1.67188 0.4375,0.65625 1.35938,1.0625 0.9375,0.40625 2.09375,0.40625 1.03125,0 1.8125,-0.3125 0.79687,-0.3125 1.1875,-0.84375 0.39062,-0.53125 0.39062,-1.15625 0,-0.64063 -0.375,-1.10938 -0.375,-0.48437 -1.23437,-0.8125 -0.54688,-0.21875 -2.42188,-0.65625 -1.875,-0.45312 -2.625,-0.85937 -0.96875,-0.51563 -1.45312,-1.26563 -0.46875,-0.75 -0.46875,-1.6875 0,-1.03125 0.57812,-1.92187 0.59375,-0.90625 1.70313,-1.35938 1.125,-0.46875 2.5,-0.46875 1.51562,0 2.67187,0.48438 1.15625,0.48437 1.76563,1.4375 0.625,0.9375 0.67187,2.14062 l -1.71875,0.125 q -0.14062,-1.28125 -0.95312,-1.9375 -0.79688,-0.67187 -2.35938,-0.67187 -1.625,0 -2.375,0.60937 -0.75,0.59375 -0.75,1.4375 0,0.73438 0.53125,1.20313 0.51563,0.46875 2.70313,0.96875 2.20312,0.5 3.01562,0.875 1.1875,0.54687 1.75,1.39062 0.57813,0.82813 0.57813,1.92188 0,1.09375 -0.625,2.0625 -0.625,0.95312 -1.79688,1.48437 -1.15625,0.53125 -2.60937,0.53125 -1.84375,0 -3.09375,-0.53125 -1.25,-0.54687 -1.96875,-1.625 -0.70313,-1.07812 -0.73438,-2.45312 z m 16.02172,8.375 q -1.375,-1.75 -2.32813,-4.07813 -0.95314,-2.34375 -0.95314,-4.84375 0,-2.21875 0.70314,-4.23437 0.84375,-2.34375 2.57813,-4.67188 h 1.20312 q -1.125,1.92188 -1.48437,2.75 -0.5625,1.28125 -0.89063,2.67188 -0.40625,1.73437 -0.40625,3.48437 0,4.46875 2.78125,8.92188 z m 4.57205,-4 h -1.54688 v -13.59375 h 1.65625 v 4.84375 q 1.0625,-1.32813 2.70313,-1.32813 0.90625,0 1.71875,0.375 0.8125,0.35938 1.32812,1.03125 0.53125,0.65625 0.82813,1.59375 0.29687,0.9375 0.29687,2 0,2.53125 -1.25,3.92188 -1.25,1.375 -3,1.375 -1.75,0 -2.73437,-1.45313 z m -0.0156,-5 q 0,1.76562 0.46875,2.5625 0.79688,1.28125 2.14063,1.28125 1.09375,0 1.89062,-0.9375 0.79688,-0.95313 0.79688,-2.84375 0,-1.92188 -0.76563,-2.84375 -0.76562,-0.92188 -1.84375,-0.92188 -1.09375,0 -1.89062,0.95313 -0.79688,0.95312 -0.79688,2.75 z m 14.67258,5 h -1.67187 V 228.6127 q -0.59375,0.57813 -1.57813,1.15625 -0.98437,0.5625 -1.76562,0.85938 v -1.625 q 1.40625,-0.65625 2.45312,-1.59375 1.04688,-0.9375 1.48438,-1.8125 h 1.07812 z m 5.64136,4 h -1.1875 q 2.76562,-4.45313 2.76562,-8.92188 0,-1.73437 -0.39062,-3.45312 -0.32813,-1.39063 -0.89063,-2.67188 -0.35937,-0.84375 -1.48437,-2.78125 h 1.1875 q 1.75,2.32813 2.57812,4.67188 0.71875,2.01562 0.71875,4.23437 0,2.5 -0.96875,4.84375 -0.95312,2.32813 -2.32812,4.07813 z"
       id="path649"
       inkscape:connector-curvature="0"
       style="fill:#000000;fill-rule:nonzero" />
  </g>
</svg>
