<?xml version="1.0" encoding="UTF-8" standalone="no"?>
<svg
   xmlns:dc="http://purl.org/dc/elements/1.1/"
   xmlns:cc="http://creativecommons.org/ns#"
   xmlns:rdf="http://www.w3.org/1999/02/22-rdf-syntax-ns#"
   xmlns:svg="http://www.w3.org/2000/svg"
   xmlns="http://www.w3.org/2000/svg"
   xmlns:sodipodi="http://sodipodi.sourceforge.net/DTD/sodipodi-0.dtd"
   xmlns:inkscape="http://www.inkscape.org/namespaces/inkscape"
   version="1.1"
   viewBox="0 0 306.73596 178.85775"
   stroke-miterlimit="10"
   id="svg49"
   sodipodi:docname="wiscp3.svg"
   width="306.73596"
   height="178.85774"
   style="fill:none;stroke:none;stroke-linecap:square;stroke-miterlimit:10"
   inkscape:version="0.92.1 r15371">
  <metadata
     id="metadata55">
    <rdf:RDF>
      <cc:Work
         rdf:about="">
        <dc:format>image/svg+xml</dc:format>
        <dc:type
           rdf:resource="http://purl.org/dc/dcmitype/StillImage" />
        <dc:title></dc:title>
      </cc:Work>
    </rdf:RDF>
  </metadata>
  <defs
     id="defs53" />
  <sodipodi:namedview
     pagecolor="#ffffff"
     bordercolor="#666666"
     borderopacity="1"
     objecttolerance="10"
     gridtolerance="10"
     guidetolerance="10"
     inkscape:pageopacity="0"
     inkscape:pageshadow="2"
     inkscape:window-width="1434"
     inkscape:window-height="1083"
     id="namedview51"
     showgrid="false"
     fit-margin-top="10"
     fit-margin-left="10"
     fit-margin-right="10"
     fit-margin-bottom="10"
     inkscape:zoom="1.1884847"
     inkscape:cx="153.36798"
     inkscape:cy="89.428866"
     inkscape:window-x="65"
     inkscape:window-y="24"
     inkscape:window-maximized="0"
     inkscape:current-layer="svg49" />
  <clipPath
     id="p.0">
    <path
       d="M 0,0 H 358.41995 V 198.57217 H 0 Z"
       id="path2"
       inkscape:connector-curvature="0"
       style="clip-rule:nonzero" />
  </clipPath>
  <g
     clip-path="url(#p.0)"
     id="g47"
     transform="matrix(0.8,0,0,0.8,10,10)">
    <path
       d="M 0,0 H 358.41995 V 198.57217 H 0 Z"
       id="path5"
       inkscape:connector-curvature="0"
       style="fill:#000000;fill-opacity:0;fill-rule:evenodd" />
    <path
       d="m 54.076115,16.546118 v 0 c 0,-5.114173 4.145855,-9.260029 9.260029,-9.260029 H 295.08379 c 2.45591,0 4.81125,0.9756074 6.54782,2.7121987 1.73661,1.7365923 2.71222,4.0919173 2.71222,6.5478293 v 37.039 c 0,5.11417 -4.14587,9.260029 -9.26004,9.260029 H 63.336144 v 0 c -5.114174,0 -9.260029,-4.145859 -9.260029,-9.260029 z"
       id="path7"
       inkscape:connector-curvature="0"
       style="fill:#cfe2f3;fill-rule:evenodd" />
    <path
       d="m 54.076115,16.546118 v 0 c 0,-5.114173 4.145855,-9.260029 9.260029,-9.260029 H 295.08379 c 2.45591,0 4.81125,0.9756074 6.54782,2.7121987 1.73661,1.7365923 2.71222,4.0919173 2.71222,6.5478293 v 37.039 c 0,5.11417 -4.14587,9.260029 -9.26004,9.260029 H 63.336144 v 0 c -5.114174,0 -9.260029,-4.145859 -9.260029,-9.260029 z"
       id="path9"
       inkscape:connector-curvature="0"
       style="fill-rule:evenodd;stroke:#073763;stroke-width:2;stroke-linecap:butt;stroke-linejoin:round" />
    <path
       d="m 133.04723,36.379993 1.42188,0.359375 q -0.4375,1.75 -1.60938,2.671875 -1.15625,0.921875 -2.82812,0.921875 -1.73438,0 -2.82813,-0.703125 -1.09375,-0.71875 -1.65625,-2.046875 -0.5625,-1.34375 -0.5625,-2.890625 0,-1.671875 0.64063,-2.921877 0.64062,-1.25 1.8125,-1.890625 1.1875,-0.65625 2.60937,-0.65625 1.60938,0 2.70313,0.828125 1.10937,0.8125 1.54687,2.296877 l -1.40625,0.328125 q -0.375,-1.171877 -1.09375,-1.703127 -0.70312,-0.53125 -1.78125,-0.53125 -1.23437,0 -2.0625,0.59375 -0.82812,0.59375 -1.17187,1.593752 -0.32813,1 -0.32813,2.0625 0,1.359375 0.39063,2.390625 0.40625,1.015625 1.23437,1.53125 0.84375,0.5 1.82813,0.5 1.20312,0 2.03125,-0.6875 0.82812,-0.6875 1.10937,-2.046875 z m 5.2874,6.921875 q -1.09375,-1.375 -1.85938,-3.21875 -0.75,-1.84375 -0.75,-3.828125 0,-1.734375 0.5625,-3.34375 0.65625,-1.843752 2.04688,-3.687502 h 0.9375 q -0.89063,1.53125 -1.17188,2.171875 -0.45312,1.015627 -0.70312,2.109377 -0.3125,1.375 -0.3125,2.765625 0,3.515625 2.1875,7.03125 z m 2.55252,-3.15625 V 29.411241 h 7.76563 v 1.265625 h -6.34375 v 3.281252 h 5.9375 v 1.265625 h -5.9375 v 3.65625 h 6.59375 v 1.265625 z m 14.18185,0 h -1.32812 v -8.406252 q -0.46875,0.453127 -1.25,0.921877 -0.76563,0.453125 -1.375,0.671875 v -1.28125 q 1.09375,-0.515627 1.92187,-1.250002 0.82813,-0.734375 1.17188,-1.4375 h 0.85937 z m 3.88549,0 v -1.5 h 1.5 v 1.5 q 0,0.828125 -0.29688,1.328125 -0.28125,0.515625 -0.92187,0.796875 l -0.35938,-0.5625 q 0.40625,-0.1875 0.60938,-0.546875 0.20312,-0.34375 0.21875,-1.015625 z m 8.00332,0 V 29.411241 h 7.76563 v 1.265625 h -6.34375 v 3.281252 h 5.9375 v 1.265625 h -5.9375 v 3.65625 h 6.59375 v 1.265625 z m 16.13498,-1.265625 v 1.265625 h -7.09375 q -0.0156,-0.46875 0.15625,-0.921875 0.26563,-0.71875 0.85938,-1.421875 0.60937,-0.703125 1.73437,-1.625 1.75,-1.4375 2.35938,-2.265625 0.625,-0.84375 0.625,-1.59375 0,-0.781252 -0.5625,-1.312502 -0.5625,-0.546875 -1.46875,-0.546875 -0.95313,0 -1.53125,0.578125 -0.5625,0.5625 -0.5625,1.578127 l -1.35938,-0.140625 q 0.14063,-1.515627 1.04688,-2.312502 0.90625,-0.796875 2.4375,-0.796875 1.54687,0 2.4375,0.859375 0.90625,0.859375 0.90625,2.125002 0,0.640625 -0.26563,1.265625 -0.25,0.625 -0.875,1.3125 -0.60937,0.6875 -2.03125,1.890625 -1.1875,0.984375 -1.53125,1.34375 -0.32812,0.359375 -0.54687,0.71875 z m 1.93236,1.265625 v -1.5 h 1.5 v 1.5 q 0,0.828125 -0.29687,1.328125 -0.28125,0.515625 -0.92188,0.796875 l -0.35937,-0.5625 q 0.40625,-0.1875 0.60937,-0.546875 0.20313,-0.34375 0.21875,-1.015625 z m 8.1752,0 v -1.5 h 1.5 v 1.5 z m 4.07198,0 v -1.5 h 1.5 v 1.5 z m 4.07197,0 v -1.5 h 1.5 v 1.5 z m 4.04073,0 v -1.5 h 1.5 v 1.5 q 0,0.828125 -0.29688,1.328125 -0.28125,0.515625 -0.92187,0.796875 l -0.35938,-0.5625 q 0.40625,-0.1875 0.60938,-0.546875 0.20312,-0.34375 0.21875,-1.015625 z m 8.00332,0 V 29.411241 h 7.76563 v 1.265625 h -6.34375 v 3.281252 h 5.9375 v 1.265625 h -5.9375 v 3.65625 h 6.59375 v 1.265625 z m 9.58811,0 V 29.411241 h 1.3125 v 6.125002 l 3.125,-3.171875 h 1.70312 l -2.96875,2.890625 3.26563,4.890625 h -1.625 l -2.5625,-3.984375 -0.9375,0.90625 v 3.078125 z m 8.1875,3.15625 h -0.95313 q 2.1875,-3.515625 2.1875,-7.03125 0,-1.390625 -0.3125,-2.734375 -0.25,-1.109375 -0.6875,-2.109377 -0.29687,-0.65625 -1.1875,-2.203125 h 0.95313 q 1.375,1.84375 2.03125,3.687502 0.5625,1.609375 0.5625,3.34375 0,1.984375 -0.76563,3.828125 -0.75,1.84375 -1.82812,3.21875 z"
       id="path11"
       inkscape:connector-curvature="0"
       style="fill:#000000;fill-rule:nonzero" />
    <path
       d="m 7.209974,151.28625 v 0 c 0,-4.41837 3.581793,-8.00017 8.00016,-8.00017 h 39.99968 c 2.121777,0 4.156647,0.84288 5.656967,2.3432 1.500324,1.50032 2.343193,3.53519 2.343193,5.65697 v 31.99968 c 0,4.41837 -3.581791,8.00015 -8.00016,8.00015 h -39.99968 c -4.418366,0 -8.00016,-3.58178 -8.00016,-8.00015 z"
       id="path13"
       inkscape:connector-curvature="0"
       style="fill:#cfe2f3;fill-rule:evenodd" />
    <path
       d="m 7.209974,151.28625 v 0 c 0,-4.41837 3.581793,-8.00017 8.00016,-8.00017 h 39.99968 c 2.121777,0 4.156647,0.84288 5.656967,2.3432 1.500324,1.50032 2.343193,3.53519 2.343193,5.65697 v 31.99968 c 0,4.41837 -3.581791,8.00015 -8.00016,8.00015 h -39.99968 c -4.418366,0 -8.00016,-3.58178 -8.00016,-8.00015 z"
       id="path15"
       inkscape:connector-curvature="0"
       style="fill-rule:evenodd;stroke:#073763;stroke-width:2;stroke-linecap:butt;stroke-linejoin:round" />
    <path
       d="m 28.824232,171.80609 v -8.59375 h 6.203123 v 1.01562 h -5.062498 v 2.625 h 4.749998 v 1.01563 h -4.749998 v 2.92187 h 5.265623 v 1.01563 z m 11.519529,0 h -1.046875 v -6.71875 q -0.390625,0.35937 -1.015625,0.73437 -0.609375,0.35938 -1.09375,0.53125 v -1.01562 q 0.875,-0.42188 1.53125,-1 0.671875,-0.59375 0.953125,-1.15625 h 0.671875 z"
       id="path17"
       inkscape:connector-curvature="0"
       style="fill:#000000;fill-rule:nonzero" />
    <path
       d="m 103.20998,151.28625 v 0 c 0,-4.41837 3.58179,-8.00017 8.00016,-8.00017 h 39.99967 c 2.12178,0 4.15665,0.84288 5.65697,2.3432 1.50032,1.50032 2.3432,3.53519 2.3432,5.65697 v 31.99968 c 0,4.41837 -3.5818,8.00015 -8.00017,8.00015 h -39.99967 c -4.41837,0 -8.00016,-3.58178 -8.00016,-8.00015 z"
       id="path19"
       inkscape:connector-curvature="0"
       style="fill:#cfe2f3;fill-rule:evenodd" />
    <path
       d="m 103.20998,151.28625 v 0 c 0,-4.41837 3.58179,-8.00017 8.00016,-8.00017 h 39.99967 c 2.12178,0 4.15665,0.84288 5.65697,2.3432 1.50032,1.50032 2.3432,3.53519 2.3432,5.65697 v 31.99968 c 0,4.41837 -3.5818,8.00015 -8.00017,8.00015 h -39.99967 c -4.41837,0 -8.00016,-3.58178 -8.00016,-8.00015 z"
       id="path21"
       inkscape:connector-curvature="0"
       style="fill-rule:evenodd;stroke:#073763;stroke-width:2;stroke-linecap:butt;stroke-linejoin:round" />
    <path
       d="m 124.09011,172.08609 v -9.3125 h 6.71874 v 1.10938 h -5.48436 v 2.84375 h 5.14061 v 1.09375 h -5.14061 v 3.17187 h 5.70311 v 1.09375 z m 14.40537,-1.09375 v 1.09375 h -6.15625 q -0.0156,-0.40625 0.14063,-0.79687 0.23437,-0.625 0.75,-1.23438 0.51562,-0.60937 1.5,-1.40625 1.51562,-1.25 2.04687,-1.96875 0.53125,-0.73437 0.53125,-1.375 0,-0.6875 -0.48437,-1.14062 -0.48438,-0.46875 -1.26563,-0.46875 -0.82812,0 -1.32812,0.5 -0.48438,0.48437 -0.5,1.35937 l -1.17188,-0.125 q 0.125,-1.3125 0.90625,-2 0.78125,-0.6875 2.10938,-0.6875 1.34375,0 2.125,0.75 0.78125,0.73438 0.78125,1.82813 0,0.5625 -0.23438,1.10937 -0.21875,0.53125 -0.75,1.14063 -0.53125,0.59375 -1.76562,1.625 -1.03125,0.85937 -1.32813,1.17187 -0.28125,0.3125 -0.46875,0.625 z"
       id="path23"
       inkscape:connector-curvature="0"
       style="fill:#000000;fill-rule:nonzero" />
    <path
       d="m 295.20996,151.28625 v 0 c 0,-4.41837 3.58182,-8.00017 8.00018,-8.00017 h 39.99967 c 2.12176,0 4.15664,0.84288 5.65698,2.3432 1.5003,1.50032 2.34317,3.53519 2.34317,5.65697 v 31.99968 c 0,4.41837 -3.58179,8.00015 -8.00015,8.00015 h -39.99967 c -4.41836,0 -8.00018,-3.58178 -8.00018,-8.00015 z"
       id="path25"
       inkscape:connector-curvature="0"
       style="fill:#cfe2f3;fill-rule:evenodd" />
    <path
       d="m 295.20996,151.28625 v 0 c 0,-4.41837 3.58182,-8.00017 8.00018,-8.00017 h 39.99967 c 2.12176,0 4.15664,0.84288 5.65698,2.3432 1.5003,1.50032 2.34317,3.53519 2.34317,5.65697 v 31.99968 c 0,4.41837 -3.58179,8.00015 -8.00015,8.00015 h -39.99967 c -4.41836,0 -8.00018,-3.58178 -8.00018,-8.00015 z"
       id="path27"
       inkscape:connector-curvature="0"
       style="fill-rule:evenodd;stroke:#073763;stroke-width:2;stroke-linecap:butt;stroke-linejoin:round" />
    <path
       d="m 316.46432,172.08609 v -9.3125 h 6.71875 v 1.10938 h -5.48438 v 2.84375 h 5.14063 v 1.09375 h -5.14063 v 3.17187 h 5.70313 v 1.09375 z m 8.71786,0 v -9.3125 h 1.14063 v 5.3125 l 2.70312,-2.73437 h 1.48438 l -2.57813,2.5 2.84375,4.23437 h -1.40625 l -2.23437,-3.45312 -0.8125,0.78125 v 2.67187 z"
       id="path29"
       inkscape:connector-curvature="0"
       style="fill:#000000;fill-rule:nonzero" />
    <path
       d="m 191.20998,167.28609 h 79.99998"
       id="path31"
       inkscape:connector-curvature="0"
       style="fill:#000000;fill-opacity:0;fill-rule:evenodd" />
    <path
       d="m 191.20998,167.28609 h 79.99998"
       id="path33"
       inkscape:connector-curvature="0"
       style="fill-rule:evenodd;stroke:#073763;stroke-width:2;stroke-linecap:butt;stroke-linejoin:round;stroke-dasharray:2, 6" />
    <path
       d="m 33.94507,112.19338 6.740158,4.57479 25.934372,-38.20541 13.480316,9.149605 -25.934376,38.205415 6.740158,4.5748 -22.16011,3.6371 z"
       id="path35"
       inkscape:connector-curvature="0"
       style="fill:#cfe2f3;fill-rule:evenodd" />
    <path
       d="m 33.94507,112.19338 6.740158,4.57479 25.934372,-38.20541 13.480316,9.149605 -25.934376,38.205415 6.740158,4.5748 -22.16011,3.6371 z"
       id="path37"
       inkscape:connector-curvature="0"
       style="fill-rule:evenodd;stroke:#073763;stroke-width:2;stroke-linecap:butt;stroke-linejoin:round" />
    <path
       d="m 117.03883,115.94592 8.22047,1.43306 5.62751,-32.278494 16.44094,2.866143 -5.6275,32.278491 8.22048,1.43308 -19.1599,12.72938 z"
       id="path39"
       inkscape:connector-curvature="0"
       style="fill:#cfe2f3;fill-rule:evenodd" />
    <path
       d="m 117.03883,115.94592 8.22047,1.43306 5.62751,-32.278494 16.44094,2.866143 -5.6275,32.278491 8.22048,1.43308 -19.1599,12.72938 z"
       id="path41"
       inkscape:connector-curvature="0"
       style="fill-rule:evenodd;stroke:#073763;stroke-width:2;stroke-linecap:butt;stroke-linejoin:round" />
    <path
       d="m 297.43835,130.6661 6.47244,-4.15748 -25.21423,-39.248778 12.94488,-8.314957 25.21421,39.248775 6.47244,-4.15748 -5.05673,20.59374 z"
       id="path43"
       inkscape:connector-curvature="0"
       style="fill:#cfe2f3;fill-rule:evenodd" />
    <path
       d="m 297.43835,130.6661 6.47244,-4.15748 -25.21423,-39.248778 12.94488,-8.314957 25.21421,39.248775 6.47244,-4.15748 -5.05673,20.59374 z"
       id="path45"
       inkscape:connector-curvature="0"
       style="fill-rule:evenodd;stroke:#073763;stroke-width:2;stroke-linecap:butt;stroke-linejoin:round" />
  </g>
</svg>
